<?xml version="1.0" standalone="no"?>
<!DOCTYPE svg PUBLIC "-//W3C//DTD SVG 1.1//EN" "http://www.w3.org/Graphics/SVG/1.1/DTD/svg11.dtd" >
<svg xmlns="http://www.w3.org/2000/svg" xmlns:xlink="http://www.w3.org/1999/xlink" version="1.1">
<metadata>
Created by FontForge 20150102 at Mon Mar  2 07:35:16 2015
 By uniteet7
Copyright (c) 2012 by Vyacheslav Kirilenko, Gayane Bagdasaryan. All rights reserved.
</metadata>
<defs>
<font id="GeometriaRegular" horiz-adv-x="637" >
  <font-face 
    font-family="GeometriaRegular"
    font-weight="400"
    font-stretch="normal"
    units-per-em="1000"
    panose-1="2 11 5 3 2 2 4 2 2 4"
    ascent="800"
    descent="-200"
    x-height="483"
    cap-height="700"
    bbox="-425 -231 1436 926"
    underline-thickness="50"
    underline-position="-50"
    unicode-range="U+000D-FEFF"
  />
<missing-glyph horiz-adv-x="711" 
d="M86 700h439v-700h-439v700zM467 51v598h-323v-598h323z" />
    <glyph glyph-name="ij" unicode="ij" horiz-adv-x="527" 
d="M96 483h72v-483h-72v483zM82 649q0 21 14.5 36t35.5 15t36 -15t15 -36t-15 -35.5t-36 -14.5t-35.5 14.5t-14.5 35.5zM287 -204q-20 0 -44.5 4.5t-40.5 13.5v66q14 -8 32 -13.5t38 -5.5q85 0 85 97v525h72v-536q0 -41 -11.5 -70t-31 -47t-45 -26t-54.5 -8zM343 649
q0 21 14.5 36t35.5 15t36 -15t15 -36t-15 -35.5t-36 -14.5t-35.5 14.5t-14.5 35.5z" />
    <glyph glyph-name="f_f" unicode="ff" horiz-adv-x="699" 
d="M123 0v420h-96v63h96v81q0 65 34.5 104.5t103.5 39.5q29 0 54 -4t48 -15v-66q-17 8 -37.5 14t-46.5 6q-42 0 -63 -24t-21 -69v-67h236v81q0 65 34.5 104.5t103.5 39.5q29 0 54 -4t48 -15v-66q-17 8 -37.5 14t-46.5 6q-42 0 -63 -24t-21 -69v-67h168v-63h-168v-420h-72
v420h-236v-420h-72z" />
    <glyph glyph-name="fi" unicode="fi" horiz-adv-x="601" 
d="M195 483h308v-483h-72v420h-236v-420h-72v420h-96v63h96v81q0 65 34.5 104.5t103.5 39.5q29 0 54 -4t48 -15v-66q-17 8 -37.5 14t-46.5 6q-42 0 -63 -24t-21 -69v-67zM417 649q0 21 14.5 36t35.5 15t36 -15t15 -36t-15 -35.5t-36 -14.5t-35.5 14.5t-14.5 35.5z" />
    <glyph glyph-name="fl" unicode="fl" horiz-adv-x="638" 
d="M542 -12q-20 0 -40 5.5t-35.5 19t-25.5 36.5t-10 58v313h-236v-420h-72v420h-96v63h96v81q0 65 34.5 104.5t103.5 39.5q29 0 54 -4t48 -15v-66q-17 8 -37.5 14t-46.5 6q-42 0 -63 -24t-21 -69v-67h236v217h72v-576q0 -37 16.5 -54t46.5 -17q24 0 47 13v-64
q-15 -8 -33.5 -11t-37.5 -3z" />
    <glyph glyph-name="f_f_i" unicode="ffi" horiz-adv-x="903" 
d="M123 0v420h-96v63h96v81q0 65 34.5 104.5t103.5 39.5q29 0 54 -4t48 -15v-66q-17 8 -37.5 14t-46.5 6q-42 0 -63 -24t-21 -69v-67h236v81q0 65 34.5 104.5t103.5 39.5q29 0 54 -4t48 -15v-66q-17 8 -37.5 14t-46.5 6q-42 0 -63 -24t-21 -69v-67h308v-483h-72v420h-236
v-420h-72v420h-236v-420h-72zM775 598q-22 0 -36 14.5t-14 36.5t14 36.5t36 14.5t36.5 -14.5t14.5 -36.5t-14.5 -36.5t-36.5 -14.5z" />
    <glyph glyph-name="f_f_l" unicode="ffl" horiz-adv-x="946" 
d="M123 0v420h-96v63h96v81q0 65 34.5 104.5t103.5 39.5q29 0 54 -4t48 -15v-66q-17 8 -37.5 14t-46.5 6q-42 0 -63 -24t-21 -69v-67h236v81q0 65 34.5 104.5t103.5 39.5q29 0 54 -4t48 -15v-66q-17 8 -37.5 14t-46.5 6q-42 0 -63 -24t-21 -69v-67h236v217h72v-576
q0 -37 16.5 -54t46.5 -17q24 0 47 13v-64q-15 -8 -33.5 -11t-37.5 -3q-20 0 -40 5.5t-35.5 19t-25.5 36.5t-10 58v313h-236v-420h-72v420h-236v-420h-72z" />
    <glyph glyph-name=".notdef" horiz-adv-x="711" 
d="M86 700h439v-700h-439v700zM467 51v598h-323v-598h323z" />
    <glyph glyph-name=".null" horiz-adv-x="0" 
 />
    <glyph glyph-name=".null" horiz-adv-x="0" 
 />
    <glyph glyph-name="nonmarkingreturn" unicode="&#xd;" horiz-adv-x="264" 
 />
    <glyph glyph-name="space" unicode=" " horiz-adv-x="264" 
 />
    <glyph glyph-name="exclam" unicode="!" horiz-adv-x="285" 
d="M97 700h93l-13 -485h-67zM91 46q0 22 15 37t37 15t37 -15t15 -37t-15 -37t-37 -15t-37 15t-15 37z" />
    <glyph glyph-name="quotedbl" unicode="&#x22;" horiz-adv-x="359" 
d="M55 700h64v-253h-64v253zM240 700h64v-253h-64v253z" />
    <glyph glyph-name="numbersign" unicode="#" horiz-adv-x="728" 
d="M180 189h-145l10 61h144l32 199h-145l10 61h144l31 190h61l-30 -190h195l30 190h61l-30 -190h145l-10 -61h-144l-32 -199h145l-10 -61h-145l-30 -189h-61l30 189h-195l-30 -189h-61zM446 250l31 199h-195l-31 -199h195z" />
    <glyph glyph-name="dollar" unicode="$" horiz-adv-x="627" 
d="M269 -112v102q-70 5 -128 25t-93 47v83q18 -16 45 -31.5t60 -28t71 -20.5t78 -8t74.5 9t60 26t40 41.5t14.5 55.5q0 34 -15.5 57t-42.5 38.5t-63 27t-76 23.5q-48 13 -90.5 27.5t-74 36t-49.5 53t-18 79.5q0 35 13.5 66t39.5 54.5t65 39t89 19.5v103h74v-103
q53 -5 98 -19.5t81 -36.5v-76q-43 27 -98.5 46t-117.5 19q-45 0 -77 -9.5t-52.5 -25.5t-30 -36.5t-9.5 -42.5q0 -32 16.5 -52.5t44 -34.5t63 -24t73.5 -21q42 -13 84 -28t75 -38.5t53.5 -57t20.5 -83.5q0 -45 -18 -80.5t-48.5 -60.5t-71 -40t-86.5 -19v-103z" />
    <glyph glyph-name="percent" unicode="%" horiz-adv-x="826" 
d="M587 700h63l-410 -700h-63zM215 712q37 0 68 -13t53.5 -36t35 -53.5t12.5 -65.5t-12.5 -66t-35 -54t-53.5 -36t-68 -13q-36 0 -67 13t-53 36t-34.5 54t-12.5 66t12.5 65.5t34.5 53.5t53 36t67 13zM215 430q48 0 78.5 32.5t30.5 81.5q0 24 -8 44.5t-22.5 35.5t-34.5 24
t-44 9t-44 -9t-34 -24t-22 -35.5t-8 -44.5q0 -49 30 -81.5t78 -32.5zM610 325q37 0 67.5 -13t53 -36t35 -54t12.5 -66t-12.5 -65.5t-35 -53.5t-53 -36t-67.5 -13q-36 0 -67 13t-53 36t-34.5 53.5t-12.5 65.5t12.5 66t34.5 54t53 36t67 13zM610 43q48 0 78 32.5t30 80.5
t-30 81t-78 33t-78 -33t-30 -81t30 -80.5t78 -32.5z" />
    <glyph glyph-name="ampersand" unicode="&#x26;" horiz-adv-x="713" 
d="M499 584q-33 26 -73.5 44.5t-91.5 18.5q-60 0 -94.5 -30t-34.5 -81q0 -22 6.5 -40t16.5 -33.5t22.5 -29t25.5 -26.5l239 -233q54 83 60 201h72q-4 -71 -24.5 -135t-57.5 -115l128 -125h-96l-76 74q-43 -40 -98.5 -63t-123.5 -23q-50 0 -96 14t-80.5 41.5t-55 69
t-20.5 96.5q0 42 13 75t33 58t43 41.5t43 25.5q-20 23 -34 53t-14 74q0 38 14.5 70.5t40.5 56t61 36.5t77 13q56 0 99.5 -15t75.5 -38v-75zM303 53q51 0 93.5 18t75.5 50l-246 240q-19 -6 -37.5 -19t-33.5 -32t-24.5 -44.5t-9.5 -56.5q0 -36 13.5 -65t38 -49.5t58 -31
t72.5 -10.5z" />
    <glyph glyph-name="quotesingle" unicode="'" horiz-adv-x="174" 
d="M55 700h64v-253h-64v253z" />
    <glyph glyph-name="parenleft" unicode="(" horiz-adv-x="362" 
d="M243 -212q-30 39 -57.5 86.5t-47.5 104.5t-32 123t-12 142t12 142t32 123t47.5 104.5t57.5 86.5h77q-31 -40 -59 -87.5t-49.5 -104t-34.5 -122.5t-13 -142q0 -77 13 -142.5t34.5 -122t49.5 -104t59 -87.5h-77v0z" />
    <glyph glyph-name="parenright" unicode=")" horiz-adv-x="362" 
d="M42 -212q31 40 59 87.5t49.5 104t34.5 122t13 142.5q0 76 -13 142t-34.5 122.5t-49.5 104t-59 87.5h77q30 -39 57.5 -86.5t47.5 -104.5t32 -123t12 -142t-12 -142t-32 -123t-47.5 -104.5t-57.5 -86.5h-77z" />
    <glyph glyph-name="asterisk" unicode="*" horiz-adv-x="426" 
d="M189 478l-117 -71l-28 47l120 67l-120 66l28 48l117 -72l-3 137h55l-3 -137l117 72l28 -48l-121 -66l121 -67l-28 -47l-117 71l3 -137h-55z" />
    <glyph glyph-name="plus" unicode="+" horiz-adv-x="619" 
d="M277 292h-207v67h207v206h65v-206h207v-67h-207v-205h-65v205z" />
    <glyph glyph-name="comma" unicode="," horiz-adv-x="236" 
d="M95 103h84l-106 -255h-58z" />
    <glyph glyph-name="hyphen" unicode="-" horiz-adv-x="481" 
d="M100 305h281v-67h-281v67z" />
    <glyph glyph-name="period" unicode="." horiz-adv-x="236" 
d="M66 46q0 22 15 37t37 15t37 -15t15 -37t-15 -37t-37 -15t-37 15t-15 37z" />
    <glyph glyph-name="slash" unicode="/" horiz-adv-x="511" 
d="M426 792h75l-421 -932h-75z" />
    <glyph glyph-name="zero" unicode="0" horiz-adv-x="708" 
d="M354 -12q-65 0 -118 28.5t-90.5 77.5t-58 115t-20.5 141t20.5 141t58 115t90.5 77.5t118 28.5t118 -28.5t90.5 -77.5t57.5 -115t20 -141t-20 -141t-57.5 -115t-90.5 -77.5t-118 -28.5zM354 57q47 0 86.5 22.5t67.5 62t43.5 93t15.5 115.5t-15.5 115.5t-43.5 93t-67.5 62
t-86.5 22.5t-86.5 -22.5t-67.5 -62t-43.5 -93t-15.5 -115.5t15.5 -115.5t43.5 -93t67.5 -62t86.5 -22.5z" />
    <glyph glyph-name="one" unicode="1" horiz-adv-x="373" 
d="M191 620l-157 -90v71l165 99h65v-700h-73v620z" />
    <glyph glyph-name="two" unicode="2" horiz-adv-x="575" 
d="M44 55l236 225q35 33 61.5 60.5t44 53.5t26.5 52.5t9 57.5q0 62 -43.5 100.5t-115.5 38.5q-34 0 -62.5 -7.5t-53 -20t-46 -30t-40.5 -36.5v83q35 32 86.5 56t122.5 24q48 0 89 -14t71.5 -40.5t48 -63t17.5 -81.5q0 -38 -9.5 -69.5t-28.5 -62.5t-48 -63t-69 -70l-188 -181
h369v-67h-477v55z" />
    <glyph glyph-name="three" unicode="3" horiz-adv-x="571" 
d="M245 -12q-65 0 -116 14t-88 37v77q35 -25 86 -42t114 -17q38 0 73.5 11t63 32t44 51.5t16.5 70.5q0 72 -51 115.5t-139 43.5q-23 0 -42 -2.5t-36 -7.5v51l216 211h-316v67h416v-55l-209 -205q43 -1 85 -16t75.5 -43.5t54 -68.5t20.5 -90q0 -53 -21 -96.5t-57 -74t-85 -47
t-104 -16.5z" />
    <glyph glyph-name="four" unicode="4" horiz-adv-x="633" 
d="M412 193h-376v59l377 448h71v-440h116v-67h-116v-193h-72v193zM412 260v342l-290 -342h290z" />
    <glyph glyph-name="five" unicode="5" horiz-adv-x="597" 
d="M255 -12q-61 0 -108.5 12.5t-84.5 33.5v74q33 -20 81.5 -35.5t109.5 -15.5q44 0 81.5 12t65 33.5t43 52t15.5 66.5q0 34 -14 63.5t-39.5 51t-62.5 33.5t-83 12q-87 0 -168 -29l46 348h346v-67h-290l-28 -202q23 6 49.5 9.5t61.5 3.5q55 0 101.5 -16.5t81 -45.5t54 -70.5
t19.5 -90.5q0 -53 -21.5 -95.5t-58.5 -73.5t-88 -47.5t-109 -16.5z" />
    <glyph glyph-name="six" unicode="6" horiz-adv-x="641" 
d="M336 -12q-61 0 -110 22t-83.5 64t-53 103t-18.5 139q0 82 20.5 154.5t59.5 126t95.5 84.5t128.5 31q40 0 78 -10.5t70 -32.5v-71q-66 45 -142 45q-63 0 -107.5 -26t-73 -68.5t-42.5 -96t-15 -108.5q26 45 78.5 74.5t126.5 29.5q46 0 87 -16t72 -45.5t49 -70.5t18 -91
q0 -52 -18.5 -95.5t-50.5 -75t-75.5 -49t-93.5 -17.5zM332 57q36 0 66.5 12.5t53.5 35t36 53t13 67.5t-13.5 66t-36.5 49.5t-54 31.5t-67 11q-32 0 -61 -10.5t-53.5 -29t-43 -43.5t-27.5 -53q9 -88 55.5 -139t131.5 -51z" />
    <glyph glyph-name="seven" unicode="7" horiz-adv-x="553" 
d="M422 633h-377v67h462v-55l-327 -645h-78z" />
    <glyph glyph-name="eight" unicode="8" horiz-adv-x="645" 
d="M438 369q67 -17 108.5 -63t41.5 -115q0 -47 -21 -84.5t-57 -64t-84.5 -40.5t-103.5 -14t-103.5 14t-84.5 40.5t-57 64t-21 84.5q0 69 42 115t109 63q-51 21 -83.5 61.5t-32.5 98.5q0 41 17.5 74.5t48.5 57.5t73.5 37.5t91.5 13.5t91.5 -13.5t74 -37.5t49 -57.5
t17.5 -74.5q0 -58 -32.5 -98.5t-83.5 -61.5zM161 523q0 -28 12.5 -51t34 -39t51 -25t63.5 -9t63.5 9t51.5 25t34.5 39t12.5 51t-12.5 51.5t-34.5 40t-51.5 25.5t-63.5 9t-63.5 -9t-51 -25.5t-34 -40t-12.5 -51.5zM322 51q41 0 76 11t61 30.5t41 45.5t15 57q0 32 -15 58
t-41 44.5t-61 28.5t-76 10t-76 -10t-60.5 -28.5t-40.5 -44.5t-15 -58q0 -31 15 -57t40.5 -45.5t60.5 -30.5t76 -11z" />
    <glyph glyph-name="nine" unicode="9" horiz-adv-x="641" 
d="M309 712q61 0 110 -22t83.5 -64t53 -103t18.5 -139q0 -83 -20.5 -155t-59.5 -125.5t-95.5 -84.5t-128.5 -31q-40 0 -78 10.5t-70 32.5v71q66 -45 142 -45q63 0 107.5 26t73 68.5t42.5 96t15 108.5q-26 -45 -78.5 -74.5t-126.5 -29.5q-46 0 -87 16t-72 45t-49 70.5
t-18 91.5q0 52 18.5 95.5t50.5 75t75.5 49t93.5 17.5zM313 643q-36 0 -66.5 -12.5t-53.5 -35t-36 -53t-13 -67.5t13.5 -66t36.5 -49.5t54 -31.5t67 -11q31 0 60.5 10.5t54 29t43 43t27.5 53.5q-9 88 -55.5 139t-131.5 51z" />
    <glyph glyph-name="colon" unicode=":" horiz-adv-x="236" 
d="M66 418q0 22 15 37t37 15t37 -15t15 -37t-15 -37t-37 -15t-37 15t-15 37zM66 46q0 22 15 37t37 15t37 -15t15 -37t-15 -37t-37 -15t-37 15t-15 37z" />
    <glyph glyph-name="semicolon" unicode=";" horiz-adv-x="242" 
d="M95 103h84l-106 -255h-58zM81 418q0 22 15 37t37 15t37 -15t15 -37t-15 -37t-37 -15t-37 15t-15 37z" />
    <glyph glyph-name="less" unicode="&#x3c;" horiz-adv-x="619" 
d="M70 289v68l479 205v-72l-401 -167l401 -166v-72z" />
    <glyph glyph-name="equal" unicode="=" horiz-adv-x="619" 
d="M70 472h479v-66h-479v66zM70 244h479v-66h-479v66z" />
    <glyph glyph-name="greater" unicode="&#x3e;" horiz-adv-x="619" 
d="M70 157l401 166l-401 167v72l479 -205v-68l-479 -204v72z" />
    <glyph glyph-name="question" unicode="?" horiz-adv-x="476" 
d="M175 360q31 6 63.5 19.5t58 33.5t42 45.5t16.5 57.5q0 29 -11.5 52.5t-32 40t-48 25.5t-60.5 9q-53 0 -96 -18t-76 -41v68q33 25 81 40.5t102 15.5q43 0 82 -13t68.5 -37.5t47 -59.5t17.5 -79q0 -39 -16 -70.5t-41.5 -56t-59 -42t-67.5 -28.5v-107h-70v145zM160 46
q0 22 15 37t37 15t37 -15t15 -37t-15 -37t-37 -15t-37 15t-15 37z" />
    <glyph glyph-name="at" unicode="@" horiz-adv-x="962" 
d="M482 -162q-89 0 -168 33t-137.5 91.5t-92.5 138.5t-34 174q0 93 34 173t92.5 138.5t137.5 92t168 33.5q92 0 171 -32t136.5 -87.5t90.5 -130.5t33 -161q0 -51 -12 -94.5t-34 -75t-54 -49.5t-71 -18q-53 0 -82.5 24t-41.5 54q-9 -13 -24 -27t-35.5 -26t-45.5 -19.5
t-55 -7.5q-45 0 -81.5 17t-62.5 46t-40.5 67.5t-14.5 81.5t14.5 81.5t40.5 67.5t62.5 46t80.5 17q28 0 52 -7t42.5 -17.5t33 -23t23.5 -24.5v57h70v-271q0 -54 22 -79t57 -25q27 0 50 14.5t40.5 41.5t27 65t9.5 85q0 76 -28 145.5t-80.5 122t-127 84t-166.5 31.5
q-88 0 -162 -32.5t-127.5 -88t-83.5 -130.5t-30 -159q0 -85 30 -160t83.5 -130.5t127.5 -87.5t162 -32q62 0 112.5 14t95.5 38v-30q-45 -23 -97 -36t-111 -13zM476 125q42 0 77.5 23t54.5 56v140q-19 33 -54.5 56t-77.5 23q-31 0 -57.5 -11.5t-46 -31.5t-30.5 -47.5
t-11 -58.5t11 -58t30.5 -47.5t46 -32t57.5 -11.5z" />
    <glyph glyph-name="A" unicode="A" horiz-adv-x="753" 
d="M342 704h69l313 -704h-78l-87 193h-367l-85 -193h-77zM535 258l-159 353l-159 -353h318z" />
    <glyph glyph-name="B" unicode="B" horiz-adv-x="726" 
d="M99 700h303q94 0 147.5 -45t53.5 -125q0 -57 -25 -94.5t-67 -53.5q69 -11 110.5 -60t41.5 -127q0 -44 -15.5 -79.5t-45 -61.5t-72.5 -40t-97 -14h-334v700zM420 67q78 0 121 35.5t43 101.5q0 65 -43 100t-121 35h-247v-272h247zM390 404q67 0 103.5 29t36.5 84
q0 57 -36.5 86.5t-103.5 29.5h-217v-229h217z" />
    <glyph glyph-name="C" unicode="C" horiz-adv-x="690" 
d="M429 -12q-76 0 -141.5 26.5t-114 74.5t-76 114.5t-27.5 146.5q0 79 27.5 145.5t75.5 114.5t113.5 75t142.5 27q56 0 104.5 -12.5t91.5 -39.5v-76q-43 28 -90 43.5t-105 15.5q-60 0 -112 -22t-90.5 -61t-60.5 -93t-22 -117q0 -64 22 -117.5t61 -92.5t91.5 -61t112.5 -22
q121 0 208 70v-77q-42 -31 -95.5 -46.5t-115.5 -15.5z" />
    <glyph glyph-name="D" unicode="D" horiz-adv-x="778" 
d="M99 700h229q84 0 154 -25.5t120 -71.5t77.5 -110.5t27.5 -142.5t-27.5 -142.5t-77.5 -110.5t-120 -71.5t-154 -25.5h-229v700zM319 67q73 0 131 20t98.5 57t62 89.5t21.5 116.5t-21.5 116.5t-62 89.5t-98.5 57t-131 20h-146v-566h146z" />
    <glyph glyph-name="E" unicode="E" horiz-adv-x="640" 
d="M99 700h480v-67h-406v-224h333v-67h-333v-275h421v-67h-495v700z" />
    <glyph glyph-name="F" unicode="F" horiz-adv-x="622" 
d="M99 700h477v-67h-403v-233h327v-67h-327v-333h-74v700z" />
    <glyph glyph-name="G" unicode="G" horiz-adv-x="780" 
d="M427 -12q-75 0 -140.5 26.5t-113.5 74.5t-75.5 114.5t-27.5 146.5q0 79 27.5 145.5t75.5 114.5t113.5 75t142.5 27q65 0 121 -17t101 -50v-75q-49 37 -105 55t-113 18q-61 0 -113.5 -22t-91.5 -61t-61 -93t-22 -118q0 -65 22.5 -119t60.5 -92.5t89.5 -59.5t109.5 -21
t110 18t89 55v272h73v-301q-42 -48 -112 -80.5t-160 -32.5z" />
    <glyph glyph-name="H" unicode="H" horiz-adv-x="761" 
d="M99 700h74v-291h416v291h74v-700h-74v342h-416v-342h-74v700z" />
    <glyph glyph-name="I" unicode="I" horiz-adv-x="281" 
d="M104 700h74v-700h-74v700z" />
    <glyph glyph-name="J" unicode="J" horiz-adv-x="507" 
d="M196 -12q-43 0 -85 10.5t-75 34.5v77q28 -25 67 -39t80 -14q81 0 121 40.5t40 128.5v474h74v-487q0 -59 -16 -101.5t-45.5 -70t-70.5 -40.5t-90 -13z" />
    <glyph glyph-name="K" unicode="K" horiz-adv-x="661" 
d="M173 396l324 304h98l-344 -320l397 -380h-104l-371 356v-356h-74v700h74v-304z" />
    <glyph glyph-name="L" unicode="L" horiz-adv-x="597" 
d="M99 700h74v-633h391v-67h-465v700z" />
    <glyph glyph-name="M" unicode="M" horiz-adv-x="848" 
d="M99 700h73l253 -339l253 339h72v-700h-73v588l-229 -306h-45l-231 306v-588h-73v700z" />
    <glyph glyph-name="N" unicode="N" horiz-adv-x="775" 
d="M99 700h64l442 -572v572h72v-700h-63l-443 574v-574h-72v700z" />
    <glyph glyph-name="O" unicode="O" horiz-adv-x="845" 
d="M422 712q75 0 139.5 -27.5t112 -76t74 -115t26.5 -143.5t-26.5 -143.5t-74 -115t-112 -76t-139.5 -27.5t-139.5 27.5t-112 76t-74 115t-26.5 143.5t26.5 143.5t74 115t112 76t139.5 27.5zM422 57q58 0 108.5 22t88 61.5t59 93t21.5 116.5t-21.5 116.5t-59 93t-88 61.5
t-108.5 22t-108.5 -22t-88 -61.5t-59 -93t-21.5 -116.5t21.5 -116.5t59 -93t88 -61.5t108.5 -22z" />
    <glyph glyph-name="P" unicode="P" horiz-adv-x="665" 
d="M99 700h294q54 0 95.5 -14.5t70 -40t43.5 -61t15 -78.5q0 -44 -15 -80t-43.5 -62t-70 -40.5t-95.5 -14.5h-220v-309h-74v700zM388 376q74 0 115 33t41 95q0 63 -41 96t-115 33h-215v-257h215z" />
    <glyph glyph-name="Q" unicode="Q" horiz-adv-x="845" 
d="M422 712q75 0 139.5 -27.5t112 -76t74 -115t26.5 -143.5q0 -62 -17 -116.5t-48.5 -99.5t-75 -77.5t-96.5 -50.5q29 -29 63 -46.5t67 -17.5q26 0 46 6t37 17v-72q-20 -10 -41 -15t-51 -5t-57 9.5t-52 26t-48.5 37t-46.5 43.5q-8 -1 -16 -1h-16q-75 0 -139.5 27.5t-112 76
t-74 115t-26.5 143.5t26.5 143.5t74 115t112 76t139.5 27.5zM422 57q58 0 108.5 22t88 61.5t59 93t21.5 116.5t-21.5 116.5t-59 93t-88 61.5t-108.5 22t-108.5 -22t-88 -61.5t-59 -93t-21.5 -116.5t21.5 -116.5t59 -93t88 -61.5t108.5 -22z" />
    <glyph glyph-name="R" unicode="R" horiz-adv-x="736" 
d="M99 700h313q52 0 93.5 -14t69.5 -39t43 -60t15 -77q0 -73 -42.5 -123.5t-122.5 -64.5l226 -322h-87l-220 315h-214v-315h-74v700zM408 382q72 0 111.5 32t39.5 93q0 60 -39.5 93t-111.5 33h-235v-251h235z" />
    <glyph glyph-name="S" unicode="S" horiz-adv-x="628" 
d="M307 -12q-82 0 -150 22t-109 52v83q18 -16 45 -31.5t60 -28t71 -20.5t78 -8t74.5 9t60 26t40 41.5t14.5 55.5q0 34 -15.5 57t-42.5 38.5t-63 27t-76 23.5q-48 13 -90.5 27.5t-74 36t-49.5 53t-18 79.5q0 38 16 71t46.5 57.5t75.5 38.5t104 14q65 0 120.5 -16t97.5 -42
v-76q-43 27 -98.5 46t-117.5 19q-45 0 -77 -9.5t-52.5 -25.5t-30 -36.5t-9.5 -42.5q0 -32 16.5 -52.5t44 -34.5t63 -24t73.5 -21q42 -13 84 -28t75 -38.5t53.5 -57t20.5 -83.5q0 -49 -21 -87t-57 -63.5t-83 -38.5t-99 -13z" />
    <glyph glyph-name="T" unicode="T" horiz-adv-x="630" 
d="M277 633h-241v67h559v-67h-244v-633h-74v633z" />
    <glyph glyph-name="U" unicode="U" horiz-adv-x="748" 
d="M374 -12q-62 0 -114.5 20t-90.5 59t-59.5 97t-21.5 134v402h74v-403q0 -116 58 -178t154 -62t154 62t58 178v403h74v-402q0 -76 -21.5 -134t-60 -97t-91 -59t-113.5 -20z" />
    <glyph glyph-name="V" unicode="V" horiz-adv-x="754" 
d="M34 700h81l262 -602l262 602h81l-309 -704h-69z" />
    <glyph glyph-name="W" unicode="W" horiz-adv-x="1053" 
d="M39 700h82l195 -583l181 586h60l182 -586l194 583h80l-241 -704h-65l-180 578l-181 -578h-65z" />
    <glyph glyph-name="X" unicode="X" horiz-adv-x="708" 
d="M310 380l-235 320h87l193 -260l194 260h85l-235 -319l281 -381h-88l-238 321l-238 -321h-87z" />
    <glyph glyph-name="Y" unicode="Y" horiz-adv-x="664" 
d="M295 321l-272 379h86l224 -310l224 310h84l-272 -378v-322h-74v321z" />
    <glyph glyph-name="Z" unicode="Z" horiz-adv-x="642" 
d="M49 53l429 580h-405v67h504v-52l-425 -581h441v-67h-544v53z" />
    <glyph glyph-name="bracketleft" unicode="[" horiz-adv-x="388" 
d="M95 706h253v-61h-183v-790h183v-61h-253v912z" />
    <glyph glyph-name="backslash" unicode="\" horiz-adv-x="510" 
d="M10 792h75l421 -932h-75z" />
    <glyph glyph-name="bracketright" unicode="]" horiz-adv-x="389" 
d="M293 -206h-253v61h183v790h-183v61h253v-912z" />
    <glyph glyph-name="asciicircum" unicode="^" horiz-adv-x="517" 
d="M224 717h69l170 -371h-69l-135 303l-135 -303h-70z" />
    <glyph glyph-name="underscore" unicode="_" horiz-adv-x="620" 
d="M8 -73h604v-56h-604v56z" />
    <glyph glyph-name="grave" unicode="`" horiz-adv-x="524" 
d="M165 710h91l96 -134h-69z" />
    <glyph glyph-name="a" unicode="a" horiz-adv-x="594" 
d="M248 53q28 0 53 7t47 18.5t39 26t29 29.5v67q-26 17 -66.5 32.5t-90.5 15.5q-66 0 -104.5 -26t-38.5 -71q0 -26 11 -45t29.5 -31t42 -17.5t49.5 -5.5zM228 -12q-36 0 -69.5 10.5t-59 30.5t-40.5 50t-15 69q0 38 15.5 68t42.5 50.5t63 31t77 10.5q61 0 103.5 -15t70.5 -32
v48q0 34 -12 57t-33 37t-50.5 20.5t-63.5 6.5q-48 0 -90.5 -16t-67.5 -33v70q24 15 67.5 29.5t105.5 14.5q46 0 85.5 -10.5t68.5 -32.5t45.5 -56t16.5 -80v-199q0 -29 12.5 -44.5t33.5 -15.5q16 0 28 6v-56q-8 -6 -22 -8.5t-26 -2.5q-32 0 -58.5 17.5t-32.5 59.5
q-29 -34 -77.5 -59.5t-117.5 -25.5z" />
    <glyph glyph-name="b" unicode="b" horiz-adv-x="636" 
d="M157 700v-294q28 37 75 63t112 26q55 0 99.5 -20.5t76.5 -55t49.5 -81t17.5 -97.5t-17.5 -97t-49.5 -80.5t-76.5 -55t-99.5 -20.5q-65 0 -112 26t-75 63v-77h-72v700h72zM157 162q10 -23 27.5 -43t40 -34.5t48.5 -23t54 -8.5q40 0 74.5 14.5t59 40t38.5 59.5t14 74
t-14 74.5t-38.5 60t-59 40t-74.5 14.5q-57 0 -103 -31t-67 -78v-159z" />
    <glyph glyph-name="c" unicode="c" horiz-adv-x="524" 
d="M307 -12q-55 0 -102 19.5t-81.5 53.5t-54 80.5t-19.5 100.5t19.5 100.5t54 80t82 53t102.5 19.5q44 0 79.5 -9t66.5 -26v-67q-66 37 -136 37q-41 0 -76.5 -14t-61.5 -39t-41 -60t-15 -76t15 -75.5t41 -59.5t61.5 -39t76.5 -14q43 0 78.5 11t66.5 31v-66q-68 -41 -156 -41
z" />
    <glyph glyph-name="d" unicode="d" 
d="M552 700v-700h-72v77q-28 -37 -75 -63t-112 -26q-55 0 -99.5 20.5t-76.5 55t-49.5 80.5t-17.5 97t17.5 97.5t49.5 81t76.5 55t99.5 20.5q65 0 112 -26t75 -63v294h72zM480 321q-21 47 -67 78t-103 31q-41 0 -75 -14.5t-58.5 -40t-38.5 -60t-14 -74.5t14 -74t38.5 -59.5
t58.5 -40t75 -14.5q28 0 54 8.5t48.5 23t39.5 34.5t28 43v159z" />
    <glyph glyph-name="e" unicode="e" horiz-adv-x="571" 
d="M316 -12q-56 0 -104.5 18.5t-84.5 52t-56.5 80t-20.5 102.5q0 54 17.5 100t50 80.5t77.5 54t100 19.5q61 0 104 -24t70 -60.5t39.5 -81t12.5 -85.5v-20h-397q3 -39 19 -70.5t43 -54t63.5 -34.5t80.5 -12q46 0 85 12.5t70 32.5v-64q-26 -20 -71 -33t-98 -13zM448 283
q-1 23 -10 49t-27.5 47.5t-47.5 36t-71 14.5q-39 0 -69 -12.5t-51 -33.5t-33 -47.5t-14 -53.5h323z" />
    <glyph glyph-name="f" unicode="f" horiz-adv-x="391" 
d="M123 0v420h-96v63h96v81q0 65 34.5 104.5t103.5 39.5q29 0 54 -4t48 -15v-66q-17 8 -37.5 14t-46.5 6q-42 0 -63 -24t-21 -69v-67h168v-63h-168v-420h-72z" />
    <glyph glyph-name="g" unicode="g" horiz-adv-x="636" 
d="M480 82q-27 -36 -74 -61t-113 -25q-54 0 -99 20t-77 53.5t-49.5 79t-17.5 96.5t17.5 96.5t49.5 79.5t77 54t99 20q66 0 113 -24.5t74 -61.5v74h72v-452q0 -60 -21 -104t-57 -73.5t-83.5 -43.5t-100.5 -14q-52 0 -103 12.5t-84 31.5v70q38 -23 85 -36t95 -13q40 0 76 9.5
t63 30t42.5 53t15.5 77.5v51zM480 324q-20 47 -66.5 76.5t-103.5 29.5q-40 0 -74 -14t-59 -39t-39 -59t-14 -73t14 -73t39 -58.5t59 -38.5t74 -14q57 0 103.5 29.5t66.5 76.5v157z" />
    <glyph glyph-name="h" unicode="h" horiz-adv-x="610" 
d="M85 0v700h72v-291q14 16 33 31.5t43.5 27.5t53.5 19.5t63 7.5q92 0 138 -53.5t46 -147.5v-294h-72v278q0 48 -13.5 77t-33.5 45t-44 21.5t-46 5.5q-26 0 -51 -9t-47.5 -23t-40.5 -32t-29 -37v-326h-72z" />
    <glyph glyph-name="i" unicode="i" horiz-adv-x="266" 
d="M96 483h72v-483h-72v483zM82 649q0 21 14.5 36t35.5 15t36 -15t15 -36t-15 -35.5t-36 -14.5t-35.5 14.5t-14.5 35.5z" />
    <glyph glyph-name="j" unicode="j" horiz-adv-x="266" 
d="M26 -204q-20 0 -44.5 4.5t-40.5 13.5v66q14 -8 32 -13.5t38 -5.5q85 0 85 97v525h72v-536q0 -41 -11.5 -70t-31 -47t-45 -26t-54.5 -8zM82 649q0 21 14.5 36t35.5 15t36 -15t15 -36t-15 -35.5t-36 -14.5t-35.5 14.5t-14.5 35.5z" />
    <glyph glyph-name="k" unicode="k" horiz-adv-x="541" 
d="M157 284l230 199h98l-255 -218l291 -265h-103l-261 238v-238h-72v700h72v-416z" />
    <glyph glyph-name="l" unicode="l" horiz-adv-x="292" 
d="M196 -12q-20 0 -40 5.5t-35.5 19t-25.5 36.5t-10 58v593h72v-576q0 -37 16.5 -54t46.5 -17q24 0 47 13v-64q-15 -8 -33.5 -11t-37.5 -3z" />
    <glyph glyph-name="m" unicode="m" horiz-adv-x="919" 
d="M85 483h72v-72q24 34 67.5 59t106.5 25q60 0 100 -25.5t55 -69.5q25 38 72 66.5t114 28.5q80 0 125.5 -49t45.5 -145v-301h-72v285q0 47 -12.5 75t-30.5 43t-39 19.5t-38 4.5q-24 0 -47 -9t-43.5 -23.5t-36.5 -33t-26 -38.5q1 -15 1.5 -26.5t0.5 -27.5v-269h-72v285
q0 47 -12.5 75t-30.5 43t-39 19.5t-38 4.5q-23 0 -45 -8t-42 -22t-36.5 -32t-27.5 -38v-327h-72v483z" />
    <glyph glyph-name="n" unicode="n" horiz-adv-x="610" 
d="M85 0v483h72v-74q14 16 33 31.5t43.5 27.5t53.5 19.5t63 7.5q92 0 138 -53.5t46 -147.5v-294h-72v278q0 48 -13.5 77t-33.5 45t-44 21.5t-46 5.5q-26 0 -51 -9t-47.5 -23t-40.5 -32t-29 -37v-326h-72z" />
    <glyph glyph-name="o" unicode="o" horiz-adv-x="621" 
d="M311 495q59 0 107 -20.5t82.5 -55.5t53 -81t18.5 -97t-18.5 -97t-53 -80.5t-82.5 -55t-107 -20.5t-107 20.5t-82.5 55t-53 80.5t-18.5 97t18.5 97t53 81t82.5 55.5t107 20.5zM311 53q40 0 74.5 14.5t59.5 40t39 59.5t14 74t-14 74.5t-39 60t-59.5 40t-74.5 14.5
q-41 0 -75 -14.5t-59 -40t-39 -60t-14 -74.5t14 -74t39 -59.5t59 -40t75 -14.5z" />
    <glyph glyph-name="p" unicode="p" horiz-adv-x="636" 
d="M85 -200v683h72v-77q28 37 75 63t112 26q55 0 99.5 -20.5t76.5 -55t49.5 -80.5t17.5 -97t-17.5 -97.5t-49.5 -81t-76.5 -55t-99.5 -20.5q-65 0 -112 26t-75 63v-277h-72zM157 162q21 -47 67 -78t103 -31q40 0 74.5 14.5t59 40t38.5 60t14 74.5t-14 74t-38.5 59.5t-59 40
t-74.5 14.5q-28 0 -54 -8.5t-48.5 -23t-40 -34.5t-27.5 -43v-159z" />
    <glyph glyph-name="q" unicode="q" 
d="M480 -200v277q-28 -37 -75 -63t-112 -26q-55 0 -99.5 20.5t-76.5 55t-49.5 81t-17.5 97.5t17.5 97t49.5 80.5t76.5 55t99.5 20.5q65 0 112 -26t75 -63v77h72v-683h-72zM480 321q-11 23 -28 43t-39.5 34.5t-48.5 23t-54 8.5q-41 0 -75 -14.5t-58.5 -40t-38.5 -59.5
t-14 -74t14 -74.5t38.5 -60t58.5 -40t75 -14.5q57 0 103 31t67 78v159z" />
    <glyph glyph-name="r" unicode="r" horiz-adv-x="369" 
d="M85 483h72v-92q28 48 81 76t111 28v-73q-33 0 -60 -9q-52 -13 -85 -45t-47 -63v-305h-72v483z" />
    <glyph glyph-name="s" unicode="s" horiz-adv-x="509" 
d="M249 -12q-64 0 -118 15.5t-82 34.5v74q13 -9 32.5 -19t45 -19t56 -15t64.5 -6q62 0 97.5 20.5t35.5 56.5q0 21 -12 34.5t-33 22t-48.5 14.5t-57.5 14q-38 10 -69.5 21.5t-53.5 28t-34 40t-12 56.5q0 61 50 97.5t144 36.5q48 0 96 -11.5t80 -31.5v-71q-33 20 -78.5 34.5
t-94.5 14.5q-65 0 -94.5 -20.5t-29.5 -50.5q0 -21 12.5 -35t33.5 -23t47 -15t53 -12q35 -8 66.5 -19t55.5 -27.5t38.5 -40.5t14.5 -58q0 -33 -15.5 -59.5t-43 -44.5t-65 -27.5t-81.5 -9.5z" />
    <glyph glyph-name="t" unicode="t" horiz-adv-x="430" 
d="M277 -12q-36 0 -62 11.5t-42.5 31.5t-24 47t-7.5 59v283h-114v63h114v149h72v-149h169v-63h-169v-261q0 -57 19.5 -80t64.5 -23q26 0 46 6t33 14v-66q-14 -10 -42.5 -16t-56.5 -6z" />
    <glyph glyph-name="u" unicode="u" horiz-adv-x="611" 
d="M526 483v-483h-72v74q-14 -16 -33 -31.5t-43.5 -27.5t-53.5 -19.5t-63 -7.5q-92 0 -138 53.5t-46 147.5v294h72v-278q0 -48 13 -77t33.5 -45t44.5 -21.5t46 -5.5q25 0 50.5 8.5t48 23t40.5 32.5t29 37v326h72z" />
    <glyph glyph-name="v" unicode="v" horiz-adv-x="567" 
d="M28 483h81l176 -389l175 389h78l-222 -486h-66z" />
    <glyph glyph-name="w" unicode="w" horiz-adv-x="819" 
d="M38 483h74l135 -376l132 378h61l133 -378l134 376h73l-173 -486h-63l-136 379l-134 -379h-63z" />
    <glyph glyph-name="x" unicode="x" horiz-adv-x="554" 
d="M236 255l-179 228h85l138 -172l138 172h84l-180 -226l203 -257h-85l-161 202l-163 -202h-83z" />
    <glyph glyph-name="y" unicode="y" horiz-adv-x="555" 
d="M112 -204q-23 0 -43.5 3t-33.5 11v67q15 -8 30.5 -12t35.5 -4q48 0 79.5 40.5t63.5 116.5l-215 465h80l171 -380l166 380h78l-239 -537q-31 -71 -72 -110.5t-101 -39.5z" />
    <glyph glyph-name="z" unicode="z" horiz-adv-x="504" 
d="M38 48l308 372h-287v63h390v-50l-307 -370h323v-63h-427v48z" />
    <glyph glyph-name="braceleft" unicode="{" horiz-adv-x="363" 
d="M270 -206q-65 0 -101.5 36.5t-36.5 102.5v152q0 24 -2 47.5t-9.5 42t-23 31t-42.5 15.5v58q27 3 42.5 15t23 30t9.5 41t2 47v155q0 66 36.5 102.5t101.5 36.5h57v-61h-41q-43 0 -63.5 -23t-20.5 -63v-165q0 -52 -13 -90t-56 -54q22 -8 35.5 -22t21 -32.5t10 -41.5
t2.5 -48v-165q0 -41 20.5 -63.5t63.5 -22.5h41v-61h-57v0z" />
    <glyph glyph-name="bar" unicode="|" horiz-adv-x="306" 
d="M122 760h62v-871h-62v871z" />
    <glyph glyph-name="braceright" unicode="}" horiz-adv-x="363" 
d="M36 -206v61h41q43 0 63.5 22.5t20.5 63.5v165q0 25 2.5 48t10 41.5t21 32.5t35.5 22q-22 8 -35.5 22t-21 32.5t-10 41t-2.5 48.5v165q0 40 -20.5 63t-63.5 23h-41v61h57q65 0 101.5 -36.5t36.5 -102.5v-155q0 -24 2 -47t9.5 -41t23 -30t42.5 -15v-58q-27 -3 -42.5 -15.5
t-23 -31t-9.5 -42t-2 -47.5v-152q0 -66 -36.5 -102.5t-101.5 -36.5h-57z" />
    <glyph glyph-name="asciitilde" unicode="~" horiz-adv-x="585" 
d="M409 200q-32 0 -60.5 8t-56 17t-56.5 17t-60 8q-67 0 -106 -44v70q13 17 42 27.5t64 10.5q32 0 60.5 -8t56.5 -17t56 -17t60 -8q68 0 106 43v-69q-13 -18 -42.5 -28t-63.5 -10z" />
    <glyph glyph-name="nonbreakingspace" unicode="&#xa0;" horiz-adv-x="264" 
 />
    <glyph glyph-name="exclamdown" unicode="&#xa1;" horiz-adv-x="284" 
d="M188 -200h-93l13 469h67zM90 437q0 22 15 37t37 15t37 -15t15 -37t-15 -37t-37 -15t-37 15t-15 37z" />
    <glyph glyph-name="cent" unicode="&#xa2;" horiz-adv-x="524" 
d="M275 600h63v-106q66 -6 116 -34v-67q-66 37 -136 37q-41 0 -76.5 -14t-61.5 -39t-41 -60t-15 -76t15 -75.5t41 -59.5t61.5 -39t76.5 -14q43 0 78.5 11t66.5 31v-66q-28 -17 -59 -27t-66 -13v-106h-63v107q-49 5 -90 26.5t-71 54.5t-47 77t-17 94t16.5 93.5t46.5 76.5
t71.5 54t90.5 27v107z" />
    <glyph glyph-name="sterling" unicode="&#xa3;" horiz-adv-x="580" 
d="M60 67h20q17 0 27 7t15.5 19t7.5 27.5t2 32.5v142h-72v67h72v124q0 109 60.5 167.5t168.5 58.5q46 0 87 -10t76 -33v-73q-31 22 -70.5 34.5t-82.5 12.5q-80 0 -122.5 -42.5t-42.5 -124.5v-114h274v-67h-274v-173q0 -22 -8 -36t-16 -19h348v-67h-470v67z" />
    <glyph glyph-name="currency" unicode="&#xa4;" horiz-adv-x="563" 
d="M485 351q0 -70 -40 -124l65 -65l-41 -39l-66 64q-24 -20 -55.5 -31t-67.5 -11q-35 0 -66 11t-57 31l-65 -64l-40 39l64 65q-40 54 -40 124q0 34 10 65.5t30 57.5l-64 65l40 40l65 -64q26 20 57 31t66 11q36 0 67.5 -11t55.5 -31l66 64l41 -40l-66 -65q20 -26 30.5 -57.5
t10.5 -65.5zM280 206q30 0 56.5 11.5t46 31t30.5 46t11 56.5t-11 56.5t-30.5 46t-46 31t-56.5 11.5t-56 -11.5t-45.5 -31t-30.5 -46t-11 -56.5t11 -56.5t30.5 -46t45.5 -31t56 -11.5z" />
    <glyph glyph-name="yen" unicode="&#xa5;" horiz-adv-x="629" 
d="M277 141h-209v63h209v93h-209v63h184l-229 340h86l207 -312l207 312h83l-229 -340h184v-63h-210v-93h210v-63h-210v-141h-74v141z" />
    <glyph glyph-name="brokenbar" unicode="&#xa6;" horiz-adv-x="306" 
d="M122 242h62v-353h-62v353zM122 760h62v-353h-62v353z" />
    <glyph glyph-name="section" unicode="&#xa7;" horiz-adv-x="645" 
d="M469 114q38 -21 59 -48.5t21 -69.5q0 -33 -15 -61t-44 -48.5t-71.5 -32t-97.5 -11.5q-69 0 -124 17t-93 37v77q44 -24 101 -43t120 -19q71 0 110 24.5t39 63.5q0 24 -15 40t-41.5 28.5t-61.5 23t-74 23.5q-47 15 -87 32t-69.5 38.5t-46 49.5t-16.5 65q0 52 31.5 87.5
t82.5 53.5q-38 21 -59 48.5t-21 69.5q0 33 15 61t44 48.5t71.5 32t97.5 11.5q69 0 124 -17t93 -37v-77q-44 24 -101 43t-120 19q-71 0 -110.5 -24.5t-39.5 -63.5q0 -24 15.5 -40t41.5 -28.5t61.5 -23t74.5 -23.5q46 -15 86.5 -32t69.5 -38.5t46 -49.5t17 -65
q0 -52 -31.5 -87.5t-82.5 -53.5zM405 145q47 10 78 36.5t31 66.5q0 28 -16.5 48t-43.5 36t-61 28t-69 23l-83 27q-47 -10 -78 -36.5t-31 -66.5q0 -28 16.5 -48t43.5 -36t61 -28t69 -23z" />
    <glyph glyph-name="dieresis" unicode="&#xa8;" horiz-adv-x="524" 
d="M118 646q0 20 13.5 33.5t33.5 13.5t33.5 -13.5t13.5 -33.5t-13.5 -33.5t-33.5 -13.5t-33.5 13.5t-13.5 33.5zM318 646q0 20 13.5 33.5t33.5 13.5t33.5 -13.5t13.5 -33.5t-13.5 -33.5t-33.5 -13.5t-33.5 13.5t-13.5 33.5z" />
    <glyph glyph-name="copyright" unicode="&#xa9;" horiz-adv-x="865" 
d="M431 15q70 0 131 26.5t106 72t71 106.5t26 130t-25.5 130t-70.5 106.5t-106 72t-131 26.5t-130.5 -26.5t-105.5 -72t-71 -107t-26 -130.5t25.5 -130t70.5 -106t105.5 -71.5t130.5 -26.5zM431 -12q-75 0 -141 28.5t-115 77.5t-77 115.5t-28 141.5q0 74 28.5 140t77.5 115
t115 77.5t141 28.5q76 0 142 -28.5t115 -77.5t77 -115.5t28 -141.5q0 -74 -28.5 -140t-77.5 -115t-115 -77.5t-142 -28.5zM455 155q-42 0 -78 15t-62.5 41.5t-41.5 62t-15 76.5t15 76.5t41.5 61.5t62.5 41t78 15q58 0 101 -25v-57q-21 14 -46 21.5t-55 7.5q-29 0 -54 -10.5
t-43.5 -29.5t-29 -44.5t-10.5 -56.5t10.5 -57t29.5 -44.5t44 -29t55 -10.5q62 0 109 36v-58q-46 -32 -111 -32z" />
    <glyph glyph-name="ordfeminine" unicode="&#xaa;" horiz-adv-x="516" 
d="M347 480q-20 13 -51 24.5t-69 11.5q-51 0 -79.5 -19.5t-28.5 -53.5q0 -20 8.5 -34t22 -23t31.5 -13.5t38 -4.5q42 0 76 19t52 42v51zM438 371q13 0 21 4v-44q-7 -5 -17.5 -6.5t-19.5 -1.5q-25 0 -45 14t-25 45q-23 -26 -59 -45.5t-89 -19.5q-28 0 -53.5 8t-45 23.5
t-31 38.5t-11.5 53q0 29 12 52t32.5 38.5t48 23.5t59.5 8q46 0 78.5 -11.5t53.5 -23.5v36q0 51 -34 71t-88 20q-36 0 -68.5 -12t-52.5 -25v54q19 11 52 22.5t81 11.5q35 0 65.5 -8t53 -25t35 -42.5t12.5 -60.5v-153q0 -21 9 -33t26 -12z" />
    <glyph glyph-name="guillemotleft" unicode="&#xab;" horiz-adv-x="550" 
d="M47 223v37l151 183h75l-164 -202l164 -201h-75zM276 223v37l151 183h77l-164 -202l164 -201h-77z" />
    <glyph glyph-name="logicalnot" unicode="&#xac;" horiz-adv-x="568" 
d="M432 323h-362v66h428v-237h-66v171z" />
    <glyph glyph-name="uni00AD" unicode="&#xad;" horiz-adv-x="481" 
d="M100 305h281v-67h-281v67z" />
    <glyph glyph-name="registered" unicode="&#xae;" horiz-adv-x="865" 
d="M294 543h171q60 0 92 -29.5t32 -76.5q0 -38 -21.5 -65.5t-61.5 -36.5l119 -167h-65l-115 162h-94v-162h-57v375zM463 377q32 0 50 15t18 43q0 29 -18 44t-50 15h-112v-117h112zM431 15q70 0 131 26.5t106 72t71 106.5t26 130t-25.5 130t-70.5 106.5t-106 72t-131 26.5
t-130.5 -26.5t-105.5 -72t-71 -107t-26 -130.5t25.5 -130t70.5 -106t105.5 -71.5t130.5 -26.5zM431 -12q-75 0 -141 28.5t-115 77.5t-77 115.5t-28 141.5q0 74 28.5 140t77.5 115t115 77.5t141 28.5q76 0 142 -28.5t115 -77.5t77 -115.5t28 -141.5q0 -74 -28.5 -140
t-77.5 -115t-115 -77.5t-142 -28.5z" />
    <glyph glyph-name="macron" unicode="&#xaf;" horiz-adv-x="518" 
d="M132 673h252v-55h-252v55z" />
    <glyph glyph-name="degree" unicode="&#xb0;" horiz-adv-x="428" 
d="M214 661q-21 0 -39 -8t-31.5 -21.5t-21 -32t-7.5 -39.5q0 -42 28.5 -71t70.5 -29t70.5 29t28.5 71q0 21 -7.5 39.5t-21 32t-31.5 21.5t-39 8zM214 712q31 0 59 -12t49 -33t33 -48.5t12 -58.5t-12 -58.5t-33 -48t-49 -32.5t-59 -12t-59 12t-49 32.5t-33 48t-12 58.5
t12 58.5t33 48.5t49 33t59 12z" />
    <glyph glyph-name="plusminus" unicode="&#xb1;" horiz-adv-x="619" 
d="M277 363h-207v66h207v172h65v-172h207v-66h-207v-169h-65v169zM70 119h479v-65h-479v65z" />
    <glyph glyph-name="twosuperior" unicode="&#xb2;" horiz-adv-x="359" 
d="M44 368l121 110q36 33 53.5 57.5t17.5 51.5t-20 43.5t-53 16.5q-32 0 -59 -12t-50 -31v63q20 16 49.5 27t64.5 11q26 0 50 -8t42 -22t29 -35t11 -46q0 -40 -20.5 -73t-63.5 -71l-78 -75h174v-53h-268v46z" />
    <glyph glyph-name="threesuperior" unicode="&#xb3;" horiz-adv-x="327" 
d="M142 317q-38 0 -66.5 7.5t-49.5 21.5v58q22 -13 49.5 -22.5t61.5 -9.5q36 0 64 19.5t28 54.5q0 31 -22.5 50t-64.5 19q-13 0 -26.5 -2t-23.5 -6v41l105 99h-157v53h238v-47l-101 -96q19 -2 40 -8.5t37.5 -20t27.5 -34.5t11 -50t-12 -52.5t-32.5 -40t-48 -25.5t-58.5 -9z
" />
    <glyph glyph-name="acute" unicode="&#xb4;" horiz-adv-x="496" 
d="M275 710h92l-118 -134h-70z" />
    <glyph glyph-name="mu" unicode="&#xb5;" horiz-adv-x="619" 
d="M534 483v-483h-72v74q-14 -16 -33 -31.5t-43.5 -27.5t-53.5 -19.5t-63 -7.5q-35 0 -62.5 8t-49.5 22v-218h-72v683h72v-278q0 -48 13 -77t33.5 -45t44.5 -21.5t46 -5.5q25 0 50.5 8.5t48 23t40.5 32.5t29 37v326h72z" />
    <glyph glyph-name="paragraph" unicode="&#xb6;" horiz-adv-x="525" 
d="M353 316h-84q-53 0 -94 14t-69.5 39.5t-43 61t-14.5 77.5q0 43 14.5 78t43 60.5t69.5 39.5t94 14h158v-700h-74v316z" />
    <glyph glyph-name="periodcentered" unicode="&#xb7;" horiz-adv-x="236" 
d="M66 381q0 22 15 37t37 15t37 -15t15 -37t-15 -37t-37 -15t-37 15t-15 37z" />
    <glyph glyph-name="cedilla" unicode="&#xb8;" horiz-adv-x="482" 
d="M235 6h61l-71 -138h-87z" />
    <glyph glyph-name="onesuperior" unicode="&#xb9;" horiz-adv-x="244" 
d="M127 634l-104 -58v63l106 61h61v-378h-63v312z" />
    <glyph glyph-name="ordmasculine" unicode="&#xba;" horiz-adv-x="466" 
d="M233 371q30 0 55 11t43.5 29.5t29 44t10.5 55.5t-10.5 55.5t-29 44t-43.5 29.5t-55 11t-55 -11t-43 -29.5t-28.5 -44t-10.5 -55.5t10.5 -55.5t28.5 -44t43 -29.5t55 -11zM233 317q-45 0 -81.5 15.5t-63 41.5t-41 61.5t-14.5 75.5t14.5 75t41 61.5t63 42t81.5 15.5
t82 -15.5t63 -42t40.5 -61.5t14.5 -75t-14.5 -75.5t-40.5 -61.5t-63 -41.5t-82 -15.5z" />
    <glyph glyph-name="guillemotright" unicode="&#xbb;" horiz-adv-x="549" 
d="M502 260v-37l-151 -183h-75l164 202l-164 201h75zM273 260v-37l-151 -183h-77l164 202l-164 201h77z" />
    <glyph glyph-name="onequarter" unicode="&#xbc;" horiz-adv-x="745" 
d="M525 700h68l-412 -700h-69zM127 634l-104 -58v63l106 61h61v-378h-63v312zM603 99h-197v45l196 235h62v-229h59v-51h-59v-98h-61v98zM603 150v154l-130 -154h130z" />
    <glyph glyph-name="onehalf" unicode="&#xbd;" horiz-adv-x="802" 
d="M525 700h68l-412 -700h-69zM127 634l-104 -58v63l106 61h61v-378h-63v312zM487 47l121 110q36 33 53.5 57.5t17.5 51.5t-20 43.5t-53 16.5q-32 0 -59 -12t-50 -31v63q20 16 49.5 27t64.5 11q26 0 50 -8t42 -22t29 -35t11 -46q0 -40 -20.5 -73t-63.5 -71l-78 -75h174v-53
h-268v46z" />
    <glyph glyph-name="threequarters" unicode="&#xbe;" horiz-adv-x="794" 
d="M575 700h68l-412 -700h-69zM652 99h-197v45l196 235h62v-229h59v-51h-59v-98h-61v98zM652 150v154l-130 -154h130zM142 317q-38 0 -66.5 7.5t-49.5 21.5v58q22 -13 49.5 -22.5t61.5 -9.5q36 0 64 19.5t28 54.5q0 31 -22.5 50t-64.5 19q-13 0 -26.5 -2t-23.5 -6v41l105 99
h-157v53h238v-47l-101 -96q19 -2 40 -8.5t37.5 -20t27.5 -34.5t11 -50t-12 -52.5t-32.5 -40t-48 -25.5t-58.5 -9z" />
    <glyph glyph-name="questiondown" unicode="&#xbf;" horiz-adv-x="476" 
d="M301 137q-32 -6 -64 -19t-57.5 -32t-42 -44.5t-16.5 -56.5q0 -29 11.5 -52t32 -38.5t48 -24t60.5 -8.5q53 0 96 17.5t76 40.5v-68q-33 -25 -81 -40.5t-102 -15.5q-43 0 -82 13t-68.5 37t-47 58.5t-17.5 78.5q0 39 16 70t41.5 54.5t58.5 40.5t68 28v93h70v-132zM264 489
q23 0 37.5 -15t14.5 -37t-14.5 -37t-37.5 -15q-21 0 -36 15t-15 37t15 37t36 15z" />
    <glyph glyph-name="Agrave" unicode="&#xc0;" horiz-adv-x="753" 
d="M342 704h69l313 -704h-78l-87 193h-367l-85 -193h-77zM535 258l-159 353l-159 -353h318zM224 896h92l96 -133h-70z" />
    <glyph glyph-name="Aacute" unicode="&#xc1;" horiz-adv-x="753" 
d="M342 704h69l313 -704h-78l-87 193h-367l-85 -193h-77zM535 258l-159 353l-159 -353h318zM440 896h92l-118 -133h-69z" />
    <glyph glyph-name="Acircumflex" unicode="&#xc2;" horiz-adv-x="753" 
d="M342 704h69l313 -704h-78l-87 193h-367l-85 -193h-77zM535 258l-159 353l-159 -353h318zM340 896h72l111 -133h-71l-76 92l-76 -92h-71z" />
    <glyph glyph-name="Atilde" unicode="&#xc3;" horiz-adv-x="753" 
d="M342 704h69l313 -704h-78l-87 193h-367l-85 -193h-77zM535 258l-159 353l-159 -353h318zM447 772q-20 0 -38.5 9t-36 19.5t-33 19.5t-30.5 9q-21 0 -30 -16.5t-11 -36.5h-49q1 23 7.5 43t17.5 35t27 23.5t35 8.5q20 0 38.5 -9t36 -19.5t33.5 -19t30 -8.5q22 0 29.5 16
t11.5 36h49q-1 -47 -24 -78.5t-63 -31.5z" />
    <glyph glyph-name="Adieresis" unicode="&#xc4;" horiz-adv-x="753" 
d="M342 704h69l313 -704h-78l-87 193h-367l-85 -193h-77zM535 258l-159 353l-159 -353h318zM230 828q0 20 13.5 33.5t33.5 13.5t33.5 -13.5t13.5 -33.5t-13.5 -33.5t-33.5 -13.5t-33.5 13.5t-13.5 33.5zM430 828q0 20 13.5 33.5t33.5 13.5t33.5 -13.5t13.5 -33.5
t-13.5 -33.5t-33.5 -13.5t-33.5 13.5t-13.5 33.5z" />
    <glyph glyph-name="Aring" unicode="&#xc5;" horiz-adv-x="753" 
d="M342 704h69l313 -704h-78l-87 193h-367l-85 -193h-77zM535 258l-159 353l-159 -353h318zM377 926q19 0 36.5 -7.5t30.5 -20.5t20.5 -30.5t7.5 -37.5t-7.5 -37.5t-20.5 -30.5t-30.5 -20.5t-36.5 -7.5q-41 0 -69 28t-28 68t28 68t69 28zM377 774q23 0 39 16.5t16 39.5
q0 24 -16 40t-39 16q-24 0 -40.5 -16t-16.5 -40q0 -23 16.5 -39.5t40.5 -16.5z" />
    <glyph glyph-name="AE" unicode="&#xc6;" horiz-adv-x="1029" 
d="M493 193h-285l-118 -193h-82l429 700h532v-67h-402v-224h329v-67h-329v-275h416v-67h-490v193zM247 258h246v375h-15z" />
    <glyph glyph-name="Ccedilla" unicode="&#xc7;" horiz-adv-x="690" 
d="M399 -11q-71 5 -131 34t-104 76t-69 111t-25 140q0 79 27.5 145.5t75.5 114.5t113.5 75t142.5 27q56 0 104.5 -12.5t91.5 -39.5v-76q-43 28 -90 43.5t-105 15.5q-60 0 -112 -22t-90 -61t-60 -93t-22 -117q0 -64 22 -117.5t60.5 -92.5t91 -61t112.5 -22q121 0 208 70v-77
q-36 -26 -81 -41t-96 -19l-62 -122h-87z" />
    <glyph glyph-name="Egrave" unicode="&#xc8;" horiz-adv-x="640" 
d="M99 700h480v-67h-406v-224h333v-67h-333v-275h421v-67h-495v700zM198 896h92l96 -133h-70z" />
    <glyph glyph-name="Eacute" unicode="&#xc9;" horiz-adv-x="640" 
d="M99 700h480v-67h-406v-224h333v-67h-333v-275h421v-67h-495v700zM374 896h92l-118 -133h-69z" />
    <glyph glyph-name="Ecircumflex" unicode="&#xca;" horiz-adv-x="640" 
d="M99 700h480v-67h-406v-224h333v-67h-333v-275h421v-67h-495v700zM309 896h72l111 -133h-71l-76 92l-76 -92h-71z" />
    <glyph glyph-name="Edieresis" unicode="&#xcb;" horiz-adv-x="640" 
d="M99 700h480v-67h-406v-224h333v-67h-333v-275h421v-67h-495v700zM194 828q0 20 13.5 33.5t33.5 13.5t33.5 -13.5t13.5 -33.5t-13.5 -33.5t-33.5 -13.5t-33.5 13.5t-13.5 33.5zM394 828q0 20 13.5 33.5t33.5 13.5t33.5 -13.5t13.5 -33.5t-13.5 -33.5t-33.5 -13.5
t-33.5 13.5t-13.5 33.5z" />
    <glyph glyph-name="Igrave" unicode="&#xcc;" horiz-adv-x="281" 
d="M104 700h74v-700h-74v700zM-12 896h92l96 -133h-70z" />
    <glyph glyph-name="Iacute" unicode="&#xcd;" horiz-adv-x="281" 
d="M104 700h74v-700h-74v700zM202 896h92l-118 -133h-69z" />
    <glyph glyph-name="Icircumflex" unicode="&#xce;" horiz-adv-x="281" 
d="M104 700h74v-700h-74v700zM106 896h72l111 -133h-71l-76 92l-76 -92h-71z" />
    <glyph glyph-name="Idieresis" unicode="&#xcf;" horiz-adv-x="280" 
d="M103 700h74v-700h-74v700zM-6 828q0 20 13.5 33.5t33.5 13.5t33.5 -13.5t13.5 -33.5t-13.5 -33.5t-33.5 -13.5t-33.5 13.5t-13.5 33.5zM194 828q0 20 13.5 33.5t33.5 13.5t33.5 -13.5t13.5 -33.5t-13.5 -33.5t-33.5 -13.5t-33.5 13.5t-13.5 33.5z" />
    <glyph glyph-name="Eth" unicode="&#xd0;" horiz-adv-x="828" 
d="M149 324h-111v67h111v309h229q84 0 154 -25.5t120 -71.5t77.5 -110.5t27.5 -142.5t-27.5 -142.5t-77.5 -110.5t-120 -71.5t-154 -25.5h-229v324zM369 67q73 0 131 20t98.5 57t62 89.5t21.5 116.5t-21.5 116.5t-62 89.5t-98.5 57t-131 20h-146v-242h162v-67h-162v-257h146
z" />
    <glyph glyph-name="Ntilde" unicode="&#xd1;" horiz-adv-x="775" 
d="M99 700h64l442 -572v572h72v-700h-63l-443 574v-574h-72v700zM458 772q-20 0 -38.5 9t-36 19.5t-33 19.5t-30.5 9q-21 0 -30 -16.5t-11 -36.5h-49q1 23 7.5 43t17.5 35t27 23.5t35 8.5q20 0 38.5 -9t36 -19.5t33.5 -19t30 -8.5q22 0 29.5 16t11.5 36h49q-1 -47 -24 -78.5
t-63 -31.5z" />
    <glyph glyph-name="Ograve" unicode="&#xd2;" horiz-adv-x="845" 
d="M422 712q75 0 139.5 -27.5t112 -76t74 -115t26.5 -143.5t-26.5 -143.5t-74 -115t-112 -76t-139.5 -27.5t-139.5 27.5t-112 76t-74 115t-26.5 143.5t26.5 143.5t74 115t112 76t139.5 27.5zM422 57q58 0 108.5 22t88 61.5t59 93t21.5 116.5t-21.5 116.5t-59 93t-88 61.5
t-108.5 22t-108.5 -22t-88 -61.5t-59 -93t-21.5 -116.5t21.5 -116.5t59 -93t88 -61.5t108.5 -22zM269 896h92l96 -133h-70z" />
    <glyph glyph-name="Oacute" unicode="&#xd3;" horiz-adv-x="845" 
d="M422 712q75 0 139.5 -27.5t112 -76t74 -115t26.5 -143.5t-26.5 -143.5t-74 -115t-112 -76t-139.5 -27.5t-139.5 27.5t-112 76t-74 115t-26.5 143.5t26.5 143.5t74 115t112 76t139.5 27.5zM422 57q58 0 108.5 22t88 61.5t59 93t21.5 116.5t-21.5 116.5t-59 93t-88 61.5
t-108.5 22t-108.5 -22t-88 -61.5t-59 -93t-21.5 -116.5t21.5 -116.5t59 -93t88 -61.5t108.5 -22zM466 896h92l-118 -133h-69z" />
    <glyph glyph-name="Ocircumflex" unicode="&#xd4;" horiz-adv-x="845" 
d="M422 712q75 0 139.5 -27.5t112 -76t74 -115t26.5 -143.5t-26.5 -143.5t-74 -115t-112 -76t-139.5 -27.5t-139.5 27.5t-112 76t-74 115t-26.5 143.5t26.5 143.5t74 115t112 76t139.5 27.5zM422 57q58 0 108.5 22t88 61.5t59 93t21.5 116.5t-21.5 116.5t-59 93t-88 61.5
t-108.5 22t-108.5 -22t-88 -61.5t-59 -93t-21.5 -116.5t21.5 -116.5t59 -93t88 -61.5t108.5 -22zM386 896h72l111 -133h-71l-76 92l-76 -92h-71z" />
    <glyph glyph-name="Otilde" unicode="&#xd5;" horiz-adv-x="845" 
d="M422 712q75 0 139.5 -27.5t112 -76t74 -115t26.5 -143.5t-26.5 -143.5t-74 -115t-112 -76t-139.5 -27.5t-139.5 27.5t-112 76t-74 115t-26.5 143.5t26.5 143.5t74 115t112 76t139.5 27.5zM422 57q58 0 108.5 22t88 61.5t59 93t21.5 116.5t-21.5 116.5t-59 93t-88 61.5
t-108.5 22t-108.5 -22t-88 -61.5t-59 -93t-21.5 -116.5t21.5 -116.5t59 -93t88 -61.5t108.5 -22zM493 772q-20 0 -38.5 9t-36 19.5t-33 19.5t-30.5 9q-21 0 -30 -16.5t-11 -36.5h-49q1 23 7.5 43t17.5 35t27 23.5t35 8.5q20 0 38.5 -9t36 -19.5t33.5 -19t30 -8.5
q22 0 29.5 16t11.5 36h49q-1 -47 -24 -78.5t-63 -31.5z" />
    <glyph glyph-name="Odieresis" unicode="&#xd6;" horiz-adv-x="845" 
d="M422 712q75 0 139.5 -27.5t112 -76t74 -115t26.5 -143.5t-26.5 -143.5t-74 -115t-112 -76t-139.5 -27.5t-139.5 27.5t-112 76t-74 115t-26.5 143.5t26.5 143.5t74 115t112 76t139.5 27.5zM422 57q58 0 108.5 22t88 61.5t59 93t21.5 116.5t-21.5 116.5t-59 93t-88 61.5
t-108.5 22t-108.5 -22t-88 -61.5t-59 -93t-21.5 -116.5t21.5 -116.5t59 -93t88 -61.5t108.5 -22zM276 828q0 20 13.5 33.5t33.5 13.5t33.5 -13.5t13.5 -33.5t-13.5 -33.5t-33.5 -13.5t-33.5 13.5t-13.5 33.5zM476 828q0 20 13.5 33.5t33.5 13.5t33.5 -13.5t13.5 -33.5
t-13.5 -33.5t-33.5 -13.5t-33.5 13.5t-13.5 33.5z" />
    <glyph glyph-name="multiply" unicode="&#xd7;" horiz-adv-x="544" 
d="M70 168l157 157l-157 156l46 46l156 -156l157 156l45 -46l-156 -156l156 -156l-45 -47l-156 156l-157 -156z" />
    <glyph glyph-name="Oslash" unicode="&#xd8;" horiz-adv-x="845" 
d="M422 712q60 0 112.5 -17.5t95.5 -49.5l46 55h73l-76 -92q48 -49 74.5 -114.5t26.5 -143.5q0 -77 -26.5 -143.5t-74 -115t-112 -76t-139.5 -27.5q-60 0 -112.5 17t-96.5 49l-45 -54h-73l76 91q-48 49 -74.5 115t-26.5 144q0 77 26.5 143.5t74 115t112 76t139.5 27.5z
M145 350q0 -60 19 -111.5t54 -90.5l366 441q-34 26 -75 40t-87 14q-58 0 -108.5 -22t-88 -61.5t-59 -93t-21.5 -116.5zM422 57q58 0 108.5 22t88 61.5t59 93t21.5 116.5q0 60 -19.5 111.5t-53.5 89.5l-366 -441q34 -25 75 -39t87 -14z" />
    <glyph glyph-name="Ugrave" unicode="&#xd9;" horiz-adv-x="748" 
d="M374 -12q-62 0 -114.5 20t-90.5 59t-59.5 97t-21.5 134v402h74v-403q0 -116 58 -178t154 -62t154 62t58 178v403h74v-402q0 -76 -21.5 -134t-60 -97t-91 -59t-113.5 -20zM231 896h92l96 -133h-70z" />
    <glyph glyph-name="Uacute" unicode="&#xda;" horiz-adv-x="748" 
d="M374 -12q-62 0 -114.5 20t-90.5 59t-59.5 97t-21.5 134v402h74v-403q0 -116 58 -178t154 -62t154 62t58 178v403h74v-402q0 -76 -21.5 -134t-60 -97t-91 -59t-113.5 -20zM429 896h92l-118 -133h-69z" />
    <glyph glyph-name="Ucircumflex" unicode="&#xdb;" horiz-adv-x="748" 
d="M374 -12q-62 0 -114.5 20t-90.5 59t-59.5 97t-21.5 134v402h74v-403q0 -116 58 -178t154 -62t154 62t58 178v403h74v-402q0 -76 -21.5 -134t-60 -97t-91 -59t-113.5 -20zM337 896h72l111 -133h-71l-76 92l-76 -92h-71z" />
    <glyph glyph-name="Udieresis" unicode="&#xdc;" horiz-adv-x="748" 
d="M374 -12q-62 0 -114.5 20t-90.5 59t-59.5 97t-21.5 134v402h74v-403q0 -116 58 -178t154 -62t154 62t58 178v403h74v-402q0 -76 -21.5 -134t-60 -97t-91 -59t-113.5 -20zM228 828q0 20 13.5 33.5t33.5 13.5t33.5 -13.5t13.5 -33.5t-13.5 -33.5t-33.5 -13.5t-33.5 13.5
t-13.5 33.5zM428 828q0 20 13.5 33.5t33.5 13.5t33.5 -13.5t13.5 -33.5t-13.5 -33.5t-33.5 -13.5t-33.5 13.5t-13.5 33.5z" />
    <glyph glyph-name="Yacute" unicode="&#xdd;" horiz-adv-x="664" 
d="M295 321l-272 379h86l224 -310l224 310h84l-272 -378v-322h-74v321zM384 896h92l-118 -133h-69z" />
    <glyph glyph-name="Thorn" unicode="&#xde;" horiz-adv-x="665" 
d="M99 700h73v-156h221q54 0 95.5 -14.5t70 -40t43.5 -61t15 -78.5q0 -44 -15 -80t-43.5 -62t-70 -40.5t-95.5 -14.5h-220v-153h-74v700zM388 220q74 0 115 33t41 95q0 63 -41 96t-115 33h-215v-257h215z" />
    <glyph glyph-name="germandbls" unicode="&#xdf;" horiz-adv-x="617" 
d="M350 -12q-25 0 -49.5 3t-43.5 11v68q36 -17 81 -17q34 0 63 9.5t50 28t33 45t12 60.5q0 36 -13.5 65.5t-38 51.5t-60 34t-79.5 12h-21v54h21q62 0 97 29t35 84q0 52 -36.5 84.5t-97.5 32.5q-64 0 -105 -40t-41 -112v-491h-72v491q0 50 16 90t44.5 68.5t68.5 43.5t88 15
t86 -13.5t65 -37t41.5 -55.5t14.5 -69q0 -60 -28 -94.5t-70 -48.5q30 -7 58 -23t50 -41t35.5 -59t13.5 -78q0 -48 -16.5 -85t-46 -63t-69.5 -39.5t-86 -13.5z" />
    <glyph glyph-name="agrave" unicode="&#xe0;" horiz-adv-x="594" 
d="M248 53q28 0 53 7t47 18.5t39 26t29 29.5v67q-26 17 -66.5 32.5t-90.5 15.5q-66 0 -104.5 -26t-38.5 -71q0 -26 11 -45t29.5 -31t42 -17.5t49.5 -5.5zM228 -12q-36 0 -69.5 10.5t-59 30.5t-40.5 50t-15 69q0 38 15.5 68t42.5 50.5t63 31t77 10.5q61 0 103.5 -15t70.5 -32
v48q0 34 -12 57t-33 37t-50.5 20.5t-63.5 6.5q-48 0 -90.5 -16t-67.5 -33v70q24 15 67.5 29.5t105.5 14.5q46 0 85.5 -10.5t68.5 -32.5t45.5 -56t16.5 -80v-199q0 -29 12.5 -44.5t33.5 -15.5q16 0 28 6v-56q-8 -6 -22 -8.5t-26 -2.5q-32 0 -58.5 17.5t-32.5 59.5
q-29 -34 -77.5 -59.5t-117.5 -25.5zM160 710h91l96 -134h-69z" />
    <glyph glyph-name="aacute" unicode="&#xe1;" horiz-adv-x="594" 
d="M248 53q28 0 53 7t47 18.5t39 26t29 29.5v67q-26 17 -66.5 32.5t-90.5 15.5q-66 0 -104.5 -26t-38.5 -71q0 -26 11 -45t29.5 -31t42 -17.5t49.5 -5.5zM228 -12q-36 0 -69.5 10.5t-59 30.5t-40.5 50t-15 69q0 38 15.5 68t42.5 50.5t63 31t77 10.5q61 0 103.5 -15t70.5 -32
v48q0 34 -12 57t-33 37t-50.5 20.5t-63.5 6.5q-48 0 -90.5 -16t-67.5 -33v70q24 15 67.5 29.5t105.5 14.5q46 0 85.5 -10.5t68.5 -32.5t45.5 -56t16.5 -80v-199q0 -29 12.5 -44.5t33.5 -15.5q16 0 28 6v-56q-8 -6 -22 -8.5t-26 -2.5q-32 0 -58.5 17.5t-32.5 59.5
q-29 -34 -77.5 -59.5t-117.5 -25.5zM319 710h92l-118 -134h-70z" />
    <glyph glyph-name="acircumflex" unicode="&#xe2;" horiz-adv-x="594" 
d="M248 53q28 0 53 7t47 18.5t39 26t29 29.5v67q-26 17 -66.5 32.5t-90.5 15.5q-66 0 -104.5 -26t-38.5 -71q0 -26 11 -45t29.5 -31t42 -17.5t49.5 -5.5zM228 -12q-36 0 -69.5 10.5t-59 30.5t-40.5 50t-15 69q0 38 15.5 68t42.5 50.5t63 31t77 10.5q61 0 103.5 -15t70.5 -32
v48q0 34 -12 57t-33 37t-50.5 20.5t-63.5 6.5q-48 0 -90.5 -16t-67.5 -33v70q24 15 67.5 29.5t105.5 14.5q46 0 85.5 -10.5t68.5 -32.5t45.5 -56t16.5 -80v-199q0 -29 12.5 -44.5t33.5 -15.5q16 0 28 6v-56q-8 -6 -22 -8.5t-26 -2.5q-32 0 -58.5 17.5t-32.5 59.5
q-29 -34 -77.5 -59.5t-117.5 -25.5zM239 710h73l110 -134h-71l-77 92l-76 -92h-71z" />
    <glyph glyph-name="atilde" unicode="&#xe3;" horiz-adv-x="594" 
d="M248 53q28 0 53 7t47 18.5t39 26t29 29.5v67q-26 17 -66.5 32.5t-90.5 15.5q-66 0 -104.5 -26t-38.5 -71q0 -26 11 -45t29.5 -31t42 -17.5t49.5 -5.5zM228 -12q-36 0 -69.5 10.5t-59 30.5t-40.5 50t-15 69q0 38 15.5 68t42.5 50.5t63 31t77 10.5q61 0 103.5 -15t70.5 -32
v48q0 34 -12 57t-33 37t-50.5 20.5t-63.5 6.5q-48 0 -90.5 -16t-67.5 -33v70q24 15 67.5 29.5t105.5 14.5q46 0 85.5 -10.5t68.5 -32.5t45.5 -56t16.5 -80v-199q0 -29 12.5 -44.5t33.5 -15.5q16 0 28 6v-56q-8 -6 -22 -8.5t-26 -2.5q-32 0 -58.5 17.5t-32.5 59.5
q-29 -34 -77.5 -59.5t-117.5 -25.5zM350 589q-20 0 -38.5 8.5t-36 19t-33 19.5t-30.5 9q-21 0 -30 -16t-11 -36h-49q2 47 25 78.5t62 31.5q20 0 38.5 -9t36 -19.5t33.5 -19t30 -8.5q22 0 29.5 16t11.5 36h49q-1 -48 -24 -79t-63 -31z" />
    <glyph glyph-name="adieresis" unicode="&#xe4;" horiz-adv-x="594" 
d="M248 53q28 0 53 7t47 18.5t39 26t29 29.5v67q-26 17 -66.5 32.5t-90.5 15.5q-66 0 -104.5 -26t-38.5 -71q0 -26 11 -45t29.5 -31t42 -17.5t49.5 -5.5zM228 -12q-36 0 -69.5 10.5t-59 30.5t-40.5 50t-15 69q0 38 15.5 68t42.5 50.5t63 31t77 10.5q61 0 103.5 -15t70.5 -32
v48q0 34 -12 57t-33 37t-50.5 20.5t-63.5 6.5q-48 0 -90.5 -16t-67.5 -33v70q24 15 67.5 29.5t105.5 14.5q46 0 85.5 -10.5t68.5 -32.5t45.5 -56t16.5 -80v-199q0 -29 12.5 -44.5t33.5 -15.5q16 0 28 6v-56q-8 -6 -22 -8.5t-26 -2.5q-32 0 -58.5 17.5t-32.5 59.5
q-29 -34 -77.5 -59.5t-117.5 -25.5zM131 646q0 20 13.5 33.5t33.5 13.5t33.5 -13.5t13.5 -33.5t-13.5 -33.5t-33.5 -13.5t-33.5 13.5t-13.5 33.5zM331 646q0 20 13.5 33.5t33.5 13.5t33.5 -13.5t13.5 -33.5t-13.5 -33.5t-33.5 -13.5t-33.5 13.5t-13.5 33.5z" />
    <glyph glyph-name="aring" unicode="&#xe5;" horiz-adv-x="594" 
d="M248 53q28 0 53 7t47 18.5t39 26t29 29.5v67q-26 17 -66.5 32.5t-90.5 15.5q-66 0 -104.5 -26t-38.5 -71q0 -26 11 -45t29.5 -31t42 -17.5t49.5 -5.5zM228 -12q-36 0 -69.5 10.5t-59 30.5t-40.5 50t-15 69q0 38 15.5 68t42.5 50.5t63 31t77 10.5q61 0 103.5 -15t70.5 -32
v48q0 34 -12 57t-33 37t-50.5 20.5t-63.5 6.5q-48 0 -90.5 -16t-67.5 -33v70q24 15 67.5 29.5t105.5 14.5q46 0 85.5 -10.5t68.5 -32.5t45.5 -56t16.5 -80v-199q0 -29 12.5 -44.5t33.5 -15.5q16 0 28 6v-56q-8 -6 -22 -8.5t-26 -2.5q-32 0 -58.5 17.5t-32.5 59.5
q-29 -34 -77.5 -59.5t-117.5 -25.5zM281 742q40 0 68 -28t28 -68t-28 -68t-68 -28t-68 28t-28 68t28 68t68 28zM281 590q24 0 40 16.5t16 39.5q0 24 -16 40t-40 16q-23 0 -39.5 -16t-16.5 -40q0 -23 16.5 -39.5t39.5 -16.5z" />
    <glyph glyph-name="ae" unicode="&#xe6;" horiz-adv-x="935" 
d="M885 224h-397q3 -39 19.5 -70.5t43.5 -54t63.5 -34.5t79.5 -12q47 0 86 12.5t69 32.5v-64q-26 -20 -70.5 -33t-98.5 -13q-72 0 -130 29.5t-92 83.5q-15 -18 -37 -38t-50.5 -36.5t-63 -27.5t-75.5 -11q-39 0 -73 10.5t-59.5 30.5t-40.5 50t-15 69q0 38 15.5 68t42.5 50.5
t63 31t77 10.5q60 0 104 -15t71 -32v46q0 33 -12 56.5t-33 38.5t-50.5 21.5t-64.5 6.5q-48 0 -90.5 -15.5t-67.5 -32.5v69q35 21 79.5 32.5t95.5 11.5q65 0 116 -26.5t73 -80.5q31 49 81.5 78t114.5 29q61 0 104 -24t70 -60.5t39.5 -81t12.5 -85.5v-20zM248 53
q61 0 109.5 29t75.5 68q-5 13 -8.5 23.5t-5.5 25.5q-26 17 -68 34t-92 17q-66 0 -104.5 -26.5t-38.5 -71.5q0 -25 10 -43.5t28 -31t42 -18.5t52 -6zM812 283q-1 23 -10 49t-27.5 47.5t-47.5 36t-71 14.5q-39 0 -69 -12.5t-51 -33t-33 -47t-14 -54.5h323z" />
    <glyph glyph-name="ccedilla" unicode="&#xe7;" horiz-adv-x="524" 
d="M50 242q0 54 19.5 100.5t54 80t82 53t102.5 19.5q44 0 79.5 -9t66.5 -26v-67q-66 37 -136 37q-41 0 -76.5 -14t-61.5 -39t-41 -60t-15 -76t15 -75.5t41 -59.5t61.5 -39t76.5 -14q43 0 78.5 11t66.5 31v-66q-52 -31 -112 -38l-63 -123h-87l85 121q-51 4 -94.5 24.5t-75 54
t-49 78t-17.5 96.5z" />
    <glyph glyph-name="egrave" unicode="&#xe8;" horiz-adv-x="571" 
d="M316 -12q-56 0 -104.5 18.5t-84.5 52t-56.5 80t-20.5 102.5q0 54 17.5 100t50 80.5t77.5 54t100 19.5q61 0 104 -24t70 -60.5t39.5 -81t12.5 -85.5v-20h-397q3 -39 19 -70.5t43 -54t63.5 -34.5t80.5 -12q46 0 85 12.5t70 32.5v-64q-26 -20 -71 -33t-98 -13zM448 283
q-1 23 -10 49t-27.5 47.5t-47.5 36t-71 14.5q-39 0 -69 -12.5t-51 -33.5t-33 -47.5t-14 -53.5h323zM180 710h91l96 -134h-69z" />
    <glyph glyph-name="eacute" unicode="&#xe9;" horiz-adv-x="571" 
d="M316 -12q-56 0 -104.5 18.5t-84.5 52t-56.5 80t-20.5 102.5q0 54 17.5 100t50 80.5t77.5 54t100 19.5q61 0 104 -24t70 -60.5t39.5 -81t12.5 -85.5v-20h-397q3 -39 19 -70.5t43 -54t63.5 -34.5t80.5 -12q46 0 85 12.5t70 32.5v-64q-26 -20 -71 -33t-98 -13zM448 283
q-1 23 -10 49t-27.5 47.5t-47.5 36t-71 14.5q-39 0 -69 -12.5t-51 -33.5t-33 -47.5t-14 -53.5h323zM327 710h92l-118 -134h-70z" />
    <glyph glyph-name="ecircumflex" unicode="&#xea;" horiz-adv-x="571" 
d="M316 -12q-56 0 -104.5 18.5t-84.5 52t-56.5 80t-20.5 102.5q0 54 17.5 100t50 80.5t77.5 54t100 19.5q61 0 104 -24t70 -60.5t39.5 -81t12.5 -85.5v-20h-397q3 -39 19 -70.5t43 -54t63.5 -34.5t80.5 -12q46 0 85 12.5t70 32.5v-64q-26 -20 -71 -33t-98 -13zM448 283
q-1 23 -10 49t-27.5 47.5t-47.5 36t-71 14.5q-39 0 -69 -12.5t-51 -33.5t-33 -47.5t-14 -53.5h323zM255 710h73l110 -134h-71l-77 92l-76 -92h-71z" />
    <glyph glyph-name="edieresis" unicode="&#xeb;" horiz-adv-x="571" 
d="M316 -12q-56 0 -104.5 18.5t-84.5 52t-56.5 80t-20.5 102.5q0 54 17.5 100t50 80.5t77.5 54t100 19.5q61 0 104 -24t70 -60.5t39.5 -81t12.5 -85.5v-20h-397q3 -39 19 -70.5t43 -54t63.5 -34.5t80.5 -12q46 0 85 12.5t70 32.5v-64q-26 -20 -71 -33t-98 -13zM448 283
q-1 23 -10 49t-27.5 47.5t-47.5 36t-71 14.5q-39 0 -69 -12.5t-51 -33.5t-33 -47.5t-14 -53.5h323zM144 646q0 20 13.5 33.5t33.5 13.5t33.5 -13.5t13.5 -33.5t-13.5 -33.5t-33.5 -13.5t-33.5 13.5t-13.5 33.5zM344 646q0 20 13.5 33.5t33.5 13.5t33.5 -13.5t13.5 -33.5
t-13.5 -33.5t-33.5 -13.5t-33.5 13.5t-13.5 33.5z" />
    <glyph glyph-name="igrave" unicode="&#xec;" horiz-adv-x="253" 
d="M-31 710h91l96 -134h-69zM90 483h73v-483h-73v483z" />
    <glyph glyph-name="iacute" unicode="&#xed;" horiz-adv-x="253" 
d="M193.379 710.396h91.792l-117.733 -133.697h-69.8418zM90 483h73v-483h-73v483z" />
    <glyph glyph-name="icircumflex" unicode="&#xee;" horiz-adv-x="253" 
d="M90 483h73v-483h-73v483zM92 710h73l110 -134h-71l-77 92l-76 -92h-71z" />
    <glyph glyph-name="idieresis" unicode="&#xef;" horiz-adv-x="258" 
d="M-17 646q0 20 13.5 33.5t33.5 13.5t33.5 -13.5t13.5 -33.5t-13.5 -33.5t-33.5 -13.5t-33.5 13.5t-13.5 33.5zM183 646q0 20 13.5 33.5t33.5 13.5t33.5 -13.5t13.5 -33.5t-13.5 -33.5t-33.5 -13.5t-33.5 13.5t-13.5 33.5zM92 483h73v-483h-73v483z" />
    <glyph glyph-name="eth" unicode="&#xf0;" horiz-adv-x="598" 
d="M459 647l-109 -45q35 -51 63 -91.5t50 -70.5q18 -25 33.5 -49.5t27.5 -49.5t18.5 -52t6.5 -57q0 -49 -18 -93t-50.5 -77.5t-78.5 -53.5t-102 -20t-102 19.5t-79 52.5t-51 76t-18 91t17 90.5t47.5 74t73 50t93.5 18.5q32 0 60 -5.5t53 -18.5l-104 143l-132 -53l-31 43
l132 52l-58 79h79l40 -55l108 45zM300 53q37 0 69.5 13.5t56 37.5t37 56t13.5 69t-13.5 69t-37 55.5t-56 37t-69.5 13.5q-38 0 -70.5 -13.5t-56 -37t-37 -55.5t-13.5 -69t13.5 -69t37 -56t56 -37.5t70.5 -13.5z" />
    <glyph glyph-name="ntilde" unicode="&#xf1;" horiz-adv-x="610" 
d="M85 0v483h72v-74q14 16 33 31.5t43.5 27.5t53.5 19.5t63 7.5q92 0 138 -53.5t46 -147.5v-294h-72v278q0 48 -13.5 77t-33.5 45t-44 21.5t-46 5.5q-26 0 -51 -9t-47.5 -23t-40.5 -32t-29 -37v-326h-72zM380 589q-20 0 -38.5 8.5t-36 19t-33 19.5t-30.5 9q-21 0 -30 -16
t-11 -36h-49q2 47 25 78.5t62 31.5q20 0 38.5 -9t36 -19.5t33.5 -19t30 -8.5q22 0 29.5 16t11.5 36h49q-1 -48 -24 -79t-63 -31z" />
    <glyph glyph-name="ograve" unicode="&#xf2;" horiz-adv-x="621" 
d="M311 495q59 0 107 -20.5t82.5 -55.5t53 -81t18.5 -97t-18.5 -97t-53 -80.5t-82.5 -55t-107 -20.5t-107 20.5t-82.5 55t-53 80.5t-18.5 97t18.5 97t53 81t82.5 55.5t107 20.5zM311 53q40 0 74.5 14.5t59.5 40t39 59.5t14 74t-14 74.5t-39 60t-59.5 40t-74.5 14.5
q-41 0 -75 -14.5t-59 -40t-39 -60t-14 -74.5t14 -74t39 -59.5t59 -40t75 -14.5zM174 710h91l96 -134h-69z" />
    <glyph glyph-name="oacute" unicode="&#xf3;" horiz-adv-x="621" 
d="M311 495q59 0 107 -20.5t82.5 -55.5t53 -81t18.5 -97t-18.5 -97t-53 -80.5t-82.5 -55t-107 -20.5t-107 20.5t-82.5 55t-53 80.5t-18.5 97t18.5 97t53 81t82.5 55.5t107 20.5zM311 53q40 0 74.5 14.5t59.5 40t39 59.5t14 74t-14 74.5t-39 60t-59.5 40t-74.5 14.5
q-41 0 -75 -14.5t-59 -40t-39 -60t-14 -74.5t14 -74t39 -59.5t59 -40t75 -14.5zM363 710h92l-118 -134h-70z" />
    <glyph glyph-name="ocircumflex" unicode="&#xf4;" horiz-adv-x="621" 
d="M311 495q59 0 107 -20.5t82.5 -55.5t53 -81t18.5 -97t-18.5 -97t-53 -80.5t-82.5 -55t-107 -20.5t-107 20.5t-82.5 55t-53 80.5t-18.5 97t18.5 97t53 81t82.5 55.5t107 20.5zM311 53q40 0 74.5 14.5t59.5 40t39 59.5t14 74t-14 74.5t-39 60t-59.5 40t-74.5 14.5
q-41 0 -75 -14.5t-59 -40t-39 -60t-14 -74.5t14 -74t39 -59.5t59 -40t75 -14.5zM276 710h73l110 -134h-71l-77 92l-76 -92h-71z" />
    <glyph glyph-name="otilde" unicode="&#xf5;" horiz-adv-x="621" 
d="M311 495q59 0 107 -20.5t82.5 -55.5t53 -81t18.5 -97t-18.5 -97t-53 -80.5t-82.5 -55t-107 -20.5t-107 20.5t-82.5 55t-53 80.5t-18.5 97t18.5 97t53 81t82.5 55.5t107 20.5zM311 53q40 0 74.5 14.5t59.5 40t39 59.5t14 74t-14 74.5t-39 60t-59.5 40t-74.5 14.5
q-41 0 -75 -14.5t-59 -40t-39 -60t-14 -74.5t14 -74t39 -59.5t59 -40t75 -14.5zM382 589q-20 0 -38.5 8.5t-36 19t-33 19.5t-30.5 9q-21 0 -30 -16t-11 -36h-49q2 47 25 78.5t62 31.5q20 0 38.5 -9t36 -19.5t33.5 -19t30 -8.5q22 0 29.5 16t11.5 36h49q-1 -48 -24 -79
t-63 -31z" />
    <glyph glyph-name="odieresis" unicode="&#xf6;" horiz-adv-x="621" 
d="M311 495q59 0 107 -20.5t82.5 -55.5t53 -81t18.5 -97t-18.5 -97t-53 -80.5t-82.5 -55t-107 -20.5t-107 20.5t-82.5 55t-53 80.5t-18.5 97t18.5 97t53 81t82.5 55.5t107 20.5zM311 53q40 0 74.5 14.5t59.5 40t39 59.5t14 74t-14 74.5t-39 60t-59.5 40t-74.5 14.5
q-41 0 -75 -14.5t-59 -40t-39 -60t-14 -74.5t14 -74t39 -59.5t59 -40t75 -14.5zM165 646q0 20 13.5 33.5t33.5 13.5t33.5 -13.5t13.5 -33.5t-13.5 -33.5t-33.5 -13.5t-33.5 13.5t-13.5 33.5zM365 646q0 20 13.5 33.5t33.5 13.5t33.5 -13.5t13.5 -33.5t-13.5 -33.5
t-33.5 -13.5t-33.5 13.5t-13.5 33.5z" />
    <glyph glyph-name="divide" unicode="&#xf7;" horiz-adv-x="596" 
d="M70 359h456v-67h-456v67zM243 530q0 23 16 39t39 16t39 -16t16 -39t-16 -39t-39 -16t-39 16t-16 39zM243 124q0 23 16 39t39 16t39 -16t16 -39t-16 -39t-39 -16t-39 16t-16 39z" />
    <glyph glyph-name="oslash" unicode="&#xf8;" horiz-adv-x="621" 
d="M124 61q-35 35 -54.5 81.5t-19.5 98.5q0 51 18.5 97t53 81t82.5 55.5t107 20.5q42 0 78 -10.5t66 -29.5l24 28h69l-51 -61q36 -35 55.5 -82t19.5 -99q0 -51 -18.5 -97t-53 -80.5t-82.5 -55t-107 -20.5q-84 0 -146 40l-23 -28h-69zM311 53q40 0 74.5 14.5t59.5 40t39 59.5
t14 74q0 38 -12 70t-35 57l-241 -287q44 -28 101 -28zM124 241q0 -37 12 -69t33 -57l242 287q-44 28 -100 28q-41 0 -75 -14.5t-59 -40t-39 -60t-14 -74.5z" />
    <glyph glyph-name="ugrave" unicode="&#xf9;" horiz-adv-x="611" 
d="M526 483v-483h-72v74q-14 -16 -33 -31.5t-43.5 -27.5t-53.5 -19.5t-63 -7.5q-92 0 -138 53.5t-46 147.5v294h72v-278q0 -48 13 -77t33.5 -45t44.5 -21.5t46 -5.5q25 0 50.5 8.5t48 23t40.5 32.5t29 37v326h72zM178 710h91l96 -134h-69z" />
    <glyph glyph-name="uacute" unicode="&#xfa;" horiz-adv-x="611" 
d="M526 483v-483h-72v74q-14 -16 -33 -31.5t-43.5 -27.5t-53.5 -19.5t-63 -7.5q-92 0 -138 53.5t-46 147.5v294h72v-278q0 -48 13 -77t33.5 -45t44.5 -21.5t46 -5.5q25 0 50.5 8.5t48 23t40.5 32.5t29 37v326h72zM337 710h92l-118 -134h-70z" />
    <glyph glyph-name="ucircumflex" unicode="&#xfb;" horiz-adv-x="611" 
d="M526 483v-483h-72v74q-14 -16 -33 -31.5t-43.5 -27.5t-53.5 -19.5t-63 -7.5q-92 0 -138 53.5t-46 147.5v294h72v-278q0 -48 13 -77t33.5 -45t44.5 -21.5t46 -5.5q25 0 50.5 8.5t48 23t40.5 32.5t29 37v326h72zM266 710h73l110 -134h-71l-77 92l-76 -92h-71z" />
    <glyph glyph-name="udieresis" unicode="&#xfc;" horiz-adv-x="611" 
d="M526 483v-483h-72v74q-14 -16 -33 -31.5t-43.5 -27.5t-53.5 -19.5t-63 -7.5q-92 0 -138 53.5t-46 147.5v294h72v-278q0 -48 13 -77t33.5 -45t44.5 -21.5t46 -5.5q25 0 50.5 8.5t48 23t40.5 32.5t29 37v326h72zM155 646q0 20 13.5 33.5t33.5 13.5t33.5 -13.5t13.5 -33.5
t-13.5 -33.5t-33.5 -13.5t-33.5 13.5t-13.5 33.5zM355 646q0 20 13.5 33.5t33.5 13.5t33.5 -13.5t13.5 -33.5t-13.5 -33.5t-33.5 -13.5t-33.5 13.5t-13.5 33.5z" />
    <glyph glyph-name="yacute" unicode="&#xfd;" horiz-adv-x="555" 
d="M112 -204q-23 0 -43.5 3t-33.5 11v67q15 -8 30.5 -12t35.5 -4q48 0 79.5 40.5t63.5 116.5l-215 465h80l171 -380l166 380h78l-239 -537q-31 -71 -72 -110.5t-101 -39.5zM323 710h92l-118 -134h-70z" />
    <glyph glyph-name="thorn" unicode="&#xfe;" horiz-adv-x="636" 
d="M85 -200v900h72v-294q28 37 75 63t112 26q55 0 99.5 -20.5t76.5 -55t49.5 -80.5t17.5 -97t-17.5 -97.5t-49.5 -81t-76.5 -55t-99.5 -20.5q-65 0 -112 26t-75 63v-277h-72zM157 162q21 -47 67 -78t103 -31q40 0 74.5 14.5t59 40t38.5 60t14 74.5t-14 74t-38.5 59.5t-59 40
t-74.5 14.5q-28 0 -54 -8.5t-48.5 -23t-40 -34.5t-27.5 -43v-159z" />
    <glyph glyph-name="ydieresis" unicode="&#xff;" horiz-adv-x="555" 
d="M112 -204q-23 0 -43.5 3t-33.5 11v67q15 -8 30.5 -12t35.5 -4q48 0 79.5 40.5t63.5 116.5l-215 465h80l171 -380l166 380h78l-239 -537q-31 -71 -72 -110.5t-101 -39.5zM127 646q0 20 13.5 33.5t33.5 13.5t33.5 -13.5t13.5 -33.5t-13.5 -33.5t-33.5 -13.5t-33.5 13.5
t-13.5 33.5zM327 646q0 20 13.5 33.5t33.5 13.5t33.5 -13.5t13.5 -33.5t-13.5 -33.5t-33.5 -13.5t-33.5 13.5t-13.5 33.5z" />
    <glyph glyph-name="Amacron" unicode="&#x100;" horiz-adv-x="753" 
d="M342 704h69l313 -704h-78l-87 193h-367l-85 -193h-77zM535 258l-159 353l-159 -353h318zM252 857h252v-55h-252v55z" />
    <glyph glyph-name="amacron" unicode="&#x101;" horiz-adv-x="594" 
d="M248 53q28 0 53 7t47 18.5t39 26t29 29.5v67q-26 17 -66.5 32.5t-90.5 15.5q-66 0 -104.5 -26t-38.5 -71q0 -26 11 -45t29.5 -31t42 -17.5t49.5 -5.5zM228 -12q-36 0 -69.5 10.5t-59 30.5t-40.5 50t-15 69q0 38 15.5 68t42.5 50.5t63 31t77 10.5q61 0 103.5 -15t70.5 -32
v48q0 34 -12 57t-33 37t-50.5 20.5t-63.5 6.5q-48 0 -90.5 -16t-67.5 -33v70q24 15 67.5 29.5t105.5 14.5q46 0 85.5 -10.5t68.5 -32.5t45.5 -56t16.5 -80v-199q0 -29 12.5 -44.5t33.5 -15.5q16 0 28 6v-56q-8 -6 -22 -8.5t-26 -2.5q-32 0 -58.5 17.5t-32.5 59.5
q-29 -34 -77.5 -59.5t-117.5 -25.5zM158 673h252v-55h-252v55z" />
    <glyph glyph-name="Abreve" unicode="&#x102;" horiz-adv-x="753" 
d="M342 704h69l313 -704h-78l-87 193h-367l-85 -193h-77zM535 258l-159 353l-159 -353h318zM378 756q-28 0 -53 10t-44 28.5t-30 44.5t-12 57h57q1 -37 24 -62t58 -25t57.5 25t23.5 62h57q0 -31 -11.5 -57t-30 -44.5t-43.5 -28.5t-53 -10z" />
    <glyph glyph-name="abreve" unicode="&#x103;" horiz-adv-x="594" 
d="M248 53q28 0 53 7t47 18.5t39 26t29 29.5v67q-26 17 -66.5 32.5t-90.5 15.5q-66 0 -104.5 -26t-38.5 -71q0 -26 11 -45t29.5 -31t42 -17.5t49.5 -5.5zM228 -12q-36 0 -69.5 10.5t-59 30.5t-40.5 50t-15 69q0 38 15.5 68t42.5 50.5t63 31t77 10.5q61 0 103.5 -15t70.5 -32
v48q0 34 -12 57t-33 37t-50.5 20.5t-63.5 6.5q-48 0 -90.5 -16t-67.5 -33v70q24 15 67.5 29.5t105.5 14.5q46 0 85.5 -10.5t68.5 -32.5t45.5 -56t16.5 -80v-199q0 -29 12.5 -44.5t33.5 -15.5q16 0 28 6v-56q-8 -6 -22 -8.5t-26 -2.5q-32 0 -58.5 17.5t-32.5 59.5
q-29 -34 -77.5 -59.5t-117.5 -25.5zM279 570q-29 0 -54 10.5t-43.5 29t-29.5 44t-12 56.5h57q1 -37 24 -61.5t58 -24.5t57.5 24.5t23.5 61.5h57q-1 -31 -12.5 -56.5t-30 -44t-43.5 -29t-52 -10.5z" />
    <glyph glyph-name="Aogonek" unicode="&#x104;" horiz-adv-x="753" 
d="M745 -195q-54 0 -83 28.5t-29 70.5q0 34 14.5 59t25.5 37h-27l-87 193h-367l-85 -193h-77l312 704h69l313 -704q-11 -12 -24 -33.5t-13 -49.5q0 -29 19 -47t50 -18q12 0 21 2t19 5v-48q-8 -2 -20.5 -4t-30.5 -2zM535 258l-159 353l-159 -353h318z" />
    <glyph glyph-name="aogonek" unicode="&#x105;" horiz-adv-x="586" 
d="M583 -188q-54 0 -83 28.5t-29 70.5q0 28 10 50t21 36q-29 2 -51.5 20t-27.5 56q-29 -34 -77.5 -59.5t-117.5 -25.5q-36 0 -69.5 10.5t-59 30.5t-40.5 50t-15 69q0 38 15.5 68t42.5 50.5t63 31t77 10.5q61 0 103.5 -15t70.5 -32v48q0 34 -12 57t-33 37t-50.5 20.5
t-63.5 6.5q-48 0 -90.5 -16t-67.5 -33v70q24 15 67.5 29.5t105.5 14.5q46 0 85.5 -10.5t68.5 -32.5t45.5 -56t16.5 -80v-199q0 -29 12.5 -44.5t33.5 -15.5q16 0 28 6v-56q-11 -12 -24 -33.5t-13 -49.5q0 -29 19 -47t50 -18q12 0 21 2t19 5v-48q-8 -2 -20.5 -4t-30.5 -2z
M248 53q28 0 53 7t47 18.5t39 26t29 29.5v67q-26 17 -66.5 32.5t-90.5 15.5q-66 0 -104.5 -26t-38.5 -71q0 -26 11 -45t29.5 -31t42 -17.5t49.5 -5.5z" />
    <glyph glyph-name="Cacute" unicode="&#x106;" horiz-adv-x="690" 
d="M429 -12q-76 0 -141.5 26.5t-114 74.5t-76 114.5t-27.5 146.5q0 79 27.5 145.5t75.5 114.5t113.5 75t142.5 27q56 0 104.5 -12.5t91.5 -39.5v-76q-43 28 -90 43.5t-105 15.5q-60 0 -112 -22t-90.5 -61t-60.5 -93t-22 -117q0 -64 22 -117.5t61 -92.5t91.5 -61t112.5 -22
q121 0 208 70v-77q-42 -31 -95.5 -46.5t-115.5 -15.5zM452 896h92l-118 -133h-69z" />
    <glyph glyph-name="cacute" unicode="&#x107;" horiz-adv-x="523" 
d="M307 -12q-55 0 -102 19.5t-81.5 53.5t-54 80.5t-19.5 100.5t19.5 100.5t54 80t82 53t102.5 19.5q44 0 79.5 -9t66.5 -26v-67q-66 37 -136 37q-41 0 -76.5 -14t-61.5 -39t-41 -60t-15 -76t15 -75.5t41 -59.5t61.5 -39t76.5 -14q43 0 78.5 11t66.5 31v-66q-68 -41 -156 -41
zM331 710h92l-118 -134h-70z" />
    <glyph glyph-name="Ccircumflex" unicode="&#x108;" horiz-adv-x="690" 
d="M429 -12q-76 0 -141.5 26.5t-114 74.5t-76 114.5t-27.5 146.5q0 79 27.5 145.5t75.5 114.5t113.5 75t142.5 27q56 0 104.5 -12.5t91.5 -39.5v-76q-43 28 -90 43.5t-105 15.5q-60 0 -112 -22t-90.5 -61t-60.5 -93t-22 -117q0 -64 22 -117.5t61 -92.5t91.5 -61t112.5 -22
q121 0 208 70v-77q-42 -31 -95.5 -46.5t-115.5 -15.5zM367 896h72l111 -133h-71l-76 92l-76 -92h-71z" />
    <glyph glyph-name="ccircumflex" unicode="&#x109;" horiz-adv-x="523" 
d="M307 -12q-55 0 -102 19.5t-81.5 53.5t-54 80.5t-19.5 100.5t19.5 100.5t54 80t82 53t102.5 19.5q44 0 79.5 -9t66.5 -26v-67q-66 37 -136 37q-41 0 -76.5 -14t-61.5 -39t-41 -60t-15 -76t15 -75.5t41 -59.5t61.5 -39t76.5 -14q43 0 78.5 11t66.5 31v-66q-68 -41 -156 -41
zM250 710h73l110 -134h-71l-77 92l-76 -92h-71z" />
    <glyph glyph-name="Cdotaccent" unicode="&#x10a;" horiz-adv-x="690" 
d="M429 -12q-76 0 -141.5 26.5t-114 74.5t-76 114.5t-27.5 146.5q0 79 27.5 145.5t75.5 114.5t113.5 75t142.5 27q56 0 104.5 -12.5t91.5 -39.5v-76q-43 28 -90 43.5t-105 15.5q-60 0 -112 -22t-90.5 -61t-60.5 -93t-22 -117q0 -64 22 -117.5t61 -92.5t91.5 -61t112.5 -22
q121 0 208 70v-77q-42 -31 -95.5 -46.5t-115.5 -15.5zM373 827q0 20 13.5 33.5t33.5 13.5t33.5 -13.5t13.5 -33.5t-13.5 -33.5t-33.5 -13.5t-33.5 13.5t-13.5 33.5z" />
    <glyph glyph-name="cdotaccent" unicode="&#x10b;" horiz-adv-x="524" 
d="M307 -12q-55 0 -102 19.5t-81.5 53.5t-54 80.5t-19.5 100.5t19.5 100.5t54 80t82 53t102.5 19.5q44 0 79.5 -9t66.5 -26v-67q-66 37 -136 37q-41 0 -76.5 -14t-61.5 -39t-41 -60t-15 -76t15 -75.5t41 -59.5t61.5 -39t76.5 -14q43 0 78.5 11t66.5 31v-66q-68 -41 -156 -41
zM256 646q0 20 13.5 33.5t33.5 13.5t33.5 -13.5t13.5 -33.5t-13.5 -33.5t-33.5 -13.5t-33.5 13.5t-13.5 33.5z" />
    <glyph glyph-name="Ccaron" unicode="&#x10c;" horiz-adv-x="690" 
d="M429 -12q-76 0 -141.5 26.5t-114 74.5t-76 114.5t-27.5 146.5q0 79 27.5 145.5t75.5 114.5t113.5 75t142.5 27q56 0 104.5 -12.5t91.5 -39.5v-76q-43 28 -90 43.5t-105 15.5q-60 0 -112 -22t-90.5 -61t-60.5 -93t-22 -117q0 -64 22 -117.5t61 -92.5t91.5 -61t112.5 -22
q121 0 208 70v-77q-42 -31 -95.5 -46.5t-115.5 -15.5zM267 896h71l76 -91l77 91h70l-111 -133h-73z" />
    <glyph glyph-name="ccaron" unicode="&#x10d;" horiz-adv-x="523" 
d="M307 -12q-55 0 -102 19.5t-81.5 53.5t-54 80.5t-19.5 100.5t19.5 100.5t54 80t82 53t102.5 19.5q44 0 79.5 -9t66.5 -26v-67q-66 37 -136 37q-41 0 -76.5 -14t-61.5 -39t-41 -60t-15 -76t15 -75.5t41 -59.5t61.5 -39t76.5 -14q43 0 78.5 11t66.5 31v-66q-68 -41 -156 -41
zM149 710h72l75 -92l77 92h70l-111 -134h-73z" />
    <glyph glyph-name="Dcaron" unicode="&#x10e;" horiz-adv-x="778" 
d="M99 700h229q84 0 154 -25.5t120 -71.5t77.5 -110.5t27.5 -142.5t-27.5 -142.5t-77.5 -110.5t-120 -71.5t-154 -25.5h-229v700zM319 67q73 0 131 20t98.5 57t62 89.5t21.5 116.5t-21.5 116.5t-62 89.5t-98.5 57t-131 20h-146v-566h146zM196 896h71l76 -91l77 91h70
l-111 -133h-73z" />
    <glyph glyph-name="dcaron" unicode="&#x10f;" horiz-adv-x="759" 
d="M552 700v-700h-72v77q-28 -37 -75 -63t-112 -26q-55 0 -99.5 20.5t-76.5 55t-49.5 80.5t-17.5 97t17.5 97.5t49.5 81t76.5 55t99.5 20.5q65 0 112 -26t75 -63v294h72zM480 321q-21 47 -67 78t-103 31q-41 0 -75 -14.5t-58.5 -40t-38.5 -60t-14 -74.5t14 -74t38.5 -59.5
t58.5 -40t75 -14.5q28 0 54 8.5t48.5 23t39.5 34.5t28 43v159zM695 700h75l-74 -177h-57z" />
    <glyph glyph-name="Dcroat" unicode="&#x110;" horiz-adv-x="828" 
d="M149 324h-111v67h111v309h229q84 0 154 -25.5t120 -71.5t77.5 -110.5t27.5 -142.5t-27.5 -142.5t-77.5 -110.5t-120 -71.5t-154 -25.5h-229v324zM369 67q73 0 131 20t98.5 57t62 89.5t21.5 116.5t-21.5 116.5t-62 89.5t-98.5 57t-131 20h-146v-242h162v-67h-162v-257h146
z" />
    <glyph glyph-name="dcroat" unicode="&#x111;" horiz-adv-x="634" 
d="M552 700v-80h107v-63h-107v-557h-72v77q-28 -37 -75 -63t-112 -26q-55 0 -99.5 20.5t-76.5 55t-49.5 80.5t-17.5 97t17.5 97.5t49.5 81t76.5 55t99.5 20.5q65 0 112 -26t75 -63v151h-144v63h144v80h72zM480 321q-21 47 -67 78t-103 31q-41 0 -75 -14.5t-58.5 -40
t-38.5 -60t-14 -74.5t14 -74t38.5 -59.5t58.5 -40t75 -14.5q28 0 54 8.5t48.5 23t39.5 34.5t28 43v159z" />
    <glyph glyph-name="Emacron" unicode="&#x112;" horiz-adv-x="640" 
d="M99 700h480v-67h-406v-224h333v-67h-333v-275h421v-67h-495v700zM220 857h252v-55h-252v55z" />
    <glyph glyph-name="emacron" unicode="&#x113;" horiz-adv-x="571" 
d="M316 -12q-56 0 -104.5 18.5t-84.5 52t-56.5 80t-20.5 102.5q0 54 17.5 100t50 80.5t77.5 54t100 19.5q61 0 104 -24t70 -60.5t39.5 -81t12.5 -85.5v-20h-397q3 -39 19 -70.5t43 -54t63.5 -34.5t80.5 -12q46 0 85 12.5t70 32.5v-64q-26 -20 -71 -33t-98 -13zM448 283
q-1 23 -10 49t-27.5 47.5t-47.5 36t-71 14.5q-39 0 -69 -12.5t-51 -33.5t-33 -47.5t-14 -53.5h323zM166 673h252v-55h-252v55z" />
    <glyph glyph-name="Ebreve" unicode="&#x114;" horiz-adv-x="640" 
d="M99 700h480v-67h-406v-224h333v-67h-333v-275h421v-67h-495v700zM347 756q-28 0 -53 10t-44 28.5t-30 44.5t-12 57h57q1 -37 24 -62t58 -25t57.5 25t23.5 62h57q0 -31 -11.5 -57t-30 -44.5t-43.5 -28.5t-53 -10z" />
    <glyph glyph-name="ebreve" unicode="&#x115;" horiz-adv-x="571" 
d="M316 -12q-56 0 -104.5 18.5t-84.5 52t-56.5 80t-20.5 102.5q0 54 17.5 100t50 80.5t77.5 54t100 19.5q61 0 104 -24t70 -60.5t39.5 -81t12.5 -85.5v-20h-397q3 -39 19 -70.5t43 -54t63.5 -34.5t80.5 -12q46 0 85 12.5t70 32.5v-64q-26 -20 -71 -33t-98 -13zM448 283
q-1 23 -10 49t-27.5 47.5t-47.5 36t-71 14.5q-39 0 -69 -12.5t-51 -33.5t-33 -47.5t-14 -53.5h323zM291 570q-29 0 -54 10.5t-43.5 29t-29.5 44t-12 56.5h57q1 -37 24 -61.5t58 -24.5t57.5 24.5t23.5 61.5h57q-1 -31 -12.5 -56.5t-30 -44t-43.5 -29t-52 -10.5z" />
    <glyph glyph-name="Edotaccent" unicode="&#x116;" horiz-adv-x="640" 
d="M99 700h480v-67h-406v-224h333v-67h-333v-275h421v-67h-495v700zM298 827q0 20 13.5 33.5t33.5 13.5t33.5 -13.5t13.5 -33.5t-13.5 -33.5t-33.5 -13.5t-33.5 13.5t-13.5 33.5z" />
    <glyph glyph-name="edotaccent" unicode="&#x117;" horiz-adv-x="571" 
d="M316 -12q-56 0 -104.5 18.5t-84.5 52t-56.5 80t-20.5 102.5q0 54 17.5 100t50 80.5t77.5 54t100 19.5q61 0 104 -24t70 -60.5t39.5 -81t12.5 -85.5v-20h-397q3 -39 19 -70.5t43 -54t63.5 -34.5t80.5 -12q46 0 85 12.5t70 32.5v-64q-26 -20 -71 -33t-98 -13zM448 283
q-1 23 -10 49t-27.5 47.5t-47.5 36t-71 14.5q-39 0 -69 -12.5t-51 -33.5t-33 -47.5t-14 -53.5h323zM245 646q0 20 13.5 33.5t33.5 13.5t33.5 -13.5t13.5 -33.5t-13.5 -33.5t-33.5 -13.5t-33.5 13.5t-13.5 33.5z" />
    <glyph glyph-name="Eogonek" unicode="&#x118;" horiz-adv-x="643" 
d="M99 700h480v-67h-406v-224h333v-67h-333v-275h421v-67q-11 -12 -24 -33.5t-13 -49.5q0 -29 19 -47t50 -18q12 0 21 2t19 5v-48q-8 -2 -20.5 -4t-30.5 -2q-54 0 -83 28.5t-29 70.5q0 34 14.5 59t25.5 37h-444v700z" />
    <glyph glyph-name="eogonek" unicode="&#x119;" horiz-adv-x="571" 
d="M506 -161q-54 0 -83 28.5t-29 70.5q0 18 4.5 33.5t10.5 28.5q-42 -12 -93 -12q-56 0 -104.5 18.5t-84.5 52t-56.5 80t-20.5 102.5q0 54 17.5 100t50 80.5t77.5 54t100 19.5q61 0 104 -24t70 -60.5t39.5 -81t12.5 -85.5v-20h-397q3 -39 19 -70.5t43 -54t63.5 -34.5
t80.5 -12q46 0 85 12.5t70 32.5v-64q-11 -12 -24 -33.5t-13 -49.5q0 -29 19 -47t50 -18q12 0 21 2t19 5v-48q-8 -2 -20.5 -4t-30.5 -2zM448 283q-1 23 -10 49t-27.5 47.5t-47.5 36t-71 14.5q-39 0 -69 -12.5t-51 -33.5t-33 -47.5t-14 -53.5h323z" />
    <glyph glyph-name="Ecaron" unicode="&#x11a;" horiz-adv-x="640" 
d="M99 700h480v-67h-406v-224h333v-67h-333v-275h421v-67h-495v700zM198 896h71l76 -91l77 91h70l-111 -133h-73z" />
    <glyph glyph-name="ecaron" unicode="&#x11b;" horiz-adv-x="571" 
d="M316 -12q-56 0 -104.5 18.5t-84.5 52t-56.5 80t-20.5 102.5q0 54 17.5 100t50 80.5t77.5 54t100 19.5q61 0 104 -24t70 -60.5t39.5 -81t12.5 -85.5v-20h-397q3 -39 19 -70.5t43 -54t63.5 -34.5t80.5 -12q46 0 85 12.5t70 32.5v-64q-26 -20 -71 -33t-98 -13zM448 283
q-1 23 -10 49t-27.5 47.5t-47.5 36t-71 14.5q-39 0 -69 -12.5t-51 -33.5t-33 -47.5t-14 -53.5h323zM143 710h72l75 -92l77 92h70l-111 -134h-73z" />
    <glyph glyph-name="Gcircumflex" unicode="&#x11c;" horiz-adv-x="780" 
d="M427 -12q-75 0 -140.5 26.5t-113.5 74.5t-75.5 114.5t-27.5 146.5q0 79 27.5 145.5t75.5 114.5t113.5 75t142.5 27q65 0 121 -17t101 -50v-75q-49 37 -105 55t-113 18q-61 0 -113.5 -22t-91.5 -61t-61 -93t-22 -118q0 -65 22.5 -119t60.5 -92.5t89.5 -59.5t109.5 -21
t110 18t89 55v272h73v-301q-42 -48 -112 -80.5t-160 -32.5zM369 896h72l111 -133h-71l-76 92l-76 -92h-71z" />
    <glyph glyph-name="gcircumflex" unicode="&#x11d;" horiz-adv-x="636" 
d="M480 82q-27 -36 -74 -61t-113 -25q-54 0 -99 20t-77 53.5t-49.5 79t-17.5 96.5t17.5 96.5t49.5 79.5t77 54t99 20q66 0 113 -24.5t74 -61.5v74h72v-452q0 -60 -21 -104t-57 -73.5t-83.5 -43.5t-100.5 -14q-52 0 -103 12.5t-84 31.5v70q38 -23 85 -36t95 -13q40 0 76 9.5
t63 30t42.5 53t15.5 77.5v51zM480 324q-20 47 -66.5 76.5t-103.5 29.5q-40 0 -74 -14t-59 -39t-39 -59t-14 -73t14 -73t39 -58.5t59 -38.5t74 -14q57 0 103.5 29.5t66.5 76.5v157zM277 710h73l110 -134h-71l-77 92l-76 -92h-71z" />
    <glyph glyph-name="Gbreve" unicode="&#x11e;" horiz-adv-x="780" 
d="M427 -12q-75 0 -140.5 26.5t-113.5 74.5t-75.5 114.5t-27.5 146.5q0 79 27.5 145.5t75.5 114.5t113.5 75t142.5 27q65 0 121 -17t101 -50v-75q-49 37 -105 55t-113 18q-61 0 -113.5 -22t-91.5 -61t-61 -93t-22 -118q0 -65 22.5 -119t60.5 -92.5t89.5 -59.5t109.5 -21
t110 18t89 55v272h73v-301q-42 -48 -112 -80.5t-160 -32.5zM420 761q-28 0 -53 10t-44 28.5t-30 44.5t-12 57h57q1 -37 24 -62t58 -25t57.5 25t23.5 62h57q0 -31 -11.5 -57t-30 -44.5t-43.5 -28.5t-53 -10z" />
    <glyph glyph-name="gbreve" unicode="&#x11f;" horiz-adv-x="636" 
d="M480 82q-27 -36 -74 -61t-113 -25q-54 0 -99 20t-77 53.5t-49.5 79t-17.5 96.5t17.5 96.5t49.5 79.5t77 54t99 20q66 0 113 -24.5t74 -61.5v74h72v-452q0 -60 -21 -104t-57 -73.5t-83.5 -43.5t-100.5 -14q-52 0 -103 12.5t-84 31.5v70q38 -23 85 -36t95 -13q40 0 76 9.5
t63 30t42.5 53t15.5 77.5v51zM480 324q-20 47 -66.5 76.5t-103.5 29.5q-40 0 -74 -14t-59 -39t-39 -59t-14 -73t14 -73t39 -58.5t59 -38.5t74 -14q57 0 103.5 29.5t66.5 76.5v157zM309 570q-29 0 -54 10.5t-43.5 29t-29.5 44t-12 56.5h57q1 -37 24 -61.5t58 -24.5t57.5 24.5
t23.5 61.5h57q-1 -31 -12.5 -56.5t-30 -44t-43.5 -29t-52 -10.5z" />
    <glyph glyph-name="Gdotaccent" unicode="&#x120;" horiz-adv-x="780" 
d="M427 -12q-75 0 -140.5 26.5t-113.5 74.5t-75.5 114.5t-27.5 146.5q0 79 27.5 145.5t75.5 114.5t113.5 75t142.5 27q65 0 121 -17t101 -50v-75q-49 37 -105 55t-113 18q-61 0 -113.5 -22t-91.5 -61t-61 -93t-22 -118q0 -65 22.5 -119t60.5 -92.5t89.5 -59.5t109.5 -21
t110 18t89 55v272h73v-301q-42 -48 -112 -80.5t-160 -32.5zM376 827q0 20 13.5 33.5t33.5 13.5t33.5 -13.5t13.5 -33.5t-13.5 -33.5t-33.5 -13.5t-33.5 13.5t-13.5 33.5z" />
    <glyph glyph-name="gdotaccent" unicode="&#x121;" horiz-adv-x="636" 
d="M480 82q-27 -36 -74 -61t-113 -25q-54 0 -99 20t-77 53.5t-49.5 79t-17.5 96.5t17.5 96.5t49.5 79.5t77 54t99 20q66 0 113 -24.5t74 -61.5v74h72v-452q0 -60 -21 -104t-57 -73.5t-83.5 -43.5t-100.5 -14q-52 0 -103 12.5t-84 31.5v70q38 -23 85 -36t95 -13q40 0 76 9.5
t63 30t42.5 53t15.5 77.5v51zM480 324q-20 47 -66.5 76.5t-103.5 29.5q-40 0 -74 -14t-59 -39t-39 -59t-14 -73t14 -73t39 -58.5t59 -38.5t74 -14q57 0 103.5 29.5t66.5 76.5v157zM262 646q0 20 13.5 33.5t33.5 13.5t33.5 -13.5t13.5 -33.5t-13.5 -33.5t-33.5 -13.5
t-33.5 13.5t-13.5 33.5z" />
    <glyph glyph-name="uni0122" unicode="&#x122;" horiz-adv-x="780" 
d="M427 -12q-75 0 -140.5 26.5t-113.5 74.5t-75.5 114.5t-27.5 146.5q0 79 27.5 145.5t75.5 114.5t113.5 75t142.5 27q65 0 121 -17t101 -50v-75q-49 37 -105 55t-113 18q-61 0 -113.5 -22t-91.5 -61t-61 -93t-22 -118q0 -65 22.5 -119t60.5 -92.5t89.5 -59.5t109.5 -21
t110 18t89 55v272h73v-301q-42 -48 -112 -80.5t-160 -32.5zM401 -54h75l-74 -177h-57z" />
    <glyph glyph-name="uni0123" unicode="&#x123;" horiz-adv-x="636" 
d="M480 82q-27 -36 -74 -61t-113 -25q-54 0 -99 20t-77 53.5t-49.5 79t-17.5 96.5t17.5 96.5t49.5 79.5t77 54t99 20q66 0 113 -24.5t74 -61.5v74h72v-452q0 -60 -21 -104t-57 -73.5t-83.5 -43.5t-100.5 -14q-52 0 -103 12.5t-84 31.5v70q38 -23 85 -36t95 -13q40 0 76 9.5
t63 30t42.5 53t15.5 77.5v51zM480 324q-20 47 -66.5 76.5t-103.5 29.5q-40 0 -74 -14t-59 -39t-39 -59t-14 -73t14 -73t39 -58.5t59 -38.5t74 -14q57 0 103.5 29.5t66.5 76.5v157zM331.007 556.997h-74.9951l73.9951 176.989h56.9971z" />
    <glyph glyph-name="Hcircumflex" unicode="&#x124;" horiz-adv-x="761" 
d="M99 700h74v-291h416v291h74v-700h-74v342h-416v-342h-74v700zM344 896h72l111 -133h-71l-76 92l-76 -92h-71z" />
    <glyph glyph-name="hcircumflex" unicode="&#x125;" horiz-adv-x="607" 
d="M83 0v700h72v-291q14 16 33 31.5t43.5 27.5t53.5 19.5t63 7.5q92 0 138 -53.5t46 -147.5v-294h-72v278q0 48 -13.5 77t-33.5 45t-44 21.5t-46 5.5q-26 0 -51 -9t-47.5 -23t-40.5 -32t-29 -37v-326h-72zM84 896h72l111 -133h-71l-76 92l-76 -92h-71z" />
    <glyph glyph-name="Hbar" unicode="&#x126;" horiz-adv-x="861" 
d="M148 537h-88v53h88v110h74v-110h417v110h74v-110h88v-53h-88v-537h-74v342h-417v-342h-74v537zM639 409v128h-417v-128h417z" />
    <glyph glyph-name="hbar" unicode="&#x127;" horiz-adv-x="641" 
d="M116 0v557h-102v63h102v80h72v-80h143v-63h-143v-209q14 16 33 31.5t43.5 27.5t53.5 19.5t63 7.5q92 0 138 -53.5t46 -147.5v-233h-72v217q0 48 -13.5 77t-33.5 45t-44 21.5t-46 5.5q-26 0 -51 -9t-47.5 -23t-40.5 -32t-29 -37v-265h-72z" />
    <glyph glyph-name="Itilde" unicode="&#x128;" horiz-adv-x="281" 
d="M104 700h74v-700h-74v700zM213 772q-20 0 -38.5 9t-36 19.5t-33 19.5t-30.5 9q-21 0 -30 -16.5t-11 -36.5h-49q1 23 7.5 43t17.5 35t27 23.5t35 8.5q20 0 38.5 -9t36 -19.5t33.5 -19t30 -8.5q22 0 29.5 16t11.5 36h49q-1 -47 -24 -78.5t-63 -31.5z" />
    <glyph glyph-name="itilde" unicode="&#x129;" horiz-adv-x="253" 
d="M198 589q-20 0 -38.5 8.5t-36 19t-33 19.5t-30.5 9q-21 0 -30 -16t-11 -36h-49q2 47 25 78.5t62 31.5q20 0 38.5 -9t36 -19.5t33.5 -19t30 -8.5q22 0 29.5 16t11.5 36h49q-1 -48 -24 -79t-63 -31zM90 483h73v-483h-73v483z" />
    <glyph glyph-name="Imacron" unicode="&#x12a;" horiz-adv-x="281" 
d="M104 700h74v-700h-74v700zM16 857h252v-55h-252v55z" />
    <glyph glyph-name="imacron" unicode="&#x12b;" horiz-adv-x="253" 
d="M1 673h252v-55h-252v55zM90 483h73v-483h-73v483z" />
    <glyph glyph-name="Ibreve" unicode="&#x12c;" horiz-adv-x="281" 
d="M104 700h74v-700h-74v700zM143 756q-28 0 -53 10t-44 28.5t-30 44.5t-12 57h57q1 -37 24 -62t58 -25t57.5 25t23.5 62h57q0 -31 -11.5 -57t-30 -44.5t-43.5 -28.5t-53 -10z" />
    <glyph glyph-name="ibreve" unicode="&#x12d;" horiz-adv-x="253" 
d="M128 570q-29 0 -54 10.5t-43.5 29t-29.5 44t-12 56.5h57q1 -37 24 -61.5t58 -24.5t57.5 24.5t23.5 61.5h57q-1 -31 -12.5 -56.5t-30 -44t-43.5 -29t-52 -10.5zM90 483h73v-483h-73v483z" />
    <glyph glyph-name="Iogonek" unicode="&#x12e;" horiz-adv-x="281" 
d="M104 700h74v-700q-11 -12 -24 -33.5t-13 -49.5q0 -29 19 -47t50 -18q12 0 21 2t19 5v-48q-8 -2 -20.5 -4t-30.5 -2q-54 0 -83 28.5t-29 70.5q0 34 14.5 59t25.5 37h-23v700z" />
    <glyph glyph-name="iogonek" unicode="&#x12f;" horiz-adv-x="264" 
d="M96 483h72v-483q-11 -12 -24 -33.5t-13 -49.5q0 -29 19 -47t50 -18q12 0 21 2t19 5v-48q-8 -2 -20.5 -4t-30.5 -2q-54 0 -83 28.5t-29 70.5q0 34 14.5 59t25.5 37h-21v483zM82 649q0 21 14.5 36t35.5 15t36 -15t15 -36t-15 -35.5t-36 -14.5t-35.5 14.5t-14.5 35.5z" />
    <glyph glyph-name="Idotaccent" unicode="&#x130;" horiz-adv-x="281" 
d="M104 700h74v-700h-74v700zM95 827q0 20 13.5 33.5t33.5 13.5t33.5 -13.5t13.5 -33.5t-13.5 -33.5t-33.5 -13.5t-33.5 13.5t-13.5 33.5z" />
    <glyph glyph-name="dotlessi" unicode="&#x131;" horiz-adv-x="253" 
d="M90 483h73v-483h-73v483z" />
    <glyph glyph-name="IJ" unicode="&#x132;" horiz-adv-x="604" 
d="M104 700h74v-446h-74v446zM275 -12q-46 0 -91 10.5t-80 35.5v76q30 -24 72.5 -38.5t87.5 -14.5q88 0 131.5 40.5t43.5 128.5v474h74v-480q0 -61 -17 -105t-48.5 -72t-75.5 -41.5t-97 -13.5z" />
    <glyph glyph-name="Jcircumflex" unicode="&#x134;" horiz-adv-x="502" 
d="M192 -12q-43 0 -85 10.5t-75 34.5v77q28 -25 67 -39t80 -14q81 0 121 40.5t40 128.5v474h74v-487q0 -59 -16 -101.5t-45.5 -70t-70.5 -40.5t-90 -13zM338 896h72l111 -133h-71l-76 92l-76 -92h-71z" />
    <glyph glyph-name="jcircumflex" unicode="&#x135;" horiz-adv-x="266" 
d="M26 -204q-20 0 -44.5 4.5t-40.5 13.5v66q14 -8 32 -13.5t38 -5.5q85 0 85 97v525h72v-536q0 -41 -11.5 -70t-31 -47t-45 -26t-54.5 -8zM97 710h73l110 -134h-71l-77 92l-76 -92h-71z" />
    <glyph glyph-name="uni0136" unicode="&#x136;" horiz-adv-x="661" 
d="M173 396l324 304h98l-344 -320l397 -380h-104l-371 356v-356h-74v700h74v-304zM333 -54h75l-74 -177h-57z" />
    <glyph glyph-name="uni0137" unicode="&#x137;" horiz-adv-x="539" 
d="M156 284l230 199h98l-255 -218l291 -265h-103l-261 238v-238h-72v700h72v-416zM260 -54h75l-74 -177h-57z" />
    <glyph glyph-name="kgreenlandic" unicode="&#x138;" horiz-adv-x="541" 
d="M157 284l230 199h98l-255 -218l291 -265h-103l-261 238v-238h-72v483h72v-199z" />
    <glyph glyph-name="Lacute" unicode="&#x139;" horiz-adv-x="597" 
d="M99 700h74v-633h391v-67h-465v700zM199 896h92l-118 -133h-69z" />
    <glyph glyph-name="lacute" unicode="&#x13a;" horiz-adv-x="292" 
d="M196 -12q-20 0 -40 5.5t-35.5 19t-25.5 36.5t-10 58v593h72v-576q0 -37 16.5 -54t46.5 -17q24 0 47 13v-64q-15 -8 -33.5 -11t-37.5 -3zM187 896h92l-118 -133h-69z" />
    <glyph glyph-name="uni013B" unicode="&#x13b;" horiz-adv-x="597" 
d="M99 700h74v-633h391v-67h-465v700zM315 -54h75l-74 -177h-57z" />
    <glyph glyph-name="lcommaaccent" unicode="&#x13c;" horiz-adv-x="292" 
d="M196 -12q-20 0 -40 5.5t-35.5 19t-25.5 36.5t-10 58v593h72v-576q0 -37 16.5 -54t46.5 -17q24 0 47 13v-64q-15 -8 -33.5 -11t-37.5 -3zM157 -54h75l-74 -177h-57z" />
    <glyph glyph-name="Lcaron" unicode="&#x13d;" horiz-adv-x="613" 
d="M99 700h74v-633h391v-67h-465v700zM498 700h75l-74 -177h-57z" />
    <glyph glyph-name="lcaron" unicode="&#x13e;" horiz-adv-x="368" 
d="M194 -12q-20 0 -40 5.5t-35.5 19t-25.5 36.5t-10 58v593h72v-576q0 -37 16.5 -54t46.5 -17q24 0 47 13v-64q-15 -8 -33.5 -11t-37.5 -3zM303 700h75l-74 -177h-57z" />
    <glyph glyph-name="Ldot" unicode="&#x13f;" horiz-adv-x="597" 
d="M99 700h74v-633h391v-67h-465v700zM460 380q0 22 15 37t37 15t37 -15t15 -37t-15 -37t-37 -15t-37 15t-15 37z" />
    <glyph glyph-name="ldot" unicode="&#x140;" horiz-adv-x="399" 
d="M197 -12q-20 0 -40 5.5t-35.5 19t-25.5 36.5t-10 58v593h72v-576q0 -37 16.5 -54t46.5 -17q24 0 47 13v-64q-15 -8 -33.5 -11t-37.5 -3zM250 380q0 22 15 37t37 15t37 -15t15 -37t-15 -37t-37 -15t-37 15t-15 37z" />
    <glyph glyph-name="Lslash" unicode="&#x141;" horiz-adv-x="610" 
d="M112 395v305h74v-259l157 96v-71l-157 -96v-303h391v-67h-465v325l-95 -59v71z" />
    <glyph glyph-name="lslash" unicode="&#x142;" horiz-adv-x="384" 
d="M142 396v304h72v-260l102 64v-71l-102 -63v-246q0 -71 64 -71q25 0 46 13v-65q-15 -8 -33.5 -11t-36.5 -3q-20 0 -40 5.5t-36 19t-26 36.5t-10 58v219l-101 -62v71z" />
    <glyph glyph-name="Nacute" unicode="&#x143;" horiz-adv-x="775" 
d="M99 700h64l442 -572v572h72v-700h-63l-443 574v-574h-72v700zM442 896h92l-118 -133h-69z" />
    <glyph glyph-name="nacute" unicode="&#x144;" horiz-adv-x="610" 
d="M85 0v483h72v-74q14 16 33 31.5t43.5 27.5t53.5 19.5t63 7.5q92 0 138 -53.5t46 -147.5v-294h-72v278q0 48 -13.5 77t-33.5 45t-44 21.5t-46 5.5q-26 0 -51 -9t-47.5 -23t-40.5 -32t-29 -37v-326h-72zM344 710h92l-118 -134h-70z" />
    <glyph glyph-name="uni0145" unicode="&#x145;" horiz-adv-x="775" 
d="M99 700h64l442 -572v572h72v-700h-63l-443 574v-574h-72v700zM376 -54h75l-74 -177h-57z" />
    <glyph glyph-name="uni0146" unicode="&#x146;" horiz-adv-x="610" 
d="M85 0v483h72v-74q14 16 33 31.5t43.5 27.5t53.5 19.5t63 7.5q92 0 138 -53.5t46 -147.5v-294h-72v278q0 48 -13.5 77t-33.5 45t-44 21.5t-46 5.5q-26 0 -51 -9t-47.5 -23t-40.5 -32t-29 -37v-326h-72zM285 -54h75l-74 -177h-57z" />
    <glyph glyph-name="Ncaron" unicode="&#x147;" horiz-adv-x="775" 
d="M99 700h64l442 -572v572h72v-700h-63l-443 574v-574h-72v700zM240 896h71l76 -91l77 91h70l-111 -133h-73z" />
    <glyph glyph-name="ncaron" unicode="&#x148;" horiz-adv-x="610" 
d="M85 0v483h72v-74q14 16 33 31.5t43.5 27.5t53.5 19.5t63 7.5q92 0 138 -53.5t46 -147.5v-294h-72v278q0 48 -13.5 77t-33.5 45t-44 21.5t-46 5.5q-26 0 -51 -9t-47.5 -23t-40.5 -32t-29 -37v-326h-72zM162 710h72l75 -92l77 92h70l-111 -134h-73z" />
    <glyph glyph-name="napostrophe" unicode="&#x149;" horiz-adv-x="697" 
d="M172 0v483h72v-74q14 16 33 31.5t43.5 27.5t53.5 19.5t63 7.5q92 0 138 -53.5t46 -147.5v-294h-72v278q0 48 -13.5 77t-33.5 45t-44 21.5t-46 5.5q-26 0 -51 -9t-47.5 -23t-40.5 -32t-29 -37v-326h-72zM82 700h75l-74 -177h-57z" />
    <glyph glyph-name="Eng" unicode="&#x14a;" horiz-adv-x="775" 
d="M499 -204q-29 0 -60.5 6t-52.5 17v74q20 -13 45 -20.5t51 -7.5q62 0 92 33t30 102v13l-432 562v-575h-73v700h63l442 -574v574h73v-709q0 -101 -48.5 -148t-129.5 -47z" />
    <glyph glyph-name="eng" unicode="&#x14b;" horiz-adv-x="610" 
d="M85 0v483h72v-74q14 16 33 31.5t43.5 27.5t53.5 19.5t63 7.5q92 0 138 -53.5t46 -147.5v-328q0 -35 -7 -66t-23.5 -54t-43.5 -36.5t-67 -13.5q-21 0 -45.5 4.5t-40.5 13.5v67q14 -8 32 -14t38 -6q48 0 66.5 28.5t18.5 85.5v303q0 48 -13.5 77t-33.5 45t-44 21.5t-46 5.5
q-26 0 -51 -9t-47.5 -23t-40.5 -32t-29 -37v-326h-72z" />
    <glyph glyph-name="Omacron" unicode="&#x14c;" horiz-adv-x="845" 
d="M422 712q75 0 139.5 -27.5t112 -76t74 -115t26.5 -143.5t-26.5 -143.5t-74 -115t-112 -76t-139.5 -27.5t-139.5 27.5t-112 76t-74 115t-26.5 143.5t26.5 143.5t74 115t112 76t139.5 27.5zM422 57q58 0 108.5 22t88 61.5t59 93t21.5 116.5t-21.5 116.5t-59 93t-88 61.5
t-108.5 22t-108.5 -22t-88 -61.5t-59 -93t-21.5 -116.5t21.5 -116.5t59 -93t88 -61.5t108.5 -22zM296 857h252v-55h-252v55z" />
    <glyph glyph-name="omacron" unicode="&#x14d;" horiz-adv-x="621" 
d="M311 495q59 0 107 -20.5t82.5 -55.5t53 -81t18.5 -97t-18.5 -97t-53 -80.5t-82.5 -55t-107 -20.5t-107 20.5t-82.5 55t-53 80.5t-18.5 97t18.5 97t53 81t82.5 55.5t107 20.5zM311 53q40 0 74.5 14.5t59.5 40t39 59.5t14 74t-14 74.5t-39 60t-59.5 40t-74.5 14.5
q-41 0 -75 -14.5t-59 -40t-39 -60t-14 -74.5t14 -74t39 -59.5t59 -40t75 -14.5zM185 673h252v-55h-252v55z" />
    <glyph glyph-name="Obreve" unicode="&#x14e;" horiz-adv-x="845" 
d="M422 712q75 0 139.5 -27.5t112 -76t74 -115t26.5 -143.5t-26.5 -143.5t-74 -115t-112 -76t-139.5 -27.5t-139.5 27.5t-112 76t-74 115t-26.5 143.5t26.5 143.5t74 115t112 76t139.5 27.5zM422 57q58 0 108.5 22t88 61.5t59 93t21.5 116.5t-21.5 116.5t-59 93t-88 61.5
t-108.5 22t-108.5 -22t-88 -61.5t-59 -93t-21.5 -116.5t21.5 -116.5t59 -93t88 -61.5t108.5 -22zM423 761q-28 0 -53 10t-44 28.5t-30 44.5t-12 57h57q1 -37 24 -62t58 -25t57.5 25t23.5 62h57q0 -31 -11.5 -57t-30 -44.5t-43.5 -28.5t-53 -10z" />
    <glyph glyph-name="obreve" unicode="&#x14f;" horiz-adv-x="621" 
d="M311 495q59 0 107 -20.5t82.5 -55.5t53 -81t18.5 -97t-18.5 -97t-53 -80.5t-82.5 -55t-107 -20.5t-107 20.5t-82.5 55t-53 80.5t-18.5 97t18.5 97t53 81t82.5 55.5t107 20.5zM311 53q40 0 74.5 14.5t59.5 40t39 59.5t14 74t-14 74.5t-39 60t-59.5 40t-74.5 14.5
q-41 0 -75 -14.5t-59 -40t-39 -60t-14 -74.5t14 -74t39 -59.5t59 -40t75 -14.5zM312 573q-29 0 -54 10.5t-43.5 29t-29.5 44t-12 56.5h57q1 -37 24 -61.5t58 -24.5t57.5 24.5t23.5 61.5h57q-1 -31 -12.5 -56.5t-30 -44t-43.5 -29t-52 -10.5z" />
    <glyph glyph-name="Ohungarumlaut" unicode="&#x150;" horiz-adv-x="845" 
d="M422 712q75 0 139.5 -27.5t112 -76t74 -115t26.5 -143.5t-26.5 -143.5t-74 -115t-112 -76t-139.5 -27.5t-139.5 27.5t-112 76t-74 115t-26.5 143.5t26.5 143.5t74 115t112 76t139.5 27.5zM422 57q58 0 108.5 22t88 61.5t59 93t21.5 116.5t-21.5 116.5t-59 93t-88 61.5
t-108.5 22t-108.5 -22t-88 -61.5t-59 -93t-21.5 -116.5t21.5 -116.5t59 -93t88 -61.5t108.5 -22zM561 896h91l-117 -133h-70zM389 896h92l-118 -133h-70z" />
    <glyph glyph-name="ohungarumlaut" unicode="&#x151;" horiz-adv-x="621" 
d="M311 495q59 0 107 -20.5t82.5 -55.5t53 -81t18.5 -97t-18.5 -97t-53 -80.5t-82.5 -55t-107 -20.5t-107 20.5t-82.5 55t-53 80.5t-18.5 97t18.5 97t53 81t82.5 55.5t107 20.5zM311 53q40 0 74.5 14.5t59.5 40t39 59.5t14 74t-14 74.5t-39 60t-59.5 40t-74.5 14.5
q-41 0 -75 -14.5t-59 -40t-39 -60t-14 -74.5t14 -74t39 -59.5t59 -40t75 -14.5zM448 710h91l-117 -134h-70zM275 710h92l-117 -134h-70z" />
    <glyph glyph-name="OE" unicode="&#x152;" horiz-adv-x="1127" 
d="M450 0q-84 0 -154 25.5t-120.5 71.5t-78 110.5t-27.5 142.5t27.5 142.5t78 110.5t120.5 71.5t154 25.5h617v-67h-403v-224h330v-67h-330v-275h417v-67h-631zM591 67v566h-132q-75 0 -133 -20t-98 -57t-61 -89.5t-21 -116.5q0 -65 21 -117t61 -89t98 -57t133 -20h132z" />
    <glyph glyph-name="oe" unicode="&#x153;" horiz-adv-x="1017" 
d="M967 224h-397q3 -39 19 -70.5t43 -54t63.5 -34.5t80.5 -12q47 0 86 12.5t69 32.5v-64q-26 -20 -70.5 -33t-98.5 -13q-76 0 -136.5 33.5t-92.5 88.5q-29 -54 -87 -88t-135 -34q-58 0 -106 20.5t-82.5 55t-53.5 80.5t-19 97t19 97t53.5 81t82.5 55.5t106 20.5q77 0 134 -35
t87 -89q27 55 80.5 89.5t128.5 34.5q61 0 104 -24t70 -60.5t39.5 -81t12.5 -85.5v-20zM311 53q40 0 74.5 14.5t60 40t39.5 59.5t14 74t-14 74.5t-39.5 60t-60 40t-74.5 14.5t-74.5 -14.5t-59.5 -40t-39 -60t-14 -74.5t14 -74t39 -59.5t59.5 -40t74.5 -14.5zM894 283
q-1 23 -10 49t-27.5 47.5t-47.5 36t-71 14.5q-39 0 -69 -12.5t-51 -33.5t-33 -47.5t-14 -53.5h323z" />
    <glyph glyph-name="Racute" unicode="&#x154;" horiz-adv-x="736" 
d="M99 700h313q52 0 93.5 -14t69.5 -39t43 -60t15 -77q0 -73 -42.5 -123.5t-122.5 -64.5l226 -322h-87l-220 315h-214v-315h-74v700zM408 382q72 0 111.5 32t39.5 93q0 60 -39.5 93t-111.5 33h-235v-251h235zM369 896h92l-118 -133h-69z" />
    <glyph glyph-name="racute" unicode="&#x155;" horiz-adv-x="369" 
d="M85 483h72v-92q28 48 81 76t111 28v-73q-33 0 -60 -9q-52 -13 -85 -45t-47 -63v-305h-72v483zM233 710h92l-118 -134h-70z" />
    <glyph glyph-name="uni0156" unicode="&#x156;" horiz-adv-x="736" 
d="M99 700h313q52 0 93.5 -14t69.5 -39t43 -60t15 -77q0 -73 -42.5 -123.5t-122.5 -64.5l226 -322h-87l-220 315h-214v-315h-74v700zM408 382q72 0 111.5 32t39.5 93q0 60 -39.5 93t-111.5 33h-235v-251h235zM342 -54h75l-74 -177h-57z" />
    <glyph glyph-name="uni0157" unicode="&#x157;" horiz-adv-x="369" 
d="M85 483h72v-92q28 48 81 76t111 28v-73q-33 0 -60 -9q-52 -13 -85 -45t-47 -63v-305h-72v483zM83 -54h75l-74 -177h-57z" />
    <glyph glyph-name="Rcaron" unicode="&#x158;" horiz-adv-x="736" 
d="M99 700h313q52 0 93.5 -14t69.5 -39t43 -60t15 -77q0 -73 -42.5 -123.5t-122.5 -64.5l226 -322h-87l-220 315h-214v-315h-74v700zM408 382q72 0 111.5 32t39.5 93q0 60 -39.5 93t-111.5 33h-235v-251h235zM191 896h71l76 -91l77 91h70l-111 -133h-73z" />
    <glyph glyph-name="rcaron" unicode="&#x159;" horiz-adv-x="366" 
d="M83 483h72v-92q28 48 81 76t111 28v-73q-33 0 -60 -9q-52 -13 -85 -45t-47 -63v-305h-72v483zM62 710h72l75 -92l77 92h70l-111 -134h-73z" />
    <glyph glyph-name="Sacute" unicode="&#x15a;" horiz-adv-x="627" 
d="M307 -12q-82 0 -150 22t-109 52v83q18 -16 45 -31.5t60 -28t71 -20.5t78 -8t74.5 9t60 26t40 41.5t14.5 55.5q0 34 -15.5 57t-42.5 38.5t-63 27t-76 23.5q-48 13 -90.5 27.5t-74 36t-49.5 53t-18 79.5q0 38 16 71t46.5 57.5t75.5 38.5t104 14q65 0 120.5 -16t97.5 -42
v-76q-43 27 -98.5 46t-117.5 19q-45 0 -77 -9.5t-52.5 -25.5t-30 -36.5t-9.5 -42.5q0 -32 16.5 -52.5t44 -34.5t63 -24t73.5 -21q42 -13 84 -28t75 -38.5t53.5 -57t20.5 -83.5q0 -49 -21 -87t-57 -63.5t-83 -38.5t-99 -13zM340 896h92l-118 -133h-69z" />
    <glyph glyph-name="sacute" unicode="&#x15b;" horiz-adv-x="509" 
d="M249 -12q-64 0 -118 15.5t-82 34.5v74q13 -9 32.5 -19t45 -19t56 -15t64.5 -6q62 0 97.5 20.5t35.5 56.5q0 21 -12 34.5t-33 22t-48.5 14.5t-57.5 14q-38 10 -69.5 21.5t-53.5 28t-34 40t-12 56.5q0 61 50 97.5t144 36.5q48 0 96 -11.5t80 -31.5v-71q-33 20 -78.5 34.5
t-94.5 14.5q-65 0 -94.5 -20.5t-29.5 -50.5q0 -21 12.5 -35t33.5 -23t47 -15t53 -12q35 -8 66.5 -19t55.5 -27.5t38.5 -40.5t14.5 -58q0 -33 -15.5 -59.5t-43 -44.5t-65 -27.5t-81.5 -9.5zM280 710h92l-118 -134h-70z" />
    <glyph glyph-name="Scircumflex" unicode="&#x15c;" horiz-adv-x="627" 
d="M307 -12q-82 0 -150 22t-109 52v83q18 -16 45 -31.5t60 -28t71 -20.5t78 -8t74.5 9t60 26t40 41.5t14.5 55.5q0 34 -15.5 57t-42.5 38.5t-63 27t-76 23.5q-48 13 -90.5 27.5t-74 36t-49.5 53t-18 79.5q0 38 16 71t46.5 57.5t75.5 38.5t104 14q65 0 120.5 -16t97.5 -42
v-76q-43 27 -98.5 46t-117.5 19q-45 0 -77 -9.5t-52.5 -25.5t-30 -36.5t-9.5 -42.5q0 -32 16.5 -52.5t44 -34.5t63 -24t73.5 -21q42 -13 84 -28t75 -38.5t53.5 -57t20.5 -83.5q0 -49 -21 -87t-57 -63.5t-83 -38.5t-99 -13zM276 896h72l111 -133h-71l-76 92l-76 -92h-71z" />
    <glyph glyph-name="scircumflex" unicode="&#x15d;" horiz-adv-x="509" 
d="M249 -12q-64 0 -118 15.5t-82 34.5v74q13 -9 32.5 -19t45 -19t56 -15t64.5 -6q62 0 97.5 20.5t35.5 56.5q0 21 -12 34.5t-33 22t-48.5 14.5t-57.5 14q-38 10 -69.5 21.5t-53.5 28t-34 40t-12 56.5q0 61 50 97.5t144 36.5q48 0 96 -11.5t80 -31.5v-71q-33 20 -78.5 34.5
t-94.5 14.5q-65 0 -94.5 -20.5t-29.5 -50.5q0 -21 12.5 -35t33.5 -23t47 -15t53 -12q35 -8 66.5 -19t55.5 -27.5t38.5 -40.5t14.5 -58q0 -33 -15.5 -59.5t-43 -44.5t-65 -27.5t-81.5 -9.5zM219 710h73l110 -134h-71l-77 92l-76 -92h-71z" />
    <glyph glyph-name="Scedilla" unicode="&#x15e;" horiz-adv-x="627" 
d="M291 -12q-77 2 -141 23.5t-102 50.5v83q18 -16 45 -31.5t60 -28t71 -20.5t78 -8t74.5 9t60 26t40 41.5t14.5 55.5q0 34 -15.5 57t-42.5 38.5t-63 27t-76 23.5q-48 13 -90.5 27.5t-74 36t-49.5 53t-18 79.5q0 38 16 71t46.5 57.5t75.5 38.5t104 14q65 0 120.5 -16
t97.5 -42v-76q-43 27 -98.5 46t-117.5 19q-45 0 -77 -9.5t-52.5 -25.5t-30 -36.5t-9.5 -42.5q0 -32 16.5 -52.5t44 -34.5t63 -24t73.5 -21q42 -13 84 -28t75 -38.5t53.5 -57t20.5 -83.5q0 -43 -16.5 -77.5t-45 -59t-67 -40t-81.5 -21.5l-63 -124h-87z" />
    <glyph glyph-name="scedilla" unicode="&#x15f;" horiz-adv-x="509" 
d="M227 -11q-57 2 -104.5 17t-73.5 32v74q13 -9 32.5 -19t45 -19t56 -15t64.5 -6q62 0 97.5 20.5t35.5 56.5q0 21 -12 34.5t-33 22t-48.5 14.5t-57.5 14q-38 10 -69.5 21.5t-53.5 28t-34 40t-12 56.5q0 61 50 97.5t144 36.5q48 0 96 -11.5t80 -31.5v-71q-33 20 -78.5 34.5
t-94.5 14.5q-65 0 -94.5 -20.5t-29.5 -50.5q0 -21 12.5 -35t33.5 -23t47 -15t53 -12q35 -8 66.5 -19t55.5 -27.5t38.5 -40.5t14.5 -58q0 -59 -45 -94.5t-116 -43.5l-63 -123h-87z" />
    <glyph glyph-name="Scaron" unicode="&#x160;" horiz-adv-x="627" 
d="M307 -12q-82 0 -150 22t-109 52v83q18 -16 45 -31.5t60 -28t71 -20.5t78 -8t74.5 9t60 26t40 41.5t14.5 55.5q0 34 -15.5 57t-42.5 38.5t-63 27t-76 23.5q-48 13 -90.5 27.5t-74 36t-49.5 53t-18 79.5q0 38 16 71t46.5 57.5t75.5 38.5t104 14q65 0 120.5 -16t97.5 -42
v-76q-43 27 -98.5 46t-117.5 19q-45 0 -77 -9.5t-52.5 -25.5t-30 -36.5t-9.5 -42.5q0 -32 16.5 -52.5t44 -34.5t63 -24t73.5 -21q42 -13 84 -28t75 -38.5t53.5 -57t20.5 -83.5q0 -49 -21 -87t-57 -63.5t-83 -38.5t-99 -13zM154 896h71l76 -91l77 91h70l-111 -133h-73z" />
    <glyph glyph-name="scaron" unicode="&#x161;" horiz-adv-x="509" 
d="M249 -12q-64 0 -118 15.5t-82 34.5v74q13 -9 32.5 -19t45 -19t56 -15t64.5 -6q62 0 97.5 20.5t35.5 56.5q0 21 -12 34.5t-33 22t-48.5 14.5t-57.5 14q-38 10 -69.5 21.5t-53.5 28t-34 40t-12 56.5q0 61 50 97.5t144 36.5q48 0 96 -11.5t80 -31.5v-71q-33 20 -78.5 34.5
t-94.5 14.5q-65 0 -94.5 -20.5t-29.5 -50.5q0 -21 12.5 -35t33.5 -23t47 -15t53 -12q35 -8 66.5 -19t55.5 -27.5t38.5 -40.5t14.5 -58q0 -33 -15.5 -59.5t-43 -44.5t-65 -27.5t-81.5 -9.5zM106 710h72l75 -92l77 92h70l-111 -134h-73z" />
    <glyph glyph-name="uni0162" unicode="&#x162;" horiz-adv-x="630" 
d="M277 633h-241v67h559v-67h-244v-633l-74 -132h-87l87 132v633z" />
    <glyph glyph-name="uni0163" unicode="&#x163;" horiz-adv-x="430" 
d="M141 137v283h-114v63h114v149h72v-149h169v-63h-169v-261q0 -57 19.5 -80t64.5 -23q26 0 46 6t33 14v-66q-12 -8 -34 -13.5t-45 -7.5l-62 -121h-87l87 125q-50 11 -72 50.5t-22 93.5z" />
    <glyph glyph-name="Tcaron" unicode="&#x164;" horiz-adv-x="630" 
d="M277 633h-241v67h559v-67h-244v-633h-74v633zM168 896h71l76 -91l77 91h70l-111 -133h-73z" />
    <glyph glyph-name="tcaron" unicode="&#x165;" horiz-adv-x="557" 
d="M288 -12q-36 0 -62 11.5t-42.5 31.5t-24 47t-7.5 59v283h-114v63h114v149h72v-149h169v-63h-169v-261q0 -57 19.5 -80t64.5 -23q26 0 46 6t33 14v-66q-14 -10 -42.5 -16t-56.5 -6zM492 700h75l-74 -177h-57z" />
    <glyph glyph-name="Tbar" unicode="&#x166;" horiz-adv-x="630" 
d="M277 338h-134v67h134v228h-241v67h559v-67h-244v-228h135v-67h-135v-338h-74v338z" />
    <glyph glyph-name="tbar" unicode="&#x167;" horiz-adv-x="430" 
d="M277 -12q-36 0 -62 11.5t-42.5 31.5t-24 47t-7.5 59v94h-114v63h114v126h-114v63h114v149h72v-149h169v-63h-169v-126h169v-63h-169v-72q0 -57 19.5 -80t64.5 -23q26 0 46 6t33 14v-66q-14 -10 -42.5 -16t-56.5 -6z" />
    <glyph glyph-name="Utilde" unicode="&#x168;" horiz-adv-x="748" 
d="M374 -12q-62 0 -114.5 20t-90.5 59t-59.5 97t-21.5 134v402h74v-403q0 -116 58 -178t154 -62t154 62t58 178v403h74v-402q0 -76 -21.5 -134t-60 -97t-91 -59t-113.5 -20zM445 772q-20 0 -38.5 9t-36 19.5t-33 19.5t-30.5 9q-21 0 -30 -16.5t-11 -36.5h-49q1 23 7.5 43
t17.5 35t27 23.5t35 8.5q20 0 38.5 -9t36 -19.5t33.5 -19t30 -8.5q22 0 29.5 16t11.5 36h49q-1 -47 -24 -78.5t-63 -31.5z" />
    <glyph glyph-name="utilde" unicode="&#x169;" horiz-adv-x="611" 
d="M526 483v-483h-72v74q-14 -16 -33 -31.5t-43.5 -27.5t-53.5 -19.5t-63 -7.5q-92 0 -138 53.5t-46 147.5v294h72v-278q0 -48 13 -77t33.5 -45t44.5 -21.5t46 -5.5q25 0 50.5 8.5t48 23t40.5 32.5t29 37v326h72zM372 589q-20 0 -38.5 8.5t-36 19t-33 19.5t-30.5 9
q-21 0 -30 -16t-11 -36h-49q2 47 25 78.5t62 31.5q20 0 38.5 -9t36 -19.5t33.5 -19t30 -8.5q22 0 29.5 16t11.5 36h49q-1 -48 -24 -79t-63 -31z" />
    <glyph glyph-name="Umacron" unicode="&#x16a;" horiz-adv-x="748" 
d="M374 -12q-62 0 -114.5 20t-90.5 59t-59.5 97t-21.5 134v402h74v-403q0 -116 58 -178t154 -62t154 62t58 178v403h74v-402q0 -76 -21.5 -134t-60 -97t-91 -59t-113.5 -20zM249 857h252v-55h-252v55z" />
    <glyph glyph-name="umacron" unicode="&#x16b;" horiz-adv-x="611" 
d="M526 483v-483h-72v74q-14 -16 -33 -31.5t-43.5 -27.5t-53.5 -19.5t-63 -7.5q-92 0 -138 53.5t-46 147.5v294h72v-278q0 -48 13 -77t33.5 -45t44.5 -21.5t46 -5.5q25 0 50.5 8.5t48 23t40.5 32.5t29 37v326h72zM175 673h252v-55h-252v55z" />
    <glyph glyph-name="Ubreve" unicode="&#x16c;" horiz-adv-x="748" 
d="M374 -12q-62 0 -114.5 20t-90.5 59t-59.5 97t-21.5 134v402h74v-403q0 -116 58 -178t154 -62t154 62t58 178v403h74v-402q0 -76 -21.5 -134t-60 -97t-91 -59t-113.5 -20zM375 756q-28 0 -53 10t-44 28.5t-30 44.5t-12 57h57q1 -37 24 -62t58 -25t57.5 25t23.5 62h57
q0 -31 -11.5 -57t-30 -44.5t-43.5 -28.5t-53 -10z" />
    <glyph glyph-name="ubreve" unicode="&#x16d;" horiz-adv-x="611" 
d="M526 483v-483h-72v74q-14 -16 -33 -31.5t-43.5 -27.5t-53.5 -19.5t-63 -7.5q-92 0 -138 53.5t-46 147.5v294h72v-278q0 -48 13 -77t33.5 -45t44.5 -21.5t46 -5.5q25 0 50.5 8.5t48 23t40.5 32.5t29 37v326h72zM302 570q-29 0 -54 10.5t-43.5 29t-29.5 44t-12 56.5h57
q1 -37 24 -61.5t58 -24.5t57.5 24.5t23.5 61.5h57q-1 -31 -12.5 -56.5t-30 -44t-43.5 -29t-52 -10.5z" />
    <glyph glyph-name="Uring" unicode="&#x16e;" horiz-adv-x="748" 
d="M374 -12q-62 0 -114.5 20t-90.5 59t-59.5 97t-21.5 134v402h74v-403q0 -116 58 -178t154 -62t154 62t58 178v403h74v-402q0 -76 -21.5 -134t-60 -97t-91 -59t-113.5 -20zM376 926q19 0 36.5 -7.5t30.5 -20.5t20.5 -30.5t7.5 -37.5t-7.5 -37.5t-20.5 -30.5t-30.5 -20.5
t-36.5 -7.5q-41 0 -69 28t-28 68t28 68t69 28zM376 774q23 0 39 16.5t16 39.5q0 24 -16 40t-39 16q-24 0 -40.5 -16t-16.5 -40q0 -23 16.5 -39.5t40.5 -16.5z" />
    <glyph glyph-name="uring" unicode="&#x16f;" horiz-adv-x="611" 
d="M526 483v-483h-72v74q-14 -16 -33 -31.5t-43.5 -27.5t-53.5 -19.5t-63 -7.5q-92 0 -138 53.5t-46 147.5v294h72v-278q0 -48 13 -77t33.5 -45t44.5 -21.5t46 -5.5q25 0 50.5 8.5t48 23t40.5 32.5t29 37v326h72zM301 742q40 0 68 -28t28 -68t-28 -68t-68 -28t-68 28t-28 68
t28 68t68 28zM301 590q24 0 40 16.5t16 39.5q0 24 -16 40t-40 16q-23 0 -39.5 -16t-16.5 -40q0 -23 16.5 -39.5t39.5 -16.5z" />
    <glyph glyph-name="Uhungarumlaut" unicode="&#x170;" horiz-adv-x="748" 
d="M374 -12q-62 0 -114.5 20t-90.5 59t-59.5 97t-21.5 134v402h74v-403q0 -116 58 -178t154 -62t154 62t58 178v403h74v-402q0 -76 -21.5 -134t-60 -97t-91 -59t-113.5 -20zM503 896h91l-117 -133h-70zM331 896h92l-118 -133h-70z" />
    <glyph glyph-name="uhungarumlaut" unicode="&#x171;" horiz-adv-x="612" 
d="M526 483v-483h-72v74q-14 -16 -33 -31.5t-43.5 -27.5t-53.5 -19.5t-63 -7.5q-92 0 -138 53.5t-46 147.5v294h72v-278q0 -48 13 -77t33.5 -45t44.5 -21.5t46 -5.5q25 0 50.5 8.5t48 23t40.5 32.5t29 37v326h72zM436 710h91l-117 -134h-70zM263 710h92l-117 -134h-70z" />
    <glyph glyph-name="Uogonek" unicode="&#x172;" horiz-adv-x="748" 
d="M490 -189q-54 0 -83 28.5t-29 70.5q0 26 9.5 46.5t20.5 34.5q-8 -2 -17 -2.5t-17 -0.5q-62 0 -114.5 20t-90.5 59t-59.5 97t-21.5 134v402h74v-403q0 -116 58 -178t154 -62t154 62t58 178v403h74v-402q0 -102 -36.5 -168t-110.5 -110q-15 -9 -29.5 -18.5t-26 -21.5
t-18.5 -26t-7 -31q0 -29 19 -47t50 -18q12 0 21 2t19 5v-48q-8 -2 -20.5 -4t-30.5 -2z" />
    <glyph glyph-name="uogonek" unicode="&#x173;" horiz-adv-x="612" 
d="M547 -195q-54 0 -83 28.5t-29 70.5q0 34 14.5 59t25.5 37h-21v74q-14 -16 -33 -31.5t-43.5 -27.5t-53.5 -19.5t-63 -7.5q-92 0 -138 53.5t-46 147.5v294h72v-278q0 -48 13 -77t33.5 -45t44.5 -21.5t46 -5.5q25 0 50.5 8.5t48 23t40.5 32.5t29 37v326h72v-483
q-11 -12 -24 -33.5t-13 -49.5q0 -29 19 -47t50 -18q12 0 21 2t19 5v-48q-8 -2 -20.5 -4t-30.5 -2z" />
    <glyph glyph-name="Wcircumflex" unicode="&#x174;" horiz-adv-x="1053" 
d="M39 700h82l195 -583l181 586h60l182 -586l194 583h80l-241 -704h-65l-180 578l-181 -578h-65zM490 896h72l111 -133h-71l-76 92l-76 -92h-71z" />
    <glyph glyph-name="wcircumflex" unicode="&#x175;" horiz-adv-x="827" 
d="M38 483h74l135 -376l132 378h61l133 -378l134 376h73l-173 -486h-63l-136 379l-134 -379h-63zM374 710h73l110 -134h-71l-77 92l-76 -92h-71z" />
    <glyph glyph-name="Ycircumflex" unicode="&#x176;" horiz-adv-x="664" 
d="M295 321l-272 379h86l224 -310l224 310h84l-272 -378v-322h-74v321zM296 896h72l111 -133h-71l-76 92l-76 -92h-71z" />
    <glyph glyph-name="ycircumflex" unicode="&#x177;" horiz-adv-x="555" 
d="M112 -204q-23 0 -43.5 3t-33.5 11v67q15 -8 30.5 -12t35.5 -4q48 0 79.5 40.5t63.5 116.5l-215 465h80l171 -380l166 380h78l-239 -537q-31 -71 -72 -110.5t-101 -39.5zM245 710h73l110 -134h-71l-77 92l-76 -92h-71z" />
    <glyph glyph-name="Ydieresis" unicode="&#x178;" horiz-adv-x="664" 
d="M295 321l-272 379h86l224 -310l224 310h84l-272 -378v-322h-74v321zM188 828q0 20 13.5 33.5t33.5 13.5t33.5 -13.5t13.5 -33.5t-13.5 -33.5t-33.5 -13.5t-33.5 13.5t-13.5 33.5zM388 828q0 20 13.5 33.5t33.5 13.5t33.5 -13.5t13.5 -33.5t-13.5 -33.5t-33.5 -13.5
t-33.5 13.5t-13.5 33.5z" />
    <glyph glyph-name="Zacute" unicode="&#x179;" horiz-adv-x="642" 
d="M49 53l429 580h-405v67h504v-52l-425 -581h441v-67h-544v53zM366 896h92l-118 -133h-69z" />
    <glyph glyph-name="zacute" unicode="&#x17a;" horiz-adv-x="504" 
d="M38 48l308 372h-287v63h390v-50l-307 -370h323v-63h-427v48zM287 710h92l-118 -134h-70z" />
    <glyph glyph-name="Zdotaccent" unicode="&#x17b;" horiz-adv-x="642" 
d="M49 53l429 580h-405v67h504v-52l-425 -581h441v-67h-544v53zM274 827q0 20 13.5 33.5t33.5 13.5t33.5 -13.5t13.5 -33.5t-13.5 -33.5t-33.5 -13.5t-33.5 13.5t-13.5 33.5z" />
    <glyph glyph-name="zdotaccent" unicode="&#x17c;" horiz-adv-x="504" 
d="M38 48l308 372h-287v63h390v-50l-307 -370h323v-63h-427v48zM205 646q0 20 13.5 33.5t33.5 13.5t33.5 -13.5t13.5 -33.5t-13.5 -33.5t-33.5 -13.5t-33.5 13.5t-13.5 33.5z" />
    <glyph glyph-name="Zcaron" unicode="&#x17d;" horiz-adv-x="642" 
d="M49 53l429 580h-405v67h504v-52l-425 -581h441v-67h-544v53zM174 896h71l76 -91l77 91h70l-111 -133h-73z" />
    <glyph glyph-name="zcaron" unicode="&#x17e;" horiz-adv-x="504" 
d="M38 48l308 372h-287v63h390v-50l-307 -370h323v-63h-427v48zM103 710h72l75 -92l77 92h70l-111 -134h-73z" />
    <glyph glyph-name="longs" unicode="&#x17f;" horiz-adv-x="343" 
d="M123 0v420h-96v63h96v81q0 65 34.5 104.5t103.5 39.5q29 0 54 -4t48 -15v-66q-17 8 -37.5 14t-46.5 6q-42 0 -63 -24t-21 -69v-550h-72z" />
    <glyph glyph-name="florin" unicode="&#x192;" horiz-adv-x="523" 
d="M26 -204q-23 0 -45 4t-40 13v65q17 -8 35 -12.5t37 -4.5q55 0 89.5 37t45.5 108l50 333h-128v63h139l18 115q14 88 59 139.5t132 51.5q24 0 46 -4t41 -12v-66q-17 8 -35.5 12.5t-38.5 4.5q-54 0 -87 -31t-46 -110l-16 -100h160v-63h-170l-54 -350q-6 -40 -20.5 -75
t-38 -61.5t-56.5 -41.5t-77 -15z" />
    <glyph glyph-name="uni0218" unicode="&#x218;" horiz-adv-x="627" 
d="M307 -12q-82 0 -150 22t-109 52v83q18 -16 45 -31.5t60 -28t71 -20.5t78 -8t74.5 9t60 26t40 41.5t14.5 55.5q0 34 -15.5 57t-42.5 38.5t-63 27t-76 23.5q-48 13 -90.5 27.5t-74 36t-49.5 53t-18 79.5q0 38 16 71t46.5 57.5t75.5 38.5t104 14q65 0 120.5 -16t97.5 -42
v-76q-43 27 -98.5 46t-117.5 19q-45 0 -77 -9.5t-52.5 -25.5t-30 -36.5t-9.5 -42.5q0 -32 16.5 -52.5t44 -34.5t63 -24t73.5 -21q42 -13 84 -28t75 -38.5t53.5 -57t20.5 -83.5q0 -49 -21 -87t-57 -63.5t-83 -38.5t-99 -13zM285 -54h75l-74 -177h-57z" />
    <glyph glyph-name="uni0219" unicode="&#x219;" horiz-adv-x="509" 
d="M249 -12q-64 0 -118 15.5t-82 34.5v74q13 -9 32.5 -19t45 -19t56 -15t64.5 -6q62 0 97.5 20.5t35.5 56.5q0 21 -12 34.5t-33 22t-48.5 14.5t-57.5 14q-38 10 -69.5 21.5t-53.5 28t-34 40t-12 56.5q0 61 50 97.5t144 36.5q48 0 96 -11.5t80 -31.5v-71q-33 20 -78.5 34.5
t-94.5 14.5q-65 0 -94.5 -20.5t-29.5 -50.5q0 -21 12.5 -35t33.5 -23t47 -15t53 -12q35 -8 66.5 -19t55.5 -27.5t38.5 -40.5t14.5 -58q0 -33 -15.5 -59.5t-43 -44.5t-65 -27.5t-81.5 -9.5zM228 -54h75l-74 -177h-57z" />
    <glyph glyph-name="uni021A" unicode="&#x21a;" horiz-adv-x="630" 
d="M277 633h-241v67h559v-67h-244v-633h-74v633zM277 -54h75l-74 -177h-57z" />
    <glyph glyph-name="uni021B" unicode="&#x21b;" horiz-adv-x="430" 
d="M277 -12q-36 0 -62 11.5t-42.5 31.5t-24 47t-7.5 59v283h-114v63h114v149h72v-149h169v-63h-169v-261q0 -57 19.5 -80t64.5 -23q26 0 46 6t33 14v-66q-14 -10 -42.5 -16t-56.5 -6zM240 -54h75l-74 -177h-57z" />
    <glyph glyph-name="circumflex" unicode="&#x2c6;" horiz-adv-x="532" 
d="M231 710h73l110 -134h-71l-77 92l-76 -92h-71z" />
    <glyph glyph-name="caron" unicode="&#x2c7;" horiz-adv-x="498" 
d="M102 710h72l75 -92l77 92h70l-111 -134h-73z" />
    <glyph glyph-name="uni02C9" unicode="&#x2c9;" horiz-adv-x="516" 
d="M93 671h331v-53h-331v53z" />
    <glyph glyph-name="breve" unicode="&#x2d8;" horiz-adv-x="506" 
d="M252 570q-29 0 -54 10.5t-43.5 29t-29.5 44t-12 56.5h57q1 -37 24 -61.5t58 -24.5t57.5 24.5t23.5 61.5h57q-1 -31 -12.5 -56.5t-30 -44t-43.5 -29t-52 -10.5z" />
    <glyph glyph-name="dotaccent" unicode="&#x2d9;" horiz-adv-x="545" 
d="M225 646q0 20 13.5 33.5t33.5 13.5t33.5 -13.5t13.5 -33.5t-13.5 -33.5t-33.5 -13.5t-33.5 13.5t-13.5 33.5z" />
    <glyph glyph-name="ring" unicode="&#x2da;" horiz-adv-x="538" 
d="M263 742q40 0 68 -28t28 -68t-28 -68t-68 -28t-68 28t-28 68t28 68t68 28zM263 590q24 0 40 16.5t16 39.5q0 24 -16 40t-40 16q-23 0 -39.5 -16t-16.5 -40q0 -23 16.5 -39.5t39.5 -16.5z" />
    <glyph glyph-name="ogonek" unicode="&#x2db;" horiz-adv-x="513" 
d="M308 -189q-54 0 -83 28.5t-29 70.5q0 34 14.5 59t25.5 37h51q-11 -12 -24 -33.5t-13 -49.5q0 -29 19 -47t50 -18q12 0 21 2t19 5v-48q-8 -2 -20.5 -4t-30.5 -2z" />
    <glyph glyph-name="tilde" unicode="&#x2dc;" horiz-adv-x="519" 
d="M329 589q-20 0 -38.5 8.5t-36 19t-33 19.5t-30.5 9q-21 0 -30 -16t-11 -36h-49q2 47 25 78.5t62 31.5q20 0 38.5 -9t36 -19.5t33.5 -19t30 -8.5q22 0 29.5 16t11.5 36h49q-1 -48 -24 -79t-63 -31z" />
    <glyph glyph-name="hungarumlaut" unicode="&#x2dd;" horiz-adv-x="574" 
d="M380 710h91l-117 -134h-70zM207 710h92l-117 -134h-70z" />
    <glyph glyph-name="acutecomb" unicode="&#x301;" horiz-adv-x="20" 
d="M-223 710h92l-118 -134h-70z" />
    <glyph glyph-name="uni037E" unicode="&#x37e;" horiz-adv-x="242" 
d="M95 103h84l-106 -255h-58zM81 418q0 22 15 37t37 15t37 -15t15 -37t-15 -37t-37 -15t-37 15t-15 37z" />
    <glyph glyph-name="uni0394" unicode="&#x394;" horiz-adv-x="753" 
d="M342 700h69l313 -700h-694zM618 67l-242 540l-242 -540h484z" />
    <glyph glyph-name="uni03A9" unicode="&#x3a9;" horiz-adv-x="804" 
d="M102 67h117q-24 24 -46 56.5t-38.5 71t-26 82.5t-9.5 91q0 73 21.5 136t61.5 109.5t95.5 72.5t124.5 26t124.5 -26t95.5 -72.5t61.5 -109.5t21.5 -136q0 -47 -9.5 -91t-26 -82.5t-38.5 -71t-47 -56.5h117v-67h-208v57q26 22 51 53t44 69.5t30.5 83.5t11.5 94
q0 63 -17 116t-47.5 90.5t-72.5 58.5t-91 21q-50 0 -91.5 -21t-72.5 -58.5t-48 -90.5t-17 -116q0 -49 11.5 -94t30.5 -83.5t44 -69.5t51 -53v-57h-208v67z" />
    <glyph glyph-name="uni03BC" unicode="&#x3bc;" horiz-adv-x="619" 
d="M534 483v-483h-72v74q-14 -16 -33 -31.5t-43.5 -27.5t-53.5 -19.5t-63 -7.5q-35 0 -62.5 8t-49.5 22v-218h-72v683h72v-278q0 -48 13 -77t33.5 -45t44.5 -21.5t46 -5.5q25 0 50.5 8.5t48 23t40.5 32.5t29 37v326h72z" />
    <glyph glyph-name="pi" unicode="&#x3c0;" horiz-adv-x="685" 
d="M564 -6q-22 0 -42 6.5t-35 21.5t-24 40t-9 63v295h-248v-420h-72v420h-93v63h583v-63h-98v-274q0 -47 13.5 -67t44.5 -20q23 0 40 10v-61q-14 -8 -29.5 -11t-30.5 -3z" />
    <glyph glyph-name="uni0401" unicode="&#x401;" horiz-adv-x="640" 
d="M99 700h480v-67h-406v-224h333v-67h-333v-275h421v-67h-495v700zM200 828q0 20 13.5 33.5t33.5 13.5t33.5 -13.5t13.5 -33.5t-13.5 -33.5t-33.5 -13.5t-33.5 13.5t-13.5 33.5zM400 828q0 20 13.5 33.5t33.5 13.5t33.5 -13.5t13.5 -33.5t-13.5 -33.5t-33.5 -13.5
t-33.5 13.5t-13.5 33.5z" />
    <glyph glyph-name="uni0402" unicode="&#x402;" horiz-adv-x="757" 
d="M490 -10q-36 0 -61 4t-45 12v68q17 -6 42.5 -11.5t54.5 -5.5q72 0 113.5 39t41.5 103q0 29 -12 56t-35 47.5t-57.5 33t-79.5 12.5q-51 0 -98 -10t-94 -34v-304h-74v633h-150v67h486v-67h-262v-258q45 20 93.5 31t108.5 11q55 0 101 -16t78 -45.5t50 -69.5t18 -88
q0 -45 -15 -83t-43.5 -66t-69 -43.5t-91.5 -15.5z" />
    <glyph glyph-name="uni0403" unicode="&#x403;" horiz-adv-x="605" 
d="M99 700h469v-67h-395v-633h-74v700zM370 896h92l-118 -133h-69z" />
    <glyph glyph-name="uni0404" unicode="&#x404;" horiz-adv-x="688" 
d="M428.016 -12q60.9961 0 114.493 15t95.4941 46v78q-42.9971 -35 -93.9941 -52.5t-115.993 -17.5q-55.9961 0 -104.993 20t-86.4951 55.5q-37.4971 35.5 -60.4961 84.5t-25.998 107h327.979v67h-324.98q5 55 28.499 101.5q23.498 46.5 59.9961 80t83.4951 52t100.993 18.5
q58.9971 0 106.494 -16t89.4941 -43v76q-41.9971 26 -90.9941 39t-102.994 13q-75.9951 0 -141.491 -27.5t-113.493 -76t-75.4951 -115t-27.498 -143.5t27.498 -143.5t75.4951 -115t113.493 -76t141.491 -27.5z" />
    <glyph glyph-name="uni0405" unicode="&#x405;" horiz-adv-x="626" 
d="M307 -12q-82 0 -150 22t-109 52v83q18 -16 45 -31.5t60 -28t71 -20.5t78 -8t74.5 9t60 26t40 41.5t14.5 55.5q0 34 -15.5 57t-42.5 38.5t-63 27t-76 23.5q-48 13 -90.5 27.5t-74 36t-49.5 53t-18 79.5q0 38 16 71t46.5 57.5t75.5 38.5t104 14q65 0 120.5 -16t97.5 -42
v-76q-43 27 -98.5 46t-117.5 19q-45 0 -77 -9.5t-52.5 -25.5t-30 -36.5t-9.5 -42.5q0 -32 16.5 -52.5t44 -34.5t63 -24t73.5 -21q42 -13 84 -28t75 -38.5t53.5 -57t20.5 -83.5q0 -49 -21 -87t-57 -63.5t-83 -38.5t-99 -13z" />
    <glyph glyph-name="uni0406" unicode="&#x406;" horiz-adv-x="281" 
d="M104 700h74v-700h-74v700z" />
    <glyph glyph-name="uni0407" unicode="&#x407;" horiz-adv-x="280" 
d="M103 700h74v-700h-74v700zM-6 828q0 20 13.5 33.5t33.5 13.5t33.5 -13.5t13.5 -33.5t-13.5 -33.5t-33.5 -13.5t-33.5 13.5t-13.5 33.5zM194 828q0 20 13.5 33.5t33.5 13.5t33.5 -13.5t13.5 -33.5t-13.5 -33.5t-33.5 -13.5t-33.5 13.5t-13.5 33.5z" />
    <glyph glyph-name="uni0408" unicode="&#x408;" horiz-adv-x="507" 
d="M196 -12q-43 0 -85 10.5t-75 34.5v77q28 -25 67 -39t80 -14q81 0 121 40.5t40 128.5v474h74v-487q0 -59 -16 -101.5t-45.5 -70t-70.5 -40.5t-90 -13z" />
    <glyph glyph-name="uni0409" unicode="&#x409;" horiz-adv-x="1113" 
d="M809 67q87 0 134.5 39.5t47.5 112.5q0 74 -47.5 113.5t-134.5 39.5h-189v-305h189zM620 700v-261h194q60 0 106.5 -16.5t79 -45.5t49 -69.5t16.5 -88.5t-16.5 -88.5t-49 -69.5t-79 -45t-106.5 -16h-268v633h-282l-5 -160q-3 -113 -13 -201t-33.5 -148.5t-64.5 -92.5
t-107 -32h-14t-14 1v68q6 -2 14 -2h14q48 0 76.5 34.5t43.5 96t20.5 146.5t7.5 185l3 172h428z" />
    <glyph glyph-name="uni040A" unicode="&#x40a;" horiz-adv-x="1136" 
d="M99 700h74v-261h396v261h74v-261h194q60 0 106.5 -16.5t79 -45.5t49 -69.5t16.5 -88.5t-16.5 -88.5t-49 -69.5t-79 -45t-106.5 -16h-268v372h-396v-372h-74v700zM832 67q88 0 135 39.5t47 112.5q0 74 -47 113.5t-135 39.5h-189v-305h189z" />
    <glyph glyph-name="uni040B" unicode="&#x40b;" horiz-adv-x="779" 
d="M186 633h-150v67h486v-67h-262v-253q45 16 94 26.5t110 10.5q57 0 102 -11t77 -36.5t49 -66.5t17 -101v-202h-74v185q0 47 -11 78.5t-34 50t-58.5 26.5t-83.5 8q-51 0 -98.5 -10.5t-89.5 -29.5v-308h-74v633z" />
    <glyph glyph-name="uni040C" unicode="&#x40c;" horiz-adv-x="661" 
d="M173 396l324 304h98l-344 -320l397 -380h-104l-371 356v-356h-74v700h74v-304zM370 896h92l-118 -133h-69z" />
    <glyph glyph-name="uni040E" unicode="&#x40e;" horiz-adv-x="646" 
d="M177 -12q-24 0 -46 3t-42 11v69q19 -8 39.5 -11t36.5 -3q27 0 47.5 11.5t37 31t30 45t27.5 52.5l-282 503h82l236 -427l197 427h79l-258 -552q-22 -47 -44 -77.5t-45 -49t-47 -26t-48 -7.5zM323 749q-75 0 -120.5 41t-46.5 111h64q0 -41 27.5 -67.5t75.5 -26.5
q46 0 73 26.5t28 67.5h64q0 -35 -13 -63t-35 -48t-52 -30.5t-65 -10.5z" />
    <glyph glyph-name="uni040F" unicode="&#x40f;" horiz-adv-x="741" 
d="M335 0h-236v700h74v-633h396v633h74v-700h-238v-156h-70v156z" />
    <glyph glyph-name="uni0410" unicode="&#x410;" horiz-adv-x="753" 
d="M342 704h69l313 -704h-78l-87 193h-367l-85 -193h-77zM535 258l-159 353l-159 -353h318z" />
    <glyph glyph-name="uni0411" unicode="&#x411;" horiz-adv-x="697" 
d="M99 700h478v-67h-404v-198h212q60 0 106 -16t77.5 -45t48 -69t16.5 -88t-16.5 -88t-48 -68.5t-77.5 -44.5t-106 -16h-286v700zM378 67q86 0 133.5 39t47.5 112q0 72 -47.5 111t-133.5 39h-205v-301h205z" />
    <glyph glyph-name="uni0412" unicode="&#x412;" horiz-adv-x="726" 
d="M99 700h303q94 0 147.5 -45t53.5 -125q0 -57 -25 -94.5t-67 -53.5q69 -11 110.5 -60t41.5 -127q0 -44 -15.5 -79.5t-45 -61.5t-72.5 -40t-97 -14h-334v700zM420 67q78 0 121 35.5t43 101.5q0 65 -43 100t-121 35h-247v-272h247zM390 404q67 0 103.5 29t36.5 84
q0 57 -36.5 86.5t-103.5 29.5h-217v-229h217z" />
    <glyph glyph-name="uni0413" unicode="&#x413;" horiz-adv-x="605" 
d="M99 700h469v-67h-395v-633h-74v700z" />
    <glyph glyph-name="uni0414" unicode="&#x414;" horiz-adv-x="776" 
d="M17 67h66q30 43 53 92.5t38.5 113t23 147t7.5 196.5v84h432v-633h106v-223h-69v156h-588v-156h-69v223zM563 67v566h-285v-47q0 -176 -25.5 -303.5t-86.5 -215.5h397z" />
    <glyph glyph-name="uni0415" unicode="&#x415;" horiz-adv-x="640" 
d="M99 700h480v-67h-406v-224h333v-67h-333v-275h421v-67h-495v700z" />
    <glyph glyph-name="uni0416" unicode="&#x416;" horiz-adv-x="987" 
d="M455 389v311h74v-313l295 313h94l-314 -332l354 -368h-99l-330 344v-344h-74v342l-328 -342h-98l353 368l-314 332h94z" />
    <glyph glyph-name="uni0417" unicode="&#x417;" horiz-adv-x="626" 
d="M281 -12q-79 0 -136 15t-100 39v76q22 -13 48.5 -24t55.5 -19.5t60 -13t61 -4.5q101 0 159 40.5t58 108.5q0 30 -13.5 55.5t-39 44t-61.5 29t-81 10.5h-86v67h94q74 0 115.5 30.5t41.5 85.5q0 28 -13 49.5t-36 36t-54 22t-68 7.5q-64 0 -116.5 -15.5t-91.5 -33.5v70
q38 17 89.5 32.5t121.5 15.5q52 0 96 -12.5t76 -35.5t50.5 -56.5t18.5 -75.5q0 -35 -12 -61t-29 -44t-37 -29t-36 -16q23 -7 49 -21t47.5 -36t36 -52.5t14.5 -71.5q0 -45 -19 -84t-55 -67.5t-88.5 -45t-119.5 -16.5z" />
    <glyph glyph-name="uni0418" unicode="&#x418;" horiz-adv-x="770" 
d="M99 700h73v-576l435 576h65v-700h-73v578l-438 -578h-62v700z" />
    <glyph glyph-name="uni0419" unicode="&#x419;" horiz-adv-x="770" 
d="M99 700h73v-576l435 576h65v-700h-73v578l-438 -578h-62v700zM385 749q-75 0 -120.5 41t-46.5 111h64q0 -41 27.5 -67.5t75.5 -26.5q46 0 73 26.5t28 67.5h64q0 -35 -13 -63t-35 -48t-52 -30.5t-65 -10.5z" />
    <glyph glyph-name="uni041A" unicode="&#x41a;" horiz-adv-x="661" 
d="M173 396l324 304h98l-344 -320l397 -380h-104l-371 356v-356h-74v700h74v-304z" />
    <glyph glyph-name="uni041B" unicode="&#x41b;" horiz-adv-x="728" 
d="M13 68q6 -2 14 -2h14q47 0 75 33.5t43.5 92.5t21 140t7.5 177l4 191h438v-700h-74v633h-292l-5 -160q-3 -113 -13 -201t-33.5 -148.5t-64.5 -92.5t-107 -32h-14t-14 1v68z" />
    <glyph glyph-name="uni041C" unicode="&#x41c;" horiz-adv-x="848" 
d="M99 700h73l253 -339l253 339h72v-700h-73v588l-229 -306h-45l-231 306v-588h-73v700z" />
    <glyph glyph-name="uni041D" unicode="&#x41d;" horiz-adv-x="761" 
d="M99 700h74v-291h416v291h74v-700h-74v342h-416v-342h-74v700z" />
    <glyph glyph-name="uni041E" unicode="&#x41e;" horiz-adv-x="845" 
d="M422 712q75 0 139.5 -27.5t112 -76t74 -115t26.5 -143.5t-26.5 -143.5t-74 -115t-112 -76t-139.5 -27.5t-139.5 27.5t-112 76t-74 115t-26.5 143.5t26.5 143.5t74 115t112 76t139.5 27.5zM422 57q58 0 108.5 22t88 61.5t59 93t21.5 116.5t-21.5 116.5t-59 93t-88 61.5
t-108.5 22t-108.5 -22t-88 -61.5t-59 -93t-21.5 -116.5t21.5 -116.5t59 -93t88 -61.5t108.5 -22z" />
    <glyph glyph-name="uni041F" unicode="&#x41f;" horiz-adv-x="746" 
d="M99 700h549v-700h-74v633h-401v-633h-74v700z" />
    <glyph glyph-name="uni0420" unicode="&#x420;" horiz-adv-x="665" 
d="M99 700h294q54 0 95.5 -14.5t70 -40t43.5 -61t15 -78.5q0 -44 -15 -80t-43.5 -62t-70 -40.5t-95.5 -14.5h-220v-309h-74v700zM388 376q74 0 115 33t41 95q0 63 -41 96t-115 33h-215v-257h215z" />
    <glyph glyph-name="uni0421" unicode="&#x421;" horiz-adv-x="690" 
d="M429 -12q-76 0 -141.5 26.5t-114 74.5t-76 114.5t-27.5 146.5q0 79 27.5 145.5t75.5 114.5t113.5 75t142.5 27q56 0 104.5 -12.5t91.5 -39.5v-76q-43 28 -90 43.5t-105 15.5q-60 0 -112 -22t-90.5 -61t-60.5 -93t-22 -117q0 -64 22 -117.5t61 -92.5t91.5 -61t112.5 -22
q121 0 208 70v-77q-42 -31 -95.5 -46.5t-115.5 -15.5z" />
    <glyph glyph-name="uni0422" unicode="&#x422;" horiz-adv-x="630" 
d="M277 633h-241v67h559v-67h-244v-633h-74v633z" />
    <glyph glyph-name="uni0423" unicode="&#x423;" horiz-adv-x="646" 
d="M177 -12q-24 0 -46 3t-42 11v69q19 -8 39.5 -11t36.5 -3q27 0 47.5 11.5t37 31t30 45t27.5 52.5l-282 503h82l236 -427l197 427h79l-258 -552q-22 -47 -44 -77.5t-45 -49t-47 -26t-48 -7.5z" />
    <glyph glyph-name="uni0424" unicode="&#x424;" horiz-adv-x="912" 
d="M418 51q-91 1 -156.5 27t-108 67.5t-63 95t-20.5 110.5t20.5 111t63 96t108 68t156.5 28v64h74v-64q91 -2 156.5 -27.5t108.5 -67.5t63.5 -96t20.5 -111t-20.5 -110.5t-63.5 -95.5t-108.5 -68t-156.5 -27v-72h-74v72zM418 587q-74 0 -126 -20.5t-84.5 -53.5t-47 -75.5
t-14.5 -85.5q0 -44 14.5 -85.5t47 -74.5t84.5 -53t126 -21v469zM492 118q75 1 127 21t84.5 53t47 74.5t14.5 85.5q0 43 -14.5 85.5t-47 75.5t-84.5 53.5t-127 20.5v-469z" />
    <glyph glyph-name="uni0425" unicode="&#x425;" horiz-adv-x="708" 
d="M310 380l-235 320h87l193 -260l194 260h85l-235 -319l281 -381h-88l-238 321l-238 -321h-87z" />
    <glyph glyph-name="uni0426" unicode="&#x426;" horiz-adv-x="781" 
d="M680 0h-581v700h74v-633h396v633h74v-633h105v-223h-68v156z" />
    <glyph glyph-name="uni0427" unicode="&#x427;" horiz-adv-x="691" 
d="M519 315q-45 -17 -94 -27t-110 -10q-56 0 -101.5 11t-77.5 36.5t-49 66.5t-17 101v207h74v-188q0 -47 11 -79t34 -51t58.5 -27t83.5 -8q51 0 98 11t90 30v312h74v-700h-74v315z" />
    <glyph glyph-name="uni0428" unicode="&#x428;" horiz-adv-x="1021" 
d="M923 0h-824v700h74v-633h301v633h74v-633h301v633h74v-700z" />
    <glyph glyph-name="uni0429" unicode="&#x429;" horiz-adv-x="1062" 
d="M959 0h-860v700h74v-633h301v633h74v-633h301v633h74v-633h106v-223h-70v156z" />
    <glyph glyph-name="uni042A" unicode="&#x42a;" horiz-adv-x="791" 
d="M209 633h-192v67h266v-261h209q60 0 106.5 -16.5t79 -45.5t49 -69.5t16.5 -88.5t-16.5 -88.5t-49 -69.5t-79 -45t-106.5 -16h-283v633zM487 67q87 0 134.5 39.5t47.5 112.5q0 74 -47.5 113.5t-134.5 39.5h-204v-305h204z" />
    <glyph glyph-name="uni042B" unicode="&#x42b;" horiz-adv-x="887" 
d="M715 700h74v-700h-74v700zM99 700h74v-261h184q60 0 106.5 -16.5t79 -45.5t49 -69.5t16.5 -88.5t-16.5 -88.5t-49 -69.5t-79 -45t-106.5 -16h-258v700zM352 67q87 0 134.5 39.5t47.5 112.5q0 74 -47.5 113.5t-134.5 39.5h-179v-305h179z" />
    <glyph glyph-name="uni042C" unicode="&#x42c;" horiz-adv-x="681" 
d="M99 700h74v-261h209q60 0 106.5 -16.5t79 -45.5t49 -69.5t16.5 -88.5t-16.5 -88.5t-49 -69.5t-79 -45t-106.5 -16h-283v700zM377 67q87 0 134.5 39.5t47.5 112.5q0 74 -47.5 113.5t-134.5 39.5h-204v-305h204z" />
    <glyph glyph-name="uni042D" unicode="&#x42d;" horiz-adv-x="689" 
d="M260 -12q-61 0 -114.5 15t-95.5 46v78q43 -35 94 -52.5t116 -17.5q56 0 105 20t86.5 55.5t60.5 84.5t26 107h-328v67h325q-5 55 -28.5 101.5t-60 80t-83.5 52t-101 18.5q-59 0 -106.5 -16t-89.5 -43v76q42 26 91 39t103 13q76 0 141.5 -27.5t113.5 -76t75.5 -115
t27.5 -143.5t-27.5 -143.5t-75.5 -115t-113.5 -76t-141.5 -27.5z" />
    <glyph glyph-name="uni042E" unicode="&#x42e;" horiz-adv-x="1043" 
d="M644 -12q-68 0 -126 25.5t-101.5 70.5t-70 106.5t-30.5 133.5h-143v-324h-74v700h74v-309h144q7 69 34 127.5t70.5 101.5t100 67.5t122.5 24.5q71 0 131 -27.5t104 -76.5t68.5 -115t24.5 -143t-24.5 -143t-68.5 -115t-104 -76.5t-131 -27.5zM644 57q52 0 98.5 20.5
t80.5 59t54 92.5t20 121t-20 121t-54 92.5t-80.5 59t-98.5 20.5q-53 0 -99 -20.5t-80.5 -59t-54.5 -92.5t-20 -121t20 -121t54.5 -92.5t80.5 -59t99 -20.5z" />
    <glyph glyph-name="uni042F" unicode="&#x42f;" horiz-adv-x="736" 
d="M269 322q-80 14 -122.5 64t-42.5 124q0 85 57 137.5t163 52.5h314v-700h-74v315h-214l-221 -315h-86zM564 382v251h-235q-72 0 -112 -33t-40 -93q0 -61 40 -93t112 -32h235z" />
    <glyph glyph-name="uni0430" unicode="&#x430;" horiz-adv-x="594" 
d="M248 53q28 0 53 7t47 18.5t39 26t29 29.5v67q-26 17 -66.5 32.5t-90.5 15.5q-66 0 -104.5 -26t-38.5 -71q0 -26 11 -45t29.5 -31t42 -17.5t49.5 -5.5zM228 -12q-36 0 -69.5 10.5t-59 30.5t-40.5 50t-15 69q0 38 15.5 68t42.5 50.5t63 31t77 10.5q61 0 103.5 -15t70.5 -32
v48q0 34 -12 57t-33 37t-50.5 20.5t-63.5 6.5q-48 0 -90.5 -16t-67.5 -33v70q24 15 67.5 29.5t105.5 14.5q46 0 85.5 -10.5t68.5 -32.5t45.5 -56t16.5 -80v-199q0 -29 12.5 -44.5t33.5 -15.5q16 0 28 6v-56q-8 -6 -22 -8.5t-26 -2.5q-32 0 -58.5 17.5t-32.5 59.5
q-29 -34 -77.5 -59.5t-117.5 -25.5z" />
    <glyph glyph-name="uni0431" unicode="&#x431;" horiz-adv-x="613" 
d="M321 -12q-62 0 -111 22.5t-82.5 64t-51 100.5t-17.5 133q0 77 14.5 133.5t41.5 97t66.5 68t89.5 46.5t110.5 32t129.5 26v-67q-21 -4 -38.5 -7.5t-35.5 -7t-38.5 -8t-46.5 -10.5q-51 -12 -91.5 -30.5t-69.5 -48.5t-45 -74.5t-19 -108.5q29 51 84.5 81.5t129.5 30.5
q47 0 87.5 -16.5t70.5 -46.5t47.5 -71.5t17.5 -91.5q0 -56 -19 -101.5t-52 -77.5t-77.5 -50t-94.5 -18zM321 53q34 0 65 12.5t54.5 36t37 56t13.5 72.5q0 39 -13.5 69.5t-36 52t-52.5 33t-64 11.5q-35 0 -65.5 -11.5t-55 -30t-43 -41.5t-28.5 -46q5 -100 52.5 -157
t135.5 -57z" />
    <glyph glyph-name="uni0432" unicode="&#x432;" horiz-adv-x="577" 
d="M85 483h254q73 0 109.5 -35t36.5 -88q0 -38 -16 -65.5t-44 -40.5q43 -13 67.5 -43.5t24.5 -80.5q0 -59 -41 -94.5t-120 -35.5h-271v483zM341 63q49 0 76 19.5t27 57.5t-27 58t-76 20h-184v-155h184zM319 278q45 0 70 18t25 53t-25 53t-70 18h-162v-142h162z" />
    <glyph glyph-name="uni0433" unicode="&#x433;" horiz-adv-x="484" 
d="M85 483h363v-63h-291v-420h-72v483z" />
    <glyph glyph-name="uni0434" unicode="&#x434;" horiz-adv-x="648" 
d="M22 63h61q38 51 59.5 135.5t22.5 216.5l1 68h359v-420h90v-206h-70v143h-454v-143h-69v206zM453 63v357h-220v-29q0 -119 -20.5 -200.5t-49.5 -127.5h290z" />
    <glyph glyph-name="uni0435" unicode="&#x435;" horiz-adv-x="571" 
d="M316 -12q-56 0 -104.5 18.5t-84.5 52t-56.5 80t-20.5 102.5q0 54 17.5 100t50 80.5t77.5 54t100 19.5q61 0 104 -24t70 -60.5t39.5 -81t12.5 -85.5v-20h-397q3 -39 19 -70.5t43 -54t63.5 -34.5t80.5 -12q46 0 85 12.5t70 32.5v-64q-26 -20 -71 -33t-98 -13zM448 283
q-1 23 -10 49t-27.5 47.5t-47.5 36t-71 14.5q-39 0 -69 -12.5t-51 -33.5t-33 -47.5t-14 -53.5h323z" />
    <glyph glyph-name="uni0436" unicode="&#x436;" horiz-adv-x="768" 
d="M347 277v206h72v-206l204 206h91l-226 -224l250 -259h-95l-224 234v-234h-72v234l-224 -234h-94l250 259l-227 224h91z" />
    <glyph glyph-name="uni0437" unicode="&#x437;" horiz-adv-x="524" 
d="M239 -12q-58 0 -102 9.5t-76 23.5v70q33 -16 76.5 -27t92.5 -11q72 0 115.5 22t43.5 67q0 41 -36 60.5t-95 19.5h-84v63h84q62 0 87.5 21t25.5 49q0 40 -38 57.5t-98 17.5q-44 0 -84 -9t-75 -24v67q71 31 173 31q41 0 76.5 -9t62 -25.5t41.5 -40t15 -52.5q0 -26 -7 -43.5
t-18.5 -30.5t-25.5 -21t-27 -14q19 -6 37 -15.5t31.5 -24.5t21.5 -35t8 -47q0 -33 -16 -60.5t-45 -47t-70.5 -30.5t-93.5 -11z" />
    <glyph glyph-name="uni0438" unicode="&#x438;" horiz-adv-x="618" 
d="M85 483h72v-377l309 377h67v-483h-72v376l-309 -376h-67v483z" />
    <glyph glyph-name="uni0439" unicode="&#x439;" horiz-adv-x="618" 
d="M85 483h72v-377l309 377h67v-483h-72v376l-309 -376h-67v483zM310 565q-73 0 -118 41t-46 111h64q0 -41 26.5 -67.5t72.5 -26.5q45 0 71.5 26.5t27.5 67.5h63q0 -35 -12.5 -63t-34.5 -48t-51 -30.5t-63 -10.5z" />
    <glyph glyph-name="uni043A" unicode="&#x43a;" horiz-adv-x="541" 
d="M157 284l230 199h98l-255 -218l291 -265h-103l-261 238v-238h-72v483h72v-199z" />
    <glyph glyph-name="uni043B" unicode="&#x43b;" horiz-adv-x="600" 
d="M21 66q5 -1 10 -1h9q33 0 53.5 21.5t32.5 58t17 84t7 100.5l4 154h361v-483h-72v420h-220l-3 -93q-2 -57 -8 -115.5t-24.5 -105.5t-53 -77t-92.5 -30h-10t-11 1v66z" />
    <glyph glyph-name="uni043C" unicode="&#x43c;" horiz-adv-x="697" 
d="M85 483h70l193 -224l194 224h70v-483h-70v384l-180 -209h-28l-179 209v-384h-70v483z" />
    <glyph glyph-name="uni043D" unicode="&#x43d;" horiz-adv-x="611" 
d="M85 483h72v-203h297v203h72v-483h-72v215h-297v-215h-72v483z" />
    <glyph glyph-name="uni043E" unicode="&#x43e;" horiz-adv-x="621" 
d="M311 495q59 0 107 -20.5t82.5 -55.5t53 -81t18.5 -97t-18.5 -97t-53 -80.5t-82.5 -55t-107 -20.5t-107 20.5t-82.5 55t-53 80.5t-18.5 97t18.5 97t53 81t82.5 55.5t107 20.5zM311 53q40 0 74.5 14.5t59.5 40t39 59.5t14 74t-14 74.5t-39 60t-59.5 40t-74.5 14.5
q-41 0 -75 -14.5t-59 -40t-39 -60t-14 -74.5t14 -74t39 -59.5t59 -40t75 -14.5z" />
    <glyph glyph-name="uni043F" unicode="&#x43f;" horiz-adv-x="604" 
d="M85 483h434v-483h-72v420h-290v-420h-72v483z" />
    <glyph glyph-name="uni0440" unicode="&#x440;" horiz-adv-x="636" 
d="M85 -200v683h72v-77q28 37 75 63t112 26q55 0 99.5 -20.5t76.5 -55t49.5 -80.5t17.5 -97t-17.5 -97.5t-49.5 -81t-76.5 -55t-99.5 -20.5q-65 0 -112 26t-75 63v-277h-72zM157 162q21 -47 67 -78t103 -31q40 0 74.5 14.5t59 40t38.5 60t14 74.5t-14 74t-38.5 59.5t-59 40
t-74.5 14.5q-28 0 -54 -8.5t-48.5 -23t-40 -34.5t-27.5 -43v-159z" />
    <glyph glyph-name="uni0441" unicode="&#x441;" horiz-adv-x="524" 
d="M307 -12q-55 0 -102 19.5t-81.5 53.5t-54 80.5t-19.5 100.5t19.5 100.5t54 80t82 53t102.5 19.5q44 0 79.5 -9t66.5 -26v-67q-66 37 -136 37q-41 0 -76.5 -14t-61.5 -39t-41 -60t-15 -76t15 -75.5t41 -59.5t61.5 -39t76.5 -14q43 0 78.5 11t66.5 31v-66q-68 -41 -156 -41
z" />
    <glyph glyph-name="uni0442" unicode="&#x442;" horiz-adv-x="474" 
d="M201 420h-175v63h422v-63h-175v-420h-72v420z" />
    <glyph glyph-name="uni0443" unicode="&#x443;" horiz-adv-x="555" 
d="M112 -204q-23 0 -43.5 3t-33.5 11v67q15 -8 30.5 -12t35.5 -4q48 0 79.5 40.5t63.5 116.5l-215 465h80l171 -380l166 380h78l-239 -537q-31 -71 -72 -110.5t-101 -39.5z" />
    <glyph glyph-name="uni0444" unicode="&#x444;" horiz-adv-x="727" 
d="M400 700v-209q65 -2 116.5 -20.5t87.5 -51t55 -78t19 -100.5t-19 -100t-55 -77.5t-87.5 -51t-116.5 -20.5v-192h-72v192q-65 1 -116.5 19.5t-87.5 51.5t-55 78t-19 100t19 100.5t55 78t87.5 51t116.5 20.5v209h72zM607 241q0 45 -16 80t-44 59t-66 36t-81 12v-373
q43 0 81 12t66 35.5t44 58.5t16 80zM121 241q0 -45 16 -80t44 -58.5t65.5 -35.5t81.5 -12v373q-44 0 -81.5 -12t-65.5 -36t-44 -59t-16 -80z" />
    <glyph glyph-name="uni0445" unicode="&#x445;" horiz-adv-x="560" 
d="M236 255l-179 228h85l138 -172l138 172h84l-180 -226l203 -257h-85l-161 202l-163 -202h-83z" />
    <glyph glyph-name="uni0446" unicode="&#x446;" horiz-adv-x="638" 
d="M536 0h-451v483h72v-420h287v420h72v-420h89v-206h-69v143z" />
    <glyph glyph-name="uni0447" unicode="&#x447;" horiz-adv-x="563" 
d="M406 193q-35 -15 -75 -22.5t-74 -7.5q-48 0 -84.5 10.5t-61.5 33.5t-37.5 61t-12.5 94v121h72v-115q0 -39 7.5 -66t24 -43.5t43 -23.5t63.5 -7q29 0 67 8t68 24v223h72v-483h-72v193z" />
    <glyph glyph-name="uni0448" unicode="&#x448;" horiz-adv-x="827" 
d="M85 483h72v-420h220v420h72v-420h221v420h72v-483h-657v483z" />
    <glyph glyph-name="uni0449" unicode="&#x449;" horiz-adv-x="864" 
d="M766 0h-681v483h72v-420h220v420h72v-420h221v420h72v-420h89v-206h-65v143z" />
    <glyph glyph-name="uni044A" unicode="&#x44a;" horiz-adv-x="639" 
d="M164 420h-148v63h220v-162h169q87 0 135.5 -44t48.5 -116q0 -35 -11.5 -64t-34.5 -51t-57 -34t-78 -12h-244v420zM395 63q57 0 89 25.5t32 71.5q0 48 -32 73t-89 25h-159v-195h159z" />
    <glyph glyph-name="uni044B" unicode="&#x44b;" horiz-adv-x="722" 
d="M565 483h72v-483h-72v483zM85 483h72v-162h144q87 0 135.5 -44t48.5 -116q0 -35 -11.5 -64t-34.5 -51t-57 -34t-78 -12h-219v483zM291 63q57 0 89 25.5t32 71.5q0 48 -32 73t-89 25h-134v-195h134z" />
    <glyph glyph-name="uni044C" unicode="&#x44c;" horiz-adv-x="560" 
d="M85 483h72v-162h169q87 0 135.5 -44t48.5 -116q0 -35 -11.5 -64t-34.5 -51t-57 -34t-78 -12h-244v483zM316 63q57 0 89 25.5t32 71.5q0 48 -32 73t-89 25h-159v-195h159z" />
    <glyph glyph-name="uni044D" unicode="&#x44d;" horiz-adv-x="519" 
d="M214 -12q-87 0 -154 41v67q63 -43 145 -43q38 0 71.5 11.5t59 32.5t42 50t19.5 65h-233v63h233q-11 70 -63 112.5t-129 42.5q-35 0 -69 -9.5t-66 -26.5v67q30 17 65.5 25.5t78.5 8.5q55 0 102 -19.5t81 -53t53.5 -80t19.5 -100.5t-19.5 -100.5t-53.5 -80.5t-81 -53.5
t-102 -19.5z" />
    <glyph glyph-name="uni044E" unicode="&#x44e;" horiz-adv-x="804" 
d="M513 -12q-49 0 -90.5 17t-72.5 46.5t-50.5 70.5t-23.5 89h-119v-211h-72v483h72v-207h120q4 47 23.5 87t51 69.5t72.5 46t89 16.5q53 0 97.5 -19.5t76.5 -54t50 -80.5t18 -100q0 -53 -18 -99.5t-50 -80.5t-76.5 -53.5t-97.5 -19.5zM513 53q38 0 69.5 14.5t54 40t35 59.5
t12.5 74t-12.5 74.5t-35 60t-54 40t-69.5 14.5q-37 0 -68.5 -14.5t-54 -40t-35 -60t-12.5 -74.5t12.5 -74t35 -59.5t54 -40t68.5 -14.5z" />
    <glyph glyph-name="uni044F" unicode="&#x44f;" horiz-adv-x="576" 
d="M191 193q-60 11 -91 48t-31 95q0 31 10.5 57.5t32 46.5t54 31.5t76.5 11.5h249v-483h-72v180h-155l-135 -180h-82zM419 243v177h-166q-53 0 -81.5 -23t-28.5 -66t28.5 -65.5t81.5 -22.5h166z" />
    <glyph glyph-name="uni0451" unicode="&#x451;" horiz-adv-x="571" 
d="M316 -12q-56 0 -104.5 18.5t-84.5 52t-56.5 80t-20.5 102.5q0 54 17.5 100t50 80.5t77.5 54t100 19.5q61 0 104 -24t70 -60.5t39.5 -81t12.5 -85.5v-20h-397q3 -39 19 -70.5t43 -54t63.5 -34.5t80.5 -12q46 0 85 12.5t70 32.5v-64q-26 -20 -71 -33t-98 -13zM448 283
q-1 23 -10 49t-27.5 47.5t-47.5 36t-71 14.5q-39 0 -69 -12.5t-51 -33.5t-33 -47.5t-14 -53.5h323zM145 628q0 20 13.5 33.5t33.5 13.5t33.5 -13.5t13.5 -33.5t-13.5 -33.5t-33.5 -13.5t-33.5 13.5t-13.5 33.5zM345 628q0 20 13.5 33.5t33.5 13.5t33.5 -13.5t13.5 -33.5
t-13.5 -33.5t-33.5 -13.5t-33.5 13.5t-13.5 33.5z" />
    <glyph glyph-name="uni0452" unicode="&#x452;" horiz-adv-x="643" 
d="M118 0v557h-102v63h102v80h72v-80h143v-63h-143v-209q14 16 33 31.5t43.5 27.5t53.5 19.5t63 7.5q92 0 138 -53.5t46 -147.5v-267q0 -35 -7 -66t-23.5 -54t-43.5 -36.5t-67 -13.5q-20 0 -45 4.5t-40 13.5v67q14 -8 32 -14t38 -6q47 0 65.5 28t18.5 85v243q0 48 -13.5 77
t-33.5 45t-44 21.5t-46 5.5q-26 0 -51 -9t-47.5 -23t-40.5 -32t-29 -37v-265h-72z" />
    <glyph glyph-name="uni0453" unicode="&#x453;" horiz-adv-x="484" 
d="M297 710h92l-118 -134h-70zM85 483h363v-63h-291v-420h-72v483z" />
    <glyph glyph-name="uni0454" unicode="&#x454;" horiz-adv-x="521" 
d="M306.013 -12q86.9951 0 153.991 41v67q-62.9961 -43 -144.991 -43q-37.998 0 -71.4961 11.5t-58.9961 32.5t-41.9971 50t-19.499 65h232.985v63h-232.985q10.999 70 62.9961 112.5t128.992 42.5q34.998 0 68.9951 -9.5q33.998 -9.5 65.9961 -26.5v67
q-29.998 17 -65.4961 25.5q-35.4971 8.5 -78.4951 8.5q-54.9961 0 -101.993 -19.5t-80.9951 -53t-53.4971 -80t-19.499 -100.5t19.499 -100.5t53.4971 -80.5t80.9951 -53.5t101.993 -19.5z" />
    <glyph glyph-name="uni0455" unicode="&#x455;" horiz-adv-x="490" 
d="M242 -12q-64 0 -118 15.5t-82 34.5v74q13 -9 32.5 -19t45 -19t56 -15t64.5 -6q62 0 97.5 20.5t35.5 56.5q0 21 -12 34.5t-33 22t-48.5 14.5t-57.5 14q-38 10 -69.5 21.5t-53.5 28t-34 40t-12 56.5q0 61 50 97.5t144 36.5q48 0 96 -11.5t80 -31.5v-71q-33 20 -78.5 34.5
t-94.5 14.5q-65 0 -94.5 -20.5t-29.5 -50.5q0 -21 12.5 -35t33.5 -23t47 -15t53 -12q35 -8 66.5 -19t55.5 -27.5t38.5 -40.5t14.5 -58q0 -33 -15.5 -59.5t-43 -44.5t-65 -27.5t-81.5 -9.5z" />
    <glyph glyph-name="uni0456" unicode="&#x456;" horiz-adv-x="264" 
d="M96 483h72v-483h-72v483zM82 649q0 21 14.5 36t35.5 15t36 -15t15 -36t-15 -35.5t-36 -14.5t-35.5 14.5t-14.5 35.5z" />
    <glyph glyph-name="uni0457" unicode="&#x457;" horiz-adv-x="258" 
d="M-17 646q0 20 13.5 33.5t33.5 13.5t33.5 -13.5t13.5 -33.5t-13.5 -33.5t-33.5 -13.5t-33.5 13.5t-13.5 33.5zM183 646q0 20 13.5 33.5t33.5 13.5t33.5 -13.5t13.5 -33.5t-13.5 -33.5t-33.5 -13.5t-33.5 13.5t-13.5 33.5zM92 483h73v-483h-73v483z" />
    <glyph glyph-name="uni0458" unicode="&#x458;" horiz-adv-x="266" 
d="M26 -204q-20 0 -44.5 4.5t-40.5 13.5v66q14 -8 32 -13.5t38 -5.5q85 0 85 97v525h72v-536q0 -41 -11.5 -70t-31 -47t-45 -26t-54.5 -8zM82 649q0 21 14.5 36t35.5 15t36 -15t15 -36t-15 -35.5t-36 -14.5t-35.5 14.5t-14.5 35.5z" />
    <glyph glyph-name="uni0459" unicode="&#x459;" horiz-adv-x="901" 
d="M436 420h-213l-3 -93q-2 -57 -8 -115.5t-24.5 -105.5t-53 -77t-92.5 -30h-10t-11 1v66q5 -1 10 -1h9q33 0 53.5 21.5t32.5 58t17 84t7 100.5l4 154h354v-162h159q87 0 135.5 -44t48.5 -116q0 -35 -11.5 -64t-34.5 -51t-57 -34t-78 -12h-234v420zM657 63q57 0 89 25.5
t32 71.5q0 48 -32 73t-89 25h-149v-195h149z" />
    <glyph glyph-name="uni045A" unicode="&#x45a;" horiz-adv-x="895" 
d="M85 483h72v-181h284v181h72v-181h154q84 0 131 -41.5t47 -110.5q0 -32 -11 -59.5t-33 -47.5t-55 -31.5t-76 -11.5h-229v239h-284v-239h-72v483zM658 63q54 0 84.5 23t30.5 65t-30.5 65t-84.5 23h-145v-176h145z" />
    <glyph glyph-name="uni045B" unicode="&#x45b;" horiz-adv-x="643" 
d="M118 0v557h-102v63h102v80h72v-80h143v-63h-143v-209q14 16 33 31.5t43.5 27.5t53.5 19.5t63 7.5q92 0 138 -53.5t46 -147.5v-233h-72v217q0 48 -13.5 77t-33.5 45t-44 21.5t-46 5.5q-26 0 -51 -9t-47.5 -23t-40.5 -32t-29 -37v-265h-72z" />
    <glyph glyph-name="uni045C" unicode="&#x45c;" horiz-adv-x="541" 
d="M321 710h92l-118 -134h-70zM157 284l230 199h98l-255 -218l291 -265h-103l-261 238v-238h-72v483h72v-199z" />
    <glyph glyph-name="uni045E" unicode="&#x45e;" horiz-adv-x="555" 
d="M112 -204q-23 0 -43.5 3t-33.5 11v67q15 -8 30.5 -12t35.5 -4q48 0 79.5 40.5t63.5 116.5l-215 465h80l171 -380l166 380h78l-239 -537q-31 -71 -72 -110.5t-101 -39.5zM281 565q-73 0 -118 41t-46 111h64q0 -41 26.5 -67.5t72.5 -26.5q45 0 71.5 26.5t27.5 67.5h63
q0 -35 -12.5 -63t-34.5 -48t-51 -30.5t-63 -10.5z" />
    <glyph glyph-name="uni045F" unicode="&#x45f;" horiz-adv-x="601" 
d="M265 0h-180v483h72v-420h287v420h72v-483h-181v-143h-70v143z" />
    <glyph glyph-name="uni0490" unicode="&#x490;" horiz-adv-x="599" 
d="M99 700h396v145h67v-212h-389v-633h-74v700z" />
    <glyph glyph-name="uni0491" unicode="&#x491;" horiz-adv-x="484" 
d="M85 483h296v131h67v-194h-291v-420h-72v483z" />
    <glyph glyph-name="uni1E02" unicode="&#x1e02;" horiz-adv-x="726" 
d="M99 700h303q94 0 147.5 -45t53.5 -125q0 -57 -25 -94.5t-67 -53.5q69 -11 110.5 -60t41.5 -127q0 -44 -15.5 -79.5t-45 -61.5t-72.5 -40t-97 -14h-334v700zM420 67q78 0 121 35.5t43 101.5q0 65 -43 100t-121 35h-247v-272h247zM390 404q67 0 103.5 29t36.5 84
q0 57 -36.5 86.5t-103.5 29.5h-217v-229h217zM295 827q0 20 13.5 33.5t33.5 13.5t33.5 -13.5t13.5 -33.5t-13.5 -33.5t-33.5 -13.5t-33.5 13.5t-13.5 33.5z" />
    <glyph glyph-name="uni1E03" unicode="&#x1e03;" horiz-adv-x="636" 
d="M157 700v-294q28 37 75 63t112 26q55 0 99.5 -20.5t76.5 -55t49.5 -81t17.5 -97.5t-17.5 -97t-49.5 -80.5t-76.5 -55t-99.5 -20.5q-65 0 -112 26t-75 63v-77h-72v700h72zM157 162q10 -23 27.5 -43t40 -34.5t48.5 -23t54 -8.5q40 0 74.5 14.5t59 40t38.5 59.5t14 74
t-14 74.5t-38.5 60t-59 40t-74.5 14.5q-57 0 -103 -31t-67 -78v-159zM279 827q0 20 13.5 33.5t33.5 13.5t33.5 -13.5t13.5 -33.5t-13.5 -33.5t-33.5 -13.5t-33.5 13.5t-13.5 33.5z" />
    <glyph glyph-name="uni1E0A" unicode="&#x1e0a;" horiz-adv-x="778" 
d="M99 700h229q84 0 154 -25.5t120 -71.5t77.5 -110.5t27.5 -142.5t-27.5 -142.5t-77.5 -110.5t-120 -71.5t-154 -25.5h-229v700zM319 67q73 0 131 20t98.5 57t62 89.5t21.5 116.5t-21.5 116.5t-62 89.5t-98.5 57t-131 20h-146v-566h146zM295 827q0 20 13.5 33.5t33.5 13.5
t33.5 -13.5t13.5 -33.5t-13.5 -33.5t-33.5 -13.5t-33.5 13.5t-13.5 33.5z" />
    <glyph glyph-name="uni1E0B" unicode="&#x1e0b;" 
d="M552 700v-700h-72v77q-28 -37 -75 -63t-112 -26q-55 0 -99.5 20.5t-76.5 55t-49.5 80.5t-17.5 97t17.5 97.5t49.5 81t76.5 55t99.5 20.5q65 0 112 -26t75 -63v294h72zM480 321q-21 47 -67 78t-103 31q-41 0 -75 -14.5t-58.5 -40t-38.5 -60t-14 -74.5t14 -74t38.5 -59.5
t58.5 -40t75 -14.5q28 0 54 8.5t48.5 23t39.5 34.5t28 43v159zM274 827q0 20 13.5 33.5t33.5 13.5t33.5 -13.5t13.5 -33.5t-13.5 -33.5t-33.5 -13.5t-33.5 13.5t-13.5 33.5z" />
    <glyph glyph-name="uni1E1E" unicode="&#x1e1e;" horiz-adv-x="622" 
d="M99 700h477v-67h-403v-233h327v-67h-327v-333h-74v700zM289 827q0 20 13.5 33.5t33.5 13.5t33.5 -13.5t13.5 -33.5t-13.5 -33.5t-33.5 -13.5t-33.5 13.5t-13.5 33.5z" />
    <glyph glyph-name="uni1E1F" unicode="&#x1e1f;" horiz-adv-x="391" 
d="M123 0v420h-96v63h96v81q0 65 34.5 104.5t103.5 39.5q29 0 54 -4t48 -15v-66q-17 8 -37.5 14t-46.5 6q-42 0 -63 -24t-21 -69v-67h168v-63h-168v-420h-72zM198 827q0 20 13.5 33.5t33.5 13.5t33.5 -13.5t13.5 -33.5t-13.5 -33.5t-33.5 -13.5t-33.5 13.5t-13.5 33.5z" />
    <glyph glyph-name="uni1E40" unicode="&#x1e40;" horiz-adv-x="848" 
d="M99 700h73l253 -339l253 339h72v-700h-73v588l-229 -306h-45l-231 306v-588h-73v700zM377 827q0 20 13.5 33.5t33.5 13.5t33.5 -13.5t13.5 -33.5t-13.5 -33.5t-33.5 -13.5t-33.5 13.5t-13.5 33.5z" />
    <glyph glyph-name="uni1E41" unicode="&#x1e41;" horiz-adv-x="919" 
d="M85 483h72v-72q24 34 67.5 59t106.5 25q60 0 100 -25.5t55 -69.5q25 38 72 66.5t114 28.5q80 0 125.5 -49t45.5 -145v-301h-72v285q0 47 -12.5 75t-30.5 43t-39 19.5t-38 4.5q-24 0 -47 -9t-43.5 -23.5t-36.5 -33t-26 -38.5q1 -15 1.5 -26.5t0.5 -27.5v-269h-72v285
q0 47 -12.5 75t-30.5 43t-39 19.5t-38 4.5q-23 0 -45 -8t-42 -22t-36.5 -32t-27.5 -38v-327h-72v483zM417 646q0 20 13.5 33.5t33.5 13.5t33.5 -13.5t13.5 -33.5t-13.5 -33.5t-33.5 -13.5t-33.5 13.5t-13.5 33.5z" />
    <glyph glyph-name="uni1E56" unicode="&#x1e56;" horiz-adv-x="665" 
d="M99 700h294q54 0 95.5 -14.5t70 -40t43.5 -61t15 -78.5q0 -44 -15 -80t-43.5 -62t-70 -40.5t-95.5 -14.5h-220v-309h-74v700zM388 376q74 0 115 33t41 95q0 63 -41 96t-115 33h-215v-257h215zM287 827q0 20 13.5 33.5t33.5 13.5t33.5 -13.5t13.5 -33.5t-13.5 -33.5
t-33.5 -13.5t-33.5 13.5t-13.5 33.5z" />
    <glyph glyph-name="uni1E57" unicode="&#x1e57;" horiz-adv-x="636" 
d="M85 -200v683h72v-77q28 37 75 63t112 26q55 0 99.5 -20.5t76.5 -55t49.5 -80.5t17.5 -97t-17.5 -97.5t-49.5 -81t-76.5 -55t-99.5 -20.5q-65 0 -112 26t-75 63v-277h-72zM157 162q21 -47 67 -78t103 -31q40 0 74.5 14.5t59 40t38.5 60t14 74.5t-14 74t-38.5 59.5t-59 40
t-74.5 14.5q-28 0 -54 -8.5t-48.5 -23t-40 -34.5t-27.5 -43v-159zM289 646q0 20 13.5 33.5t33.5 13.5t33.5 -13.5t13.5 -33.5t-13.5 -33.5t-33.5 -13.5t-33.5 13.5t-13.5 33.5z" />
    <glyph glyph-name="uni1E60" unicode="&#x1e60;" horiz-adv-x="627" 
d="M307 -12q-82 0 -150 22t-109 52v83q18 -16 45 -31.5t60 -28t71 -20.5t78 -8t74.5 9t60 26t40 41.5t14.5 55.5q0 34 -15.5 57t-42.5 38.5t-63 27t-76 23.5q-48 13 -90.5 27.5t-74 36t-49.5 53t-18 79.5q0 38 16 71t46.5 57.5t75.5 38.5t104 14q65 0 120.5 -16t97.5 -42
v-76q-43 27 -98.5 46t-117.5 19q-45 0 -77 -9.5t-52.5 -25.5t-30 -36.5t-9.5 -42.5q0 -32 16.5 -52.5t44 -34.5t63 -24t73.5 -21q42 -13 84 -28t75 -38.5t53.5 -57t20.5 -83.5q0 -49 -21 -87t-57 -63.5t-83 -38.5t-99 -13zM252 827q0 20 13.5 33.5t33.5 13.5t33.5 -13.5
t13.5 -33.5t-13.5 -33.5t-33.5 -13.5t-33.5 13.5t-13.5 33.5z" />
    <glyph glyph-name="uni1E61" unicode="&#x1e61;" horiz-adv-x="509" 
d="M249 -12q-64 0 -118 15.5t-82 34.5v74q13 -9 32.5 -19t45 -19t56 -15t64.5 -6q62 0 97.5 20.5t35.5 56.5q0 21 -12 34.5t-33 22t-48.5 14.5t-57.5 14q-38 10 -69.5 21.5t-53.5 28t-34 40t-12 56.5q0 61 50 97.5t144 36.5q48 0 96 -11.5t80 -31.5v-71q-33 20 -78.5 34.5
t-94.5 14.5q-65 0 -94.5 -20.5t-29.5 -50.5q0 -21 12.5 -35t33.5 -23t47 -15t53 -12q35 -8 66.5 -19t55.5 -27.5t38.5 -40.5t14.5 -58q0 -33 -15.5 -59.5t-43 -44.5t-65 -27.5t-81.5 -9.5zM200 646q0 20 13.5 33.5t33.5 13.5t33.5 -13.5t13.5 -33.5t-13.5 -33.5t-33.5 -13.5
t-33.5 13.5t-13.5 33.5z" />
    <glyph glyph-name="uni1E6A" unicode="&#x1e6a;" horiz-adv-x="630" 
d="M277 633h-241v67h559v-67h-244v-633h-74v633zM268 827q0 20 13.5 33.5t33.5 13.5t33.5 -13.5t13.5 -33.5t-13.5 -33.5t-33.5 -13.5t-33.5 13.5t-13.5 33.5z" />
    <glyph glyph-name="uni1E6B" unicode="&#x1e6b;" horiz-adv-x="430" 
d="M277 -12q-36 0 -62 11.5t-42.5 31.5t-24 47t-7.5 59v283h-114v63h114v149h72v-149h169v-63h-169v-261q0 -57 19.5 -80t64.5 -23q26 0 46 6t33 14v-66q-14 -10 -42.5 -16t-56.5 -6zM132 737q0 20 13.5 33.5t33.5 13.5t33.5 -13.5t13.5 -33.5t-13.5 -33.5t-33.5 -13.5
t-33.5 13.5t-13.5 33.5z" />
    <glyph glyph-name="Wgrave" unicode="&#x1e80;" horiz-adv-x="1053" 
d="M39 700h82l195 -583l181 586h60l182 -586l194 583h80l-241 -704h-65l-180 578l-181 -578h-65zM374 896h92l96 -133h-70z" />
    <glyph glyph-name="wgrave" unicode="&#x1e81;" horiz-adv-x="827" 
d="M38 483h74l135 -376l132 378h61l133 -378l134 376h73l-173 -486h-63l-136 379l-134 -379h-63zM263 710h91l96 -134h-69z" />
    <glyph glyph-name="Wacute" unicode="&#x1e82;" horiz-adv-x="1053" 
d="M39 700h82l195 -583l181 586h60l182 -586l194 583h80l-241 -704h-65l-180 578l-181 -578h-65zM589 896h92l-118 -133h-69z" />
    <glyph glyph-name="wacute" unicode="&#x1e83;" horiz-adv-x="827" 
d="M38 483h74l135 -376l132 378h61l133 -378l134 376h73l-173 -486h-63l-136 379l-134 -379h-63zM473 710h92l-118 -134h-70z" />
    <glyph glyph-name="Wdieresis" unicode="&#x1e84;" horiz-adv-x="1053" 
d="M39 700h82l195 -583l181 586h60l182 -586l194 583h80l-241 -704h-65l-180 578l-181 -578h-65zM381 828q0 20 13.5 33.5t33.5 13.5t33.5 -13.5t13.5 -33.5t-13.5 -33.5t-33.5 -13.5t-33.5 13.5t-13.5 33.5zM581 828q0 20 13.5 33.5t33.5 13.5t33.5 -13.5t13.5 -33.5
t-13.5 -33.5t-33.5 -13.5t-33.5 13.5t-13.5 33.5z" />
    <glyph glyph-name="wdieresis" unicode="&#x1e85;" horiz-adv-x="827" 
d="M38 483h74l135 -376l132 378h61l133 -378l134 376h73l-173 -486h-63l-136 379l-134 -379h-63zM262 646q0 20 13.5 33.5t33.5 13.5t33.5 -13.5t13.5 -33.5t-13.5 -33.5t-33.5 -13.5t-33.5 13.5t-13.5 33.5zM462 646q0 20 13.5 33.5t33.5 13.5t33.5 -13.5t13.5 -33.5
t-13.5 -33.5t-33.5 -13.5t-33.5 13.5t-13.5 33.5z" />
    <glyph glyph-name="Ygrave" unicode="&#x1ef2;" horiz-adv-x="664" 
d="M295 321l-272 379h86l224 -310l224 310h84l-272 -378v-322h-74v321zM193 896h92l96 -133h-70z" />
    <glyph glyph-name="ygrave" unicode="&#x1ef3;" horiz-adv-x="555" 
d="M112 -204q-23 0 -43.5 3t-33.5 11v67q15 -8 30.5 -12t35.5 -4q48 0 79.5 40.5t63.5 116.5l-215 465h80l171 -380l166 380h78l-239 -537q-31 -71 -72 -110.5t-101 -39.5zM147 710h91l96 -134h-69z" />
    <glyph glyph-name="endash" unicode="&#x2013;" horiz-adv-x="730" 
d="M100 305h530v-67h-530v67z" />
    <glyph glyph-name="emdash" unicode="&#x2014;" horiz-adv-x="906" 
d="M100 305h706v-67h-706v67z" />
    <glyph glyph-name="uni2015" unicode="&#x2015;" horiz-adv-x="730" 
d="M100 305h530v-67h-530v67z" />
    <glyph glyph-name="quoteleft" unicode="&#x2018;" horiz-adv-x="216" 
d="M106.006 445.006h-83.9951l105.994 254.984h57.9961z" />
    <glyph glyph-name="quoteright" unicode="&#x2019;" horiz-adv-x="216" 
d="M110 700h84l-106 -255h-58z" />
    <glyph glyph-name="quotesinglbase" unicode="&#x201a;" horiz-adv-x="236" 
d="M95 103h84l-106 -255h-58z" />
    <glyph glyph-name="quotedblleft" unicode="&#x201c;" horiz-adv-x="367" 
d="M257.006 445.006h-83.9951l105.994 254.984h57.9961zM106.006 445.006h-83.9951l105.994 254.984h57.9961z" />
    <glyph glyph-name="quotedblright" unicode="&#x201d;" horiz-adv-x="368" 
d="M262 700h84l-106 -255h-58zM110 700h84l-106 -255h-58z" />
    <glyph glyph-name="quotedblbase" unicode="&#x201e;" horiz-adv-x="388" 
d="M247 103h84l-106 -255h-58zM95 103h84l-106 -255h-58z" />
    <glyph glyph-name="dagger" unicode="&#x2020;" horiz-adv-x="521" 
d="M226 420h-177v63h177v217h69v-217h178v-63h-178v-420h-69v420z" />
    <glyph glyph-name="daggerdbl" unicode="&#x2021;" horiz-adv-x="521" 
d="M295 420v-156h178v-64h-178v-200h-69v200h-177v64h177v156h-177v63h177v217h69v-217h178v-63h-178z" />
    <glyph glyph-name="bullet" unicode="&#x2022;" horiz-adv-x="410" 
d="M205 271q-23 0 -43.5 9t-35.5 24t-24 35t-9 43t9 43.5t24 35.5t35.5 24t43.5 9q24 0 44.5 -9t35.5 -24t24 -35.5t9 -43.5t-9 -43t-24 -35t-35.5 -24t-44.5 -9z" />
    <glyph glyph-name="ellipsis" unicode="&#x2026;" horiz-adv-x="664" 
d="M66 46q0 22 15 37t37 15t37 -15t15 -37t-15 -37t-37 -15t-37 15t-15 37zM494 46q0 22 15 37t37 15t37 -15t15 -37t-15 -37t-37 -15t-37 15t-15 37zM281 46q0 22 15 37t37 15t37 -15t15 -37t-15 -37t-37 -15t-37 15t-15 37z" />
    <glyph glyph-name="perthousand" unicode="&#x2030;" horiz-adv-x="1212" 
d="M587 700h63l-410 -700h-63zM215 712q37 0 68 -13t53.5 -36t35 -53.5t12.5 -65.5t-12.5 -66t-35 -54t-53.5 -36t-68 -13q-36 0 -67 13t-53 36t-34.5 54t-12.5 66t12.5 65.5t34.5 53.5t53 36t67 13zM215 430q48 0 78.5 32.5t30.5 81.5q0 24 -8 44.5t-22.5 35.5t-34.5 24
t-44 9t-44 -9t-34 -24t-22 -35.5t-8 -44.5q0 -49 30 -81.5t78 -32.5zM610 325q37 0 67.5 -13t53 -36t35 -54t12.5 -66t-12.5 -65.5t-35 -53.5t-53 -36t-67.5 -13q-36 0 -67 13t-53 36t-34.5 53.5t-12.5 65.5t12.5 66t34.5 54t53 36t67 13zM610 43q48 0 78 32.5t30 80.5
t-30 81t-78 33t-78 -33t-30 -81t30 -80.5t78 -32.5zM996 325q37 0 67.5 -13t53 -36t35 -54t12.5 -66t-12.5 -65.5t-35 -53.5t-53 -36t-67.5 -13t-67.5 13t-53 36t-35 53.5t-12.5 65.5t12.5 66t35 54t53 36t67.5 13zM996 43q48 0 78 32.5t30 80.5t-30 81t-78 33t-78 -33
t-30 -81t30 -80.5t78 -32.5z" />
    <glyph glyph-name="guilsinglleft" unicode="&#x2039;" horiz-adv-x="319" 
d="M47 223v37l151 183h75l-164 -202l164 -201h-75z" />
    <glyph glyph-name="guilsinglright" unicode="&#x203a;" horiz-adv-x="319" 
d="M208 241l-163 202h76l151 -183v-37l-151 -183h-76z" />
    <glyph glyph-name="fraction" unicode="&#x2044;" horiz-adv-x="186" 
d="M271 700h68l-412 -700h-69z" />
    <glyph glyph-name="zerosuperior" unicode="&#x2070;" horiz-adv-x="390" 
d="M195 317q-38 0 -68 15.5t-51 42t-32 62t-11 74.5t11 74t32 62t51 42.5t68 15.5q37 0 67 -15.5t51 -42.5t32.5 -62t11.5 -74t-11.5 -74.5t-32.5 -62t-51 -42t-67 -15.5zM195 371q23 0 41.5 11t31 30t19.5 44.5t7 54.5q0 28 -7 53.5t-19.5 45t-31 30.5t-41.5 11t-41 -11
t-31 -30.5t-20 -45t-7 -53.5q0 -29 7 -54.5t20 -44.5t31 -30t41 -11z" />
    <glyph glyph-name="foursuperior" unicode="&#x2074;" horiz-adv-x="360" 
d="M218 420h-197v45l196 235h62v-229h59v-51h-59v-98h-61v98zM218 471v154l-130 -154h130z" />
    <glyph glyph-name="fivesuperior" unicode="&#x2075;" horiz-adv-x="337" 
d="M143 317q-35 0 -61 7t-48 19v59q20 -11 47 -20.5t60 -9.5q39 0 67 20t28 55q0 29 -25 49.5t-68 20.5q-24 0 -48 -3.5t-46 -11.5l25 198h200v-53h-153l-10 -86q9 3 21 4t25 1q61 0 101.5 -32t40.5 -87q0 -31 -12.5 -55.5t-33.5 -41t-49.5 -25t-60.5 -8.5z" />
    <glyph glyph-name="sixsuperior" unicode="&#x2076;" horiz-adv-x="357" 
d="M186 317q-37 0 -65 13t-46.5 36.5t-28 56t-9.5 70.5q0 43 11 81.5t32.5 67.5t54 46t74.5 17q23 0 45 -4.5t40 -17.5v-56q-19 13 -38.5 18.5t-40.5 5.5q-48 0 -80.5 -33.5t-34.5 -93.5q16 20 41.5 32.5t57.5 12.5q52 0 88 -33t36 -90q0 -29 -10.5 -52.5t-29 -40.5
t-43.5 -26.5t-54 -9.5zM184 368q33 0 54.5 22t21.5 56q0 33 -22 53.5t-55 20.5q-27 0 -50 -16.5t-34 -39.5q2 -43 24.5 -69.5t60.5 -26.5z" />
    <glyph glyph-name="sevensuperior" unicode="&#x2077;" horiz-adv-x="319" 
d="M220 647h-192v53h263v-49l-168 -329h-69z" />
    <glyph glyph-name="eightsuperior" unicode="&#x2078;" horiz-adv-x="363" 
d="M182 317q-31 0 -58.5 7.5t-48.5 21.5t-33 34.5t-12 47.5q0 35 21.5 59.5t53.5 36.5q-25 10 -40 31.5t-15 47.5q0 23 10 42t28 32.5t42 20.5t52 7q56 0 93.5 -27.5t37.5 -74.5q0 -26 -15 -47.5t-40 -31.5q32 -12 53.5 -36.5t21.5 -59.5q0 -27 -12 -47.5t-32.5 -34.5
t-48 -21.5t-58.5 -7.5zM182 368q38 0 63 18.5t25 46.5q0 30 -25 48t-63 18q-39 0 -64 -18t-25 -48q0 -28 25 -46.5t64 -18.5zM182 542q32 0 52 15t20 41t-20.5 41.5t-51.5 15.5q-32 0 -53 -15.5t-21 -41.5t21 -41t53 -15z" />
    <glyph glyph-name="ninesuperior" unicode="&#x2079;" horiz-adv-x="357" 
d="M174 705q37 0 64.5 -13t46.5 -36.5t28.5 -56t9.5 -70.5q0 -43 -11 -81.5t-32.5 -67.5t-54 -46t-74.5 -17q-23 0 -45 4.5t-40 17.5v56q19 -13 38.5 -18.5t40.5 -5.5q48 0 80.5 33.5t34.5 93.5q-15 -20 -41 -32.5t-58 -12.5q-26 0 -48.5 8.5t-39 24.5t-26.5 39t-10 51
t10.5 52t29 41t43.5 26.5t54 9.5zM177 654q-34 0 -55.5 -22t-21.5 -56q0 -33 22 -53.5t55 -20.5q28 0 50.5 16.5t33.5 39.5q-2 43 -24.5 69.5t-59.5 26.5z" />
    <glyph glyph-name="zeroinferior" unicode="&#x2080;" horiz-adv-x="390" 
d="M195 -4q-38 0 -68 15.5t-51 42t-32 62t-11 74.5t11 74t32 62t51 42.5t68 15.5q37 0 67 -15.5t51 -42.5t32.5 -62t11.5 -74t-11.5 -74.5t-32.5 -62t-51 -42t-67 -15.5zM195 50q23 0 41.5 11t31 30t19.5 44.5t7 54.5q0 28 -7 53.5t-19.5 45t-31 30.5t-41.5 11t-41 -11
t-31 -30.5t-20 -45t-7 -53.5q0 -29 7 -54.5t20 -44.5t31 -30t41 -11z" />
    <glyph glyph-name="oneinferior" unicode="&#x2081;" horiz-adv-x="244" 
d="M127 313l-104 -58v63l106 61h61v-378h-63v312z" />
    <glyph glyph-name="twoinferior" unicode="&#x2082;" horiz-adv-x="359" 
d="M44 47l121 110q36 33 53.5 57.5t17.5 51.5t-20 43.5t-53 16.5q-32 0 -59 -12t-50 -31v63q20 16 49.5 27t64.5 11q26 0 50 -8t42 -22t29 -35t11 -46q0 -40 -20.5 -73t-63.5 -71l-78 -75h174v-53h-268v46z" />
    <glyph glyph-name="threeinferior" unicode="&#x2083;" horiz-adv-x="327" 
d="M142 -4q-38 0 -66.5 7.5t-49.5 21.5v58q22 -13 49.5 -22.5t61.5 -9.5q36 0 64 19.5t28 54.5q0 31 -22.5 50t-64.5 19q-13 0 -26.5 -2t-23.5 -6v41l105 99h-157v53h238v-47l-101 -96q19 -2 40 -8.5t37.5 -20t27.5 -34.5t11 -50t-12 -52.5t-32.5 -40t-48 -25.5t-58.5 -9z
" />
    <glyph glyph-name="fourinferior" unicode="&#x2084;" horiz-adv-x="360" 
d="M218 99h-197v45l196 235h62v-229h59v-51h-59v-98h-61v98zM218 150v154l-130 -154h130z" />
    <glyph glyph-name="fiveinferior" unicode="&#x2085;" horiz-adv-x="337" 
d="M143 -4q-35 0 -61 7t-48 19v59q20 -11 47 -20.5t60 -9.5q39 0 67 20t28 55q0 29 -25 49.5t-68 20.5q-24 0 -48 -3.5t-46 -11.5l25 198h200v-53h-153l-10 -86q9 3 21 4t25 1q61 0 101.5 -32t40.5 -87q0 -31 -12.5 -55.5t-33.5 -41t-49.5 -25t-60.5 -8.5z" />
    <glyph glyph-name="sixinferior" unicode="&#x2086;" horiz-adv-x="357" 
d="M186 -4q-37 0 -65 13t-46.5 36.5t-28 56t-9.5 70.5q0 43 11 81.5t32.5 67.5t54 46t74.5 17q23 0 45 -4.5t40 -17.5v-56q-19 13 -38.5 18.5t-40.5 5.5q-48 0 -80.5 -33.5t-34.5 -93.5q16 20 41.5 32.5t57.5 12.5q52 0 88 -33t36 -90q0 -29 -10.5 -52.5t-29 -40.5
t-43.5 -26.5t-54 -9.5zM184 47q33 0 54.5 22t21.5 56q0 33 -22 53.5t-55 20.5q-27 0 -50 -16.5t-34 -39.5q2 -43 24.5 -69.5t60.5 -26.5z" />
    <glyph glyph-name="seveninferior" unicode="&#x2087;" horiz-adv-x="319" 
d="M220 326h-192v53h263v-49l-168 -329h-69z" />
    <glyph glyph-name="eightinferior" unicode="&#x2088;" horiz-adv-x="363" 
d="M182 -4q-31 0 -58.5 7.5t-48.5 21.5t-33 34.5t-12 47.5q0 35 21.5 59.5t53.5 36.5q-25 10 -40 31.5t-15 47.5q0 23 10 42t28 32.5t42 20.5t52 7q56 0 93.5 -27.5t37.5 -74.5q0 -26 -15 -47.5t-40 -31.5q32 -12 53.5 -36.5t21.5 -59.5q0 -27 -12 -47.5t-32.5 -34.5
t-48 -21.5t-58.5 -7.5zM182 47q38 0 63 18.5t25 46.5q0 30 -25 48t-63 18q-39 0 -64 -18t-25 -48q0 -28 25 -46.5t64 -18.5zM182 221q32 0 52 15t20 41t-20.5 41.5t-51.5 15.5q-32 0 -53 -15.5t-21 -41.5t21 -41t53 -15z" />
    <glyph glyph-name="nineinferior" unicode="&#x2089;" horiz-adv-x="357" 
d="M174 384q37 0 64.5 -13t46.5 -36.5t28.5 -56t9.5 -70.5q0 -43 -11 -81.5t-32.5 -67.5t-54 -46t-74.5 -17q-23 0 -45 4.5t-40 17.5v56q19 -13 38.5 -18.5t40.5 -5.5q48 0 80.5 33.5t34.5 93.5q-15 -20 -41 -32.5t-58 -12.5q-26 0 -48.5 8.5t-39 24.5t-26.5 39t-10 51
t10.5 52t29 41t43.5 26.5t54 9.5zM177 333q-34 0 -55.5 -22t-21.5 -56q0 -33 22 -53.5t55 -20.5q28 0 50.5 16.5t33.5 39.5q-2 43 -24.5 69.5t-59.5 26.5z" />
    <glyph glyph-name="franc" unicode="&#x20a3;" horiz-adv-x="638" 
d="M115 148h-114v63h114v489h477v-67h-403v-233h328v-67h-328v-122h174v-63h-174v-148h-74v148z" />
    <glyph glyph-name="lira" unicode="&#x20a4;" horiz-adv-x="589" 
d="M63 67h19q17 0 27.5 7t16 19t7.5 27.5t2 32.5v67h-72v63h72v93h-72v63h72v48q0 109 60.5 167.5t168.5 58.5q45 0 86.5 -10t76.5 -33v-73q-31 22 -71 34.5t-82 12.5q-81 0 -123 -42.5t-42 -124.5v-38h254v-63h-254v-93h254v-63h-254v-98q0 -22 -8 -36t-16 -19h348v-67
h-470v67z" />
    <glyph glyph-name="peseta" unicode="&#x20a7;" horiz-adv-x="694" 
d="M29 535h74v165h295q98 0 154.5 -45.5t66.5 -119.5h67v-63h-68q-11 -73 -67 -118t-153 -45h-221v-309h-74v472h-74v63zM393 376q73 0 114 33t41 95q0 63 -41 96t-114 33h-216v-257h216z" />
    <glyph glyph-name="Euro" unicode="&#x20ac;" horiz-adv-x="686" 
d="M43 472h95q14 52 41 96.5t66.5 76t90 49.5t111.5 18q99 0 173 -49v-73q-75 53 -166 53q-89 0 -150.5 -46.5t-86.5 -124.5h251v-63h-266q-2 -14 -3 -26t-1 -26v-21t2 -20h268v-63h-258q20 -88 81.5 -142t162.5 -54q54 0 100.5 17t81.5 49v-76q-39 -30 -88.5 -44.5
t-100.5 -14.5q-64 0 -116.5 19.5t-92.5 54.5t-66.5 83.5t-38.5 107.5h-90v63h82q-2 11 -2 20v21q0 25 3 52h-83v63z" />
    <glyph glyph-name="uni20B4" unicode="&#x20b4;" horiz-adv-x="608" 
d="M324 -12q-107 0 -166.5 41.5t-59.5 113.5q0 42 14 69.5t41 50.5h-90v63h483v-63h-293q-34 -18 -56.5 -44t-22.5 -63q0 -47 39 -73t120 -26q45 0 93 11t82 28v-73q-78 -35 -184 -35zM63 458h317q25 15 41.5 37t16.5 53q0 45 -37.5 70t-115.5 25q-44 0 -88.5 -10t-77.5 -25
v71q31 15 77.5 24t95.5 9q109 0 166 -43t57 -112q0 -62 -43 -99h74v-63h-483v63z" />
    <glyph glyph-name="uni20B6" unicode="&#x20b6;" horiz-adv-x="681" 
d="M123 157h-99v63h99v93h-99v63h99v324h279q53 0 94.5 -14t70 -39.5t43 -61t14.5 -77.5q0 -43 -14.5 -79t-43 -61.5t-70 -40t-94.5 -14.5h-205v-93h291v-63h-291v-157h-74v157zM396 376q74 0 114.5 32.5t40.5 95.5q0 62 -40.5 95.5t-114.5 33.5h-199v-257h199z" />
    <glyph glyph-name="uni20B6" unicode="&#x20cf;" horiz-adv-x="681" 
d="M123 157h-99v63h99v93h-99v63h99v324h279q53 0 94.5 -14t70 -39.5t43 -61t14.5 -77.5q0 -43 -14.5 -79t-43 -61.5t-70 -40t-94.5 -14.5h-205v-93h291v-63h-291v-157h-74v157zM396 376q74 0 114.5 32.5t40.5 95.5q0 62 -40.5 95.5t-114.5 33.5h-199v-257h199z" />
    <glyph glyph-name="uni20B6" unicode="&#x20ce;" horiz-adv-x="681" 
d="M123 157h-99v63h99v93h-99v63h99v324h279q53 0 94.5 -14t70 -39.5t43 -61t14.5 -77.5q0 -43 -14.5 -79t-43 -61.5t-70 -40t-94.5 -14.5h-205v-93h291v-63h-291v-157h-74v157zM396 376q74 0 114.5 32.5t40.5 95.5q0 62 -40.5 95.5t-114.5 33.5h-199v-257h199z" />
    <glyph glyph-name="uni20B6" unicode="&#x20cd;" horiz-adv-x="681" 
d="M123 157h-99v63h99v93h-99v63h99v324h279q53 0 94.5 -14t70 -39.5t43 -61t14.5 -77.5q0 -43 -14.5 -79t-43 -61.5t-70 -40t-94.5 -14.5h-205v-93h291v-63h-291v-157h-74v157zM396 376q74 0 114.5 32.5t40.5 95.5q0 62 -40.5 95.5t-114.5 33.5h-199v-257h199z" />
    <glyph glyph-name="uni20B6" unicode="&#x20cc;" horiz-adv-x="681" 
d="M123 157h-99v63h99v93h-99v63h99v324h279q53 0 94.5 -14t70 -39.5t43 -61t14.5 -77.5q0 -43 -14.5 -79t-43 -61.5t-70 -40t-94.5 -14.5h-205v-93h291v-63h-291v-157h-74v157zM396 376q74 0 114.5 32.5t40.5 95.5q0 62 -40.5 95.5t-114.5 33.5h-199v-257h199z" />
    <glyph glyph-name="uni20B6" unicode="&#x20cb;" horiz-adv-x="681" 
d="M123 157h-99v63h99v93h-99v63h99v324h279q53 0 94.5 -14t70 -39.5t43 -61t14.5 -77.5q0 -43 -14.5 -79t-43 -61.5t-70 -40t-94.5 -14.5h-205v-93h291v-63h-291v-157h-74v157zM396 376q74 0 114.5 32.5t40.5 95.5q0 62 -40.5 95.5t-114.5 33.5h-199v-257h199z" />
    <glyph glyph-name="uni20B6" unicode="&#x20ca;" horiz-adv-x="681" 
d="M123 157h-99v63h99v93h-99v63h99v324h279q53 0 94.5 -14t70 -39.5t43 -61t14.5 -77.5q0 -43 -14.5 -79t-43 -61.5t-70 -40t-94.5 -14.5h-205v-93h291v-63h-291v-157h-74v157zM396 376q74 0 114.5 32.5t40.5 95.5q0 62 -40.5 95.5t-114.5 33.5h-199v-257h199z" />
    <glyph glyph-name="uni20B6" unicode="&#x20c9;" horiz-adv-x="681" 
d="M123 157h-99v63h99v93h-99v63h99v324h279q53 0 94.5 -14t70 -39.5t43 -61t14.5 -77.5q0 -43 -14.5 -79t-43 -61.5t-70 -40t-94.5 -14.5h-205v-93h291v-63h-291v-157h-74v157zM396 376q74 0 114.5 32.5t40.5 95.5q0 62 -40.5 95.5t-114.5 33.5h-199v-257h199z" />
    <glyph glyph-name="uni20B6" unicode="&#x20c8;" horiz-adv-x="681" 
d="M123 157h-99v63h99v93h-99v63h99v324h279q53 0 94.5 -14t70 -39.5t43 -61t14.5 -77.5q0 -43 -14.5 -79t-43 -61.5t-70 -40t-94.5 -14.5h-205v-93h291v-63h-291v-157h-74v157zM396 376q74 0 114.5 32.5t40.5 95.5q0 62 -40.5 95.5t-114.5 33.5h-199v-257h199z" />
    <glyph glyph-name="uni20B6" unicode="&#x20c7;" horiz-adv-x="681" 
d="M123 157h-99v63h99v93h-99v63h99v324h279q53 0 94.5 -14t70 -39.5t43 -61t14.5 -77.5q0 -43 -14.5 -79t-43 -61.5t-70 -40t-94.5 -14.5h-205v-93h291v-63h-291v-157h-74v157zM396 376q74 0 114.5 32.5t40.5 95.5q0 62 -40.5 95.5t-114.5 33.5h-199v-257h199z" />
    <glyph glyph-name="uni20B6" unicode="&#x20c6;" horiz-adv-x="681" 
d="M123 157h-99v63h99v93h-99v63h99v324h279q53 0 94.5 -14t70 -39.5t43 -61t14.5 -77.5q0 -43 -14.5 -79t-43 -61.5t-70 -40t-94.5 -14.5h-205v-93h291v-63h-291v-157h-74v157zM396 376q74 0 114.5 32.5t40.5 95.5q0 62 -40.5 95.5t-114.5 33.5h-199v-257h199z" />
    <glyph glyph-name="uni20B6" unicode="&#x20c5;" horiz-adv-x="681" 
d="M123 157h-99v63h99v93h-99v63h99v324h279q53 0 94.5 -14t70 -39.5t43 -61t14.5 -77.5q0 -43 -14.5 -79t-43 -61.5t-70 -40t-94.5 -14.5h-205v-93h291v-63h-291v-157h-74v157zM396 376q74 0 114.5 32.5t40.5 95.5q0 62 -40.5 95.5t-114.5 33.5h-199v-257h199z" />
    <glyph glyph-name="uni20B6" unicode="&#x20c4;" horiz-adv-x="681" 
d="M123 157h-99v63h99v93h-99v63h99v324h279q53 0 94.5 -14t70 -39.5t43 -61t14.5 -77.5q0 -43 -14.5 -79t-43 -61.5t-70 -40t-94.5 -14.5h-205v-93h291v-63h-291v-157h-74v157zM396 376q74 0 114.5 32.5t40.5 95.5q0 62 -40.5 95.5t-114.5 33.5h-199v-257h199z" />
    <glyph glyph-name="uni20B6" unicode="&#x20c3;" horiz-adv-x="681" 
d="M123 157h-99v63h99v93h-99v63h99v324h279q53 0 94.5 -14t70 -39.5t43 -61t14.5 -77.5q0 -43 -14.5 -79t-43 -61.5t-70 -40t-94.5 -14.5h-205v-93h291v-63h-291v-157h-74v157zM396 376q74 0 114.5 32.5t40.5 95.5q0 62 -40.5 95.5t-114.5 33.5h-199v-257h199z" />
    <glyph glyph-name="uni20B6" unicode="&#x20c2;" horiz-adv-x="681" 
d="M123 157h-99v63h99v93h-99v63h99v324h279q53 0 94.5 -14t70 -39.5t43 -61t14.5 -77.5q0 -43 -14.5 -79t-43 -61.5t-70 -40t-94.5 -14.5h-205v-93h291v-63h-291v-157h-74v157zM396 376q74 0 114.5 32.5t40.5 95.5q0 62 -40.5 95.5t-114.5 33.5h-199v-257h199z" />
    <glyph glyph-name="uni20B6" unicode="&#x20c1;" horiz-adv-x="681" 
d="M123 157h-99v63h99v93h-99v63h99v324h279q53 0 94.5 -14t70 -39.5t43 -61t14.5 -77.5q0 -43 -14.5 -79t-43 -61.5t-70 -40t-94.5 -14.5h-205v-93h291v-63h-291v-157h-74v157zM396 376q74 0 114.5 32.5t40.5 95.5q0 62 -40.5 95.5t-114.5 33.5h-199v-257h199z" />
    <glyph glyph-name="uni20B6" unicode="&#x20c0;" horiz-adv-x="681" 
d="M123 157h-99v63h99v93h-99v63h99v324h279q53 0 94.5 -14t70 -39.5t43 -61t14.5 -77.5q0 -43 -14.5 -79t-43 -61.5t-70 -40t-94.5 -14.5h-205v-93h291v-63h-291v-157h-74v157zM396 376q74 0 114.5 32.5t40.5 95.5q0 62 -40.5 95.5t-114.5 33.5h-199v-257h199z" />
    <glyph glyph-name="uni20B6" unicode="&#x20bf;" horiz-adv-x="681" 
d="M123 157h-99v63h99v93h-99v63h99v324h279q53 0 94.5 -14t70 -39.5t43 -61t14.5 -77.5q0 -43 -14.5 -79t-43 -61.5t-70 -40t-94.5 -14.5h-205v-93h291v-63h-291v-157h-74v157zM396 376q74 0 114.5 32.5t40.5 95.5q0 62 -40.5 95.5t-114.5 33.5h-199v-257h199z" />
    <glyph glyph-name="uni20B6" unicode="&#x20be;" horiz-adv-x="681" 
d="M123 157h-99v63h99v93h-99v63h99v324h279q53 0 94.5 -14t70 -39.5t43 -61t14.5 -77.5q0 -43 -14.5 -79t-43 -61.5t-70 -40t-94.5 -14.5h-205v-93h291v-63h-291v-157h-74v157zM396 376q74 0 114.5 32.5t40.5 95.5q0 62 -40.5 95.5t-114.5 33.5h-199v-257h199z" />
    <glyph glyph-name="uni20B6" unicode="&#x20bd;" horiz-adv-x="681" 
d="M123 157h-99v63h99v93h-99v63h99v324h279q53 0 94.5 -14t70 -39.5t43 -61t14.5 -77.5q0 -43 -14.5 -79t-43 -61.5t-70 -40t-94.5 -14.5h-205v-93h291v-63h-291v-157h-74v157zM396 376q74 0 114.5 32.5t40.5 95.5q0 62 -40.5 95.5t-114.5 33.5h-199v-257h199z" />
    <glyph glyph-name="uni20B6" unicode="&#x20bc;" horiz-adv-x="681" 
d="M123 157h-99v63h99v93h-99v63h99v324h279q53 0 94.5 -14t70 -39.5t43 -61t14.5 -77.5q0 -43 -14.5 -79t-43 -61.5t-70 -40t-94.5 -14.5h-205v-93h291v-63h-291v-157h-74v157zM396 376q74 0 114.5 32.5t40.5 95.5q0 62 -40.5 95.5t-114.5 33.5h-199v-257h199z" />
    <glyph glyph-name="uni20B6" unicode="&#x20bb;" horiz-adv-x="681" 
d="M123 157h-99v63h99v93h-99v63h99v324h279q53 0 94.5 -14t70 -39.5t43 -61t14.5 -77.5q0 -43 -14.5 -79t-43 -61.5t-70 -40t-94.5 -14.5h-205v-93h291v-63h-291v-157h-74v157zM396 376q74 0 114.5 32.5t40.5 95.5q0 62 -40.5 95.5t-114.5 33.5h-199v-257h199z" />
    <glyph glyph-name="uni20B6" unicode="&#x20ba;" horiz-adv-x="681" 
d="M123 157h-99v63h99v93h-99v63h99v324h279q53 0 94.5 -14t70 -39.5t43 -61t14.5 -77.5q0 -43 -14.5 -79t-43 -61.5t-70 -40t-94.5 -14.5h-205v-93h291v-63h-291v-157h-74v157zM396 376q74 0 114.5 32.5t40.5 95.5q0 62 -40.5 95.5t-114.5 33.5h-199v-257h199z" />
    <glyph glyph-name="uni20B6" unicode="&#x20b9;" horiz-adv-x="681" 
d="M123 157h-99v63h99v93h-99v63h99v324h279q53 0 94.5 -14t70 -39.5t43 -61t14.5 -77.5q0 -43 -14.5 -79t-43 -61.5t-70 -40t-94.5 -14.5h-205v-93h291v-63h-291v-157h-74v157zM396 376q74 0 114.5 32.5t40.5 95.5q0 62 -40.5 95.5t-114.5 33.5h-199v-257h199z" />
    <glyph glyph-name="uni20B6" unicode="&#x20b7;" horiz-adv-x="681" 
d="M123 157h-99v63h99v93h-99v63h99v324h279q53 0 94.5 -14t70 -39.5t43 -61t14.5 -77.5q0 -43 -14.5 -79t-43 -61.5t-70 -40t-94.5 -14.5h-205v-93h291v-63h-291v-157h-74v157zM396 376q74 0 114.5 32.5t40.5 95.5q0 62 -40.5 95.5t-114.5 33.5h-199v-257h199z" />
    <glyph glyph-name="uni2113" unicode="&#x2113;" horiz-adv-x="429" 
d="M143 150q0 -52 27 -73t70 -21q26 0 51 8t44 22v-68q-19 -15 -48 -22.5t-59 -7.5q-80 0 -115.5 42.5t-35.5 114.5v350q0 98 42 155.5t117 57.5q64 0 96.5 -42t32.5 -111q0 -53 -19.5 -104.5t-51 -99t-71 -90.5t-80.5 -79v-32zM143 268q24 24 52 56.5t52 69.5t40 77.5
t16 80.5q0 45 -15.5 68t-50.5 23q-16 0 -33 -8.5t-30.5 -26.5t-22 -46.5t-8.5 -68.5v-225z" />
    <glyph glyph-name="uni2116" unicode="&#x2116;" horiz-adv-x="1128" 
d="M764 306h299v-63h-299v63zM99 700h64l442 -572v572h72v-700h-63l-443 574v-574h-72v700zM914 712q37 0 68 -13t53.5 -36t35 -53.5t12.5 -65.5t-12.5 -66t-35 -54t-53.5 -36t-68 -13q-36 0 -67 13t-53 36t-34.5 54t-12.5 66t12.5 65.5t34.5 53.5t53 36t67 13zM914 430
q48 0 78.5 32.5t30.5 81.5q0 24 -8 44.5t-22.5 35.5t-34.5 24t-44 9t-44 -9t-34 -24t-22 -35.5t-8 -44.5q0 -49 30 -81.5t78 -32.5z" />
    <glyph glyph-name="trademark" unicode="&#x2122;" horiz-adv-x="690" 
d="M332 700h46l104 -135l103 135h46v-309h-49v233l-87 -111h-26l-88 111v-233h-49v309zM124 657h-100v43h252v-43h-103v-266h-49v266z" />
    <glyph glyph-name="Omega" unicode="&#x2126;" horiz-adv-x="804" 
d="M102 67h117q-24 24 -46 56.5t-38.5 71t-26 82.5t-9.5 91q0 73 21.5 136t61.5 109.5t95.5 72.5t124.5 26t124.5 -26t95.5 -72.5t61.5 -109.5t21.5 -136q0 -47 -9.5 -91t-26 -82.5t-38.5 -71t-47 -56.5h117v-67h-208v57q26 22 51 53t44 69.5t30.5 83.5t11.5 94
q0 63 -17 116t-47.5 90.5t-72.5 58.5t-91 21q-50 0 -91.5 -21t-72.5 -58.5t-48 -90.5t-17 -116q0 -49 11.5 -94t30.5 -83.5t44 -69.5t51 -53v-57h-208v67z" />
    <glyph glyph-name="estimated" unicode="&#x212e;" horiz-adv-x="805" 
d="M403 -12q-71 0 -132 25t-105.5 69t-70 104.5t-25.5 131.5q0 68 24.5 128.5t68.5 105.5t105 71.5t135 26.5q69 0 127 -23.5t100.5 -62.5t68.5 -90.5t32 -107.5q1 -9 2 -20.5t1 -24.5h-570v-198q42 -52 103 -81.5t136 -29.5q49 0 92.5 13t79.5 37t64 57.5t46 74.5h27
q-17 -44 -46 -81.5t-68 -65t-88.5 -43.5t-106.5 -16zM642 345v170q-42 51 -103.5 81t-135.5 30q-75 0 -136 -30t-103 -81v-170h478z" />
    <glyph glyph-name="onethird" unicode="&#x2153;" horiz-adv-x="782" 
d="M525 700h68l-412 -700h-69zM127 634l-104 -58v63l106 61h61v-378h-63v312zM597 -4q-38 0 -66.5 7.5t-49.5 21.5v58q22 -13 49.5 -22.5t61.5 -9.5q36 0 64 19.5t28 54.5q0 31 -22.5 50t-64.5 19q-13 0 -26.5 -2t-23.5 -6v41l105 99h-157v53h238v-47l-101 -96
q19 -2 40 -8.5t37.5 -20t27.5 -34.5t11 -50t-12 -52.5t-32.5 -40t-48 -25.5t-58.5 -9z" />
    <glyph glyph-name="twothirds" unicode="&#x2154;" horiz-adv-x="890" 
d="M632 700h68l-412 -700h-69zM44 368l121 110q36 33 53.5 57.5t17.5 51.5t-20 43.5t-53 16.5q-32 0 -59 -12t-50 -31v63q20 16 49.5 27t64.5 11q26 0 50 -8t42 -22t29 -35t11 -46q0 -40 -20.5 -73t-63.5 -71l-78 -75h174v-53h-268v46zM705 -4q-38 0 -66.5 7.5t-49.5 21.5
v58q22 -13 49.5 -22.5t61.5 -9.5q36 0 64 19.5t28 54.5q0 31 -22.5 50t-64.5 19q-13 0 -26.5 -2t-23.5 -6v41l105 99h-157v53h238v-47l-101 -96q19 -2 40 -8.5t37.5 -20t27.5 -34.5t11 -50t-12 -52.5t-32.5 -40t-48 -25.5t-58.5 -9z" />
    <glyph glyph-name="uni2155" unicode="&#x2155;" horiz-adv-x="764" 
d="M525 700h68l-412 -700h-69zM127 634l-104 -58v63l106 61h61v-378h-63v312zM570 -4q-35 0 -61 7t-48 19v59q20 -11 47 -20.5t60 -9.5q39 0 67 20t28 55q0 29 -25 49.5t-68 20.5q-24 0 -48 -3.5t-46 -11.5l25 198h200v-53h-153l-10 -86q9 3 21 4t25 1q61 0 101.5 -32
t40.5 -87q0 -31 -12.5 -55.5t-33.5 -41t-49.5 -25t-60.5 -8.5z" />
    <glyph glyph-name="uni2156" unicode="&#x2156;" horiz-adv-x="871" 
d="M632 700h68l-412 -700h-69zM44 368l121 110q36 33 53.5 57.5t17.5 51.5t-20 43.5t-53 16.5q-32 0 -59 -12t-50 -31v63q20 16 49.5 27t64.5 11q26 0 50 -8t42 -22t29 -35t11 -46q0 -40 -20.5 -73t-63.5 -71l-78 -75h174v-53h-268v46zM677 -4q-35 0 -61 7t-48 19v59
q20 -11 47 -20.5t60 -9.5q39 0 67 20t28 55q0 29 -25 49.5t-68 20.5q-24 0 -48 -3.5t-46 -11.5l25 198h200v-53h-153l-10 -86q9 3 21 4t25 1q61 0 101.5 -32t40.5 -87q0 -31 -12.5 -55.5t-33.5 -41t-49.5 -25t-60.5 -8.5z" />
    <glyph glyph-name="uni2157" unicode="&#x2157;" horiz-adv-x="813" 
d="M575 700h68l-412 -700h-69zM619 -4q-35 0 -61 7t-48 19v59q20 -11 47 -20.5t60 -9.5q39 0 67 20t28 55q0 29 -25 49.5t-68 20.5q-24 0 -48 -3.5t-46 -11.5l25 198h200v-53h-153l-10 -86q9 3 21 4t25 1q61 0 101.5 -32t40.5 -87q0 -31 -12.5 -55.5t-33.5 -41t-49.5 -25
t-60.5 -8.5zM142 317q-38 0 -66.5 7.5t-49.5 21.5v58q22 -13 49.5 -22.5t61.5 -9.5q36 0 64 19.5t28 54.5q0 31 -22.5 50t-64.5 19q-13 0 -26.5 -2t-23.5 -6v41l105 99h-157v53h238v-47l-101 -96q19 -2 40 -8.5t37.5 -20t27.5 -34.5t11 -50t-12 -52.5t-32.5 -40t-48 -25.5
t-58.5 -9z" />
    <glyph glyph-name="uni2158" unicode="&#x2158;" horiz-adv-x="856" 
d="M617 700h68l-412 -700h-69zM662 -4q-35 0 -61 7t-48 19v59q20 -11 47 -20.5t60 -9.5q39 0 67 20t28 55q0 29 -25 49.5t-68 20.5q-24 0 -48 -3.5t-46 -11.5l25 198h200v-53h-153l-10 -86q9 3 21 4t25 1q61 0 101.5 -32t40.5 -87q0 -31 -12.5 -55.5t-33.5 -41t-49.5 -25
t-60.5 -8.5zM218 420h-197v45l196 235h62v-229h59v-51h-59v-98h-61v98zM218 471v154l-130 -154h130z" />
    <glyph glyph-name="uni2159" unicode="&#x2159;" horiz-adv-x="768" 
d="M525 700h68l-412 -700h-69zM127 634l-104 -58v63l106 61h61v-378h-63v312zM597 -4q-37 0 -65 13t-46.5 36.5t-28 56t-9.5 70.5q0 43 11 81.5t32.5 67.5t54 46t74.5 17q23 0 45 -4.5t40 -17.5v-56q-19 13 -38.5 18.5t-40.5 5.5q-48 0 -80.5 -33.5t-34.5 -93.5
q16 20 41.5 32.5t57.5 12.5q52 0 88 -33t36 -90q0 -29 -10.5 -52.5t-29 -40.5t-43.5 -26.5t-54 -9.5zM595 47q33 0 54.5 22t21.5 56q0 33 -22 53.5t-55 20.5q-27 0 -50 -16.5t-34 -39.5q2 -43 24.5 -69.5t60.5 -26.5z" />
    <glyph glyph-name="uni215A" unicode="&#x215a;" horiz-adv-x="826" 
d="M582 700h68l-412 -700h-69zM655 -4q-37 0 -65 13t-46.5 36.5t-28 56t-9.5 70.5q0 43 11 81.5t32.5 67.5t54 46t74.5 17q23 0 45 -4.5t40 -17.5v-56q-19 13 -38.5 18.5t-40.5 5.5q-48 0 -80.5 -33.5t-34.5 -93.5q16 20 41.5 32.5t57.5 12.5q52 0 88 -33t36 -90
q0 -29 -10.5 -52.5t-29 -40.5t-43.5 -26.5t-54 -9.5zM653 47q33 0 54.5 22t21.5 56q0 33 -22 53.5t-55 20.5q-27 0 -50 -16.5t-34 -39.5q2 -43 24.5 -69.5t60.5 -26.5zM143 317q-35 0 -61 7t-48 19v59q20 -11 47 -20.5t60 -9.5q39 0 67 20t28 55q0 29 -25 49.5t-68 20.5
q-24 0 -48 -3.5t-46 -11.5l25 198h200v-53h-153l-10 -86q9 3 21 4t25 1q61 0 101.5 -32t40.5 -87q0 -31 -12.5 -55.5t-33.5 -41t-49.5 -25t-60.5 -8.5z" />
    <glyph glyph-name="oneeighth" unicode="&#x215b;" horiz-adv-x="786" 
d="M525 700h68l-412 -700h-69zM127 634l-104 -58v63l106 61h61v-378h-63v312zM605 -4q-31 0 -58.5 7.5t-48.5 21.5t-33 34.5t-12 47.5q0 35 21.5 59.5t53.5 36.5q-25 10 -40 31.5t-15 47.5q0 23 10 42t28 32.5t42 20.5t52 7q56 0 93.5 -27.5t37.5 -74.5q0 -26 -15 -47.5
t-40 -31.5q32 -12 53.5 -36.5t21.5 -59.5q0 -27 -12 -47.5t-32.5 -34.5t-48 -21.5t-58.5 -7.5zM605 47q38 0 63 18.5t25 46.5q0 30 -25 48t-63 18q-39 0 -64 -18t-25 -48q0 -28 25 -46.5t64 -18.5zM605 221q32 0 52 15t20 41t-20.5 41.5t-51.5 15.5q-32 0 -53 -15.5
t-21 -41.5t21 -41t53 -15z" />
    <glyph glyph-name="threeeighths" unicode="&#x215c;" horiz-adv-x="836" 
d="M575 700h68l-412 -700h-69zM655 -4q-31 0 -58.5 7.5t-48.5 21.5t-33 34.5t-12 47.5q0 35 21.5 59.5t53.5 36.5q-25 10 -40 31.5t-15 47.5q0 23 10 42t28 32.5t42 20.5t52 7q56 0 93.5 -27.5t37.5 -74.5q0 -26 -15 -47.5t-40 -31.5q32 -12 53.5 -36.5t21.5 -59.5
q0 -27 -12 -47.5t-32.5 -34.5t-48 -21.5t-58.5 -7.5zM655 47q38 0 63 18.5t25 46.5q0 30 -25 48t-63 18q-39 0 -64 -18t-25 -48q0 -28 25 -46.5t64 -18.5zM655 221q32 0 52 15t20 41t-20.5 41.5t-51.5 15.5q-32 0 -53 -15.5t-21 -41.5t21 -41t53 -15zM142 317
q-38 0 -66.5 7.5t-49.5 21.5v58q22 -13 49.5 -22.5t61.5 -9.5q36 0 64 19.5t28 54.5q0 31 -22.5 50t-64.5 19q-13 0 -26.5 -2t-23.5 -6v41l105 99h-157v53h238v-47l-101 -96q19 -2 40 -8.5t37.5 -20t27.5 -34.5t11 -50t-12 -52.5t-32.5 -40t-48 -25.5t-58.5 -9z" />
    <glyph glyph-name="fiveeighths" unicode="&#x215d;" horiz-adv-x="844" 
d="M582 700h68l-412 -700h-69zM143 317q-35 0 -61 7t-48 19v59q20 -11 47 -20.5t60 -9.5q39 0 67 20t28 55q0 29 -25 49.5t-68 20.5q-24 0 -48 -3.5t-46 -11.5l25 198h200v-53h-153l-10 -86q9 3 21 4t25 1q61 0 101.5 -32t40.5 -87q0 -31 -12.5 -55.5t-33.5 -41t-49.5 -25
t-60.5 -8.5zM663 -4q-31 0 -58.5 7.5t-48.5 21.5t-33 34.5t-12 47.5q0 35 21.5 59.5t53.5 36.5q-25 10 -40 31.5t-15 47.5q0 23 10 42t28 32.5t42 20.5t52 7q56 0 93.5 -27.5t37.5 -74.5q0 -26 -15 -47.5t-40 -31.5q32 -12 53.5 -36.5t21.5 -59.5q0 -27 -12 -47.5
t-32.5 -34.5t-48 -21.5t-58.5 -7.5zM663 47q38 0 63 18.5t25 46.5q0 30 -25 48t-63 18q-39 0 -64 -18t-25 -48q0 -28 25 -46.5t64 -18.5zM663 221q32 0 52 15t20 41t-20.5 41.5t-51.5 15.5q-32 0 -53 -15.5t-21 -41.5t21 -41t53 -15z" />
    <glyph glyph-name="seveneighths" unicode="&#x215e;" horiz-adv-x="776" 
d="M514 700h68l-412 -700h-69zM595 -4q-31 0 -58.5 7.5t-48.5 21.5t-33 34.5t-12 47.5q0 35 21.5 59.5t53.5 36.5q-25 10 -40 31.5t-15 47.5q0 23 10 42t28 32.5t42 20.5t52 7q56 0 93.5 -27.5t37.5 -74.5q0 -26 -15 -47.5t-40 -31.5q32 -12 53.5 -36.5t21.5 -59.5
q0 -27 -12 -47.5t-32.5 -34.5t-48 -21.5t-58.5 -7.5zM595 47q38 0 63 18.5t25 46.5q0 30 -25 48t-63 18q-39 0 -64 -18t-25 -48q0 -28 25 -46.5t64 -18.5zM595 221q32 0 52 15t20 41t-20.5 41.5t-51.5 15.5q-32 0 -53 -15.5t-21 -41.5t21 -41t53 -15zM220 647h-192v53h263
v-49l-168 -329h-69z" />
    <glyph glyph-name="uni215F" unicode="&#x215f;" horiz-adv-x="425" 
d="M525 700h68l-412 -700h-69zM127 634l-104 -58v63l106 61h61v-378h-63v312z" />
    <glyph glyph-name="arrowleft" unicode="&#x2190;" horiz-adv-x="724" 
d="M166 296h479v-58h-479l160 -178h-78l-186 207l186 207h78z" />
    <glyph glyph-name="arrowup" unicode="&#x2191;" horiz-adv-x="571" 
d="M315 479v-479h-58v479l-178 -160v78l207 186l207 -186v-78z" />
    <glyph glyph-name="arrowright" unicode="&#x2192;" horiz-adv-x="724" 
d="M398 474h78l186 -207l-186 -207h-78l159 178h-478v58h478z" />
    <glyph glyph-name="arrowdown" unicode="&#x2193;" horiz-adv-x="571" 
d="M256 94v478h58v-478l179 159v-78l-208 -185l-206 185v78z" />
    <glyph glyph-name="partialdiff" unicode="&#x2202;" horiz-adv-x="628" 
d="M273 -13q-48 0 -88.5 15.5t-70.5 44t-47 68.5t-17 90q0 51 18 96.5t49.5 79t75 53t94.5 19.5q38 0 69.5 -9t57 -24t43.5 -34t29 -39q1 6 1 12.5v13.5q0 45 -13 93t-39.5 87.5t-66 64.5t-93.5 25q-76 0 -143 -41v64q31 20 69.5 31t79.5 11q63 0 114 -25.5t87 -71.5
t55.5 -110.5t19.5 -143.5q0 -65 -15 -131t-48.5 -119t-87.5 -86.5t-133 -33.5zM277 52q82 0 134 55t66 146q-9 29 -26 54t-40.5 43.5t-52 29t-59.5 10.5q-36 0 -68 -13t-56 -36t-38.5 -56t-14.5 -72q0 -36 11.5 -65.5t32.5 -50.5t49.5 -33t61.5 -12z" />
    <glyph glyph-name="Delta" unicode="&#x2206;" horiz-adv-x="753" 
d="M342 700h69l313 -700h-694zM618 67l-242 540l-242 -540h484z" />
    <glyph glyph-name="product" unicode="&#x220f;" horiz-adv-x="760" 
d="M176 633h-113v67h634v-67h-114v-762h-74v762h-259v-762h-74v762z" />
    <glyph glyph-name="summation" unicode="&#x2211;" horiz-adv-x="603" 
d="M59 53l257 297l-253 297v53h492v-67h-388l224 -266v-33l-228 -267h394v-67h-498v53z" />
    <glyph glyph-name="minus" unicode="&#x2212;" horiz-adv-x="619" 
d="M70 359h479v-67h-479v67z" />
    <glyph glyph-name="uni2215" unicode="&#x2215;" horiz-adv-x="518" 
d="M436 700h67l-412 -700h-67z" />
    <glyph glyph-name="uni2219" unicode="&#x2219;" horiz-adv-x="230" 
d="M64 235q0 22 15 37t37 15t37 -15t15 -37t-15 -37t-37 -15t-37 15t-15 37z" />
    <glyph glyph-name="radical" unicode="&#x221a;" horiz-adv-x="678" 
d="M133 420h-140v63h186l171 -393l233 610h70l-270 -700h-64z" />
    <glyph glyph-name="infinity" unicode="&#x221e;" horiz-adv-x="800" 
d="M220 147q-35 0 -64.5 11.5t-51.5 33.5t-34.5 53t-12.5 69q0 37 12.5 67.5t34.5 52t52 33.5t64 12q30 0 55.5 -10t47.5 -26.5t41.5 -38t36.5 -44.5q15 21 33 42t40 38.5t49 28t59 10.5q37 0 67 -13t51 -35.5t32.5 -52.5t11.5 -64q0 -36 -11.5 -66.5t-33 -53t-51.5 -35
t-66 -12.5q-29 0 -54.5 9.5t-48 25.5t-42 38t-37.5 46q-17 -23 -36 -44.5t-40.5 -38t-47.5 -26.5t-56 -10zM225 201q24 0 44.5 10t38 26t32.5 36t29 40q-14 20 -29.5 40t-33 36t-38 26t-44.5 10q-28 0 -48.5 -10t-33.5 -26t-19.5 -36t-6.5 -39q0 -20 6 -40t19.5 -36.5
t34 -26.5t49.5 -10zM576 201q28 0 49 10t34 26.5t19.5 36.5t6.5 40q0 19 -6.5 39t-19.5 35.5t-34 25.5t-49 10q-24 0 -44 -9t-37.5 -24.5t-33 -35.5t-30.5 -42q14 -20 29.5 -40t33 -36t38 -26t44.5 -10z" />
    <glyph glyph-name="integral" unicode="&#x222b;" horiz-adv-x="523" 
d="M26 -204q-23 0 -45 4t-40 13v65q17 -8 35 -12.5t37 -4.5q55 0 89.5 37t45.5 109l79 510q13 88 58.5 139.5t132.5 51.5q24 0 46 -4t41 -12v-66q-17 8 -35.5 12.5t-38.5 4.5q-54 0 -87 -31t-46 -110l-80 -513q-6 -40 -20.5 -75t-38 -61.5t-56.5 -41.5t-77 -15z" />
    <glyph glyph-name="approxequal" unicode="&#x2248;" horiz-adv-x="664" 
d="M469 372q-38 0 -71.5 9t-66.5 19.5t-66.5 19.5t-70.5 9q-79 0 -124 -47v67q15 19 49.5 31.5t74.5 12.5q37 0 71 -9t66.5 -19.5t66 -19.5t71.5 -9q79 0 125 48v-68q-16 -19 -50 -31.5t-75 -12.5zM469 143q-38 0 -71.5 9t-66.5 19.5t-66.5 19.5t-70.5 9q-78 0 -124 -48v68
q15 19 49.5 31.5t74.5 12.5q37 0 71 -9t66.5 -20t66 -20t71.5 -9q79 0 125 48v-67q-16 -19 -50 -31.5t-75 -12.5z" />
    <glyph glyph-name="notequal" unicode="&#x2260;" horiz-adv-x="619" 
d="M70 472h283l62 116h66l-62 -116h130v-66h-165l-85 -162h250v-66h-285l-62 -119h-66l62 119h-128v66h163l85 162h-248v66z" />
    <glyph glyph-name="lessequal" unicode="&#x2264;" horiz-adv-x="619" 
d="M70 358v63l479 188v-73l-401 -147l401 -146v-73zM70 119h478v-65h-478v65z" />
    <glyph glyph-name="greaterequal" unicode="&#x2265;" horiz-adv-x="619" 
d="M70 243l401 146l-401 147v73l479 -188v-63l-479 -188v73zM70 119h479v-65h-479v65z" />
    <glyph glyph-name="dotmath" unicode="&#x22c5;" horiz-adv-x="236" 
d="M66 381q0 22 15 37t37 15t37 -15t15 -37t-15 -37t-37 -15t-37 15t-15 37z" />
    <glyph glyph-name="lozenge" unicode="&#x25ca;" horiz-adv-x="562" 
d="M314 0h-66l-200 350l200 350h66l201 -350zM444 350l-163 288l-162 -288l163 -288z" />
    <glyph glyph-name="uniF401" unicode="&#xf401;" horiz-adv-x="20" 
d="M-330 896h92l-118 -133h-69z" />
    <glyph glyph-name="uniF639" unicode="&#xf639;" 
d="M318 -12q-62 0 -111.5 28.5t-84 77.5t-53.5 115t-19 141t19 141t53.5 115t84 77.5t111.5 28.5t111.5 -28.5t84.5 -77.5t54 -115t19 -141t-19 -141t-54 -115t-84.5 -77.5t-111.5 -28.5zM318 55q44 0 80 22.5t61.5 62.5t39.5 94t14 116t-14 116t-39.5 93.5t-61.5 62.5
t-80 23t-79.5 -23t-61 -62.5t-39.5 -93.5t-14 -116t14 -116t39.5 -94t61 -62.5t79.5 -22.5z" />
    <glyph glyph-name="uniF63A" unicode="&#xf63a;" 
d="M79 55l236 225q35 33 61.5 60.5t44 53.5t26.5 52.5t9 57.5q0 62 -43.5 100.5t-115.5 38.5q-34 0 -62.5 -7.5t-53 -20t-46 -30t-40.5 -36.5v83q35 32 86.5 56t122.5 24q48 0 89 -14t71.5 -40.5t48 -63t17.5 -81.5q0 -38 -9.5 -69.5t-28.5 -62.5t-48 -63t-69 -70l-188 -181
h369v-67h-477v55z" />
    <glyph glyph-name="uniF63B" unicode="&#xf63b;" 
d="M280 -12q-65 0 -116 14t-88 37v77q35 -25 86 -42t114 -17q38 0 73.5 11t63 32t44 51.5t16.5 70.5q0 72 -51 115.5t-139 43.5q-23 0 -42 -2.5t-36 -7.5v51l216 211h-316v67h416v-55l-209 -205q43 -1 85 -16t75.5 -43.5t54 -68.5t20.5 -90q0 -53 -21 -96.5t-57 -74t-85 -47
t-104 -16.5z" />
    <glyph glyph-name="uniF63C" unicode="&#xf63c;" 
d="M412 193h-376v59l377 448h71v-440h116v-67h-116v-193h-72v193zM412 260v342l-290 -342h290z" />
    <glyph glyph-name="uniF63D" unicode="&#xf63d;" 
d="M277 -12q-61 0 -108.5 12.5t-84.5 33.5v74q33 -20 81.5 -35.5t109.5 -15.5q44 0 81.5 12t65 33.5t43 52t15.5 66.5q0 34 -14 63.5t-39.5 51t-62.5 33.5t-83 12q-87 0 -168 -29l46 348h346v-67h-290l-28 -202q23 6 49.5 9.5t61.5 3.5q55 0 101.5 -16.5t81 -45.5t54 -70.5
t19.5 -90.5q0 -53 -21.5 -95.5t-58.5 -73.5t-88 -47.5t-109 -16.5z" />
    <glyph glyph-name="uniF63E" unicode="&#xf63e;" 
d="M337 -12q-61 0 -110 22t-83.5 64t-53 103t-18.5 139q0 82 20.5 154.5t59.5 126t95.5 84.5t128.5 31q40 0 78 -10.5t70 -32.5v-71q-66 45 -142 45q-63 0 -107.5 -26t-73 -68.5t-42.5 -96t-15 -108.5q26 45 78.5 74.5t126.5 29.5q46 0 87 -16t72 -45.5t49 -70.5t18 -91
q0 -52 -18.5 -95.5t-50.5 -75t-75.5 -49t-93.5 -17.5zM333 57q36 0 66.5 12.5t53.5 35t36 53t13 67.5t-13.5 66t-36.5 49.5t-54 31.5t-67 11q-32 0 -61 -10.5t-53.5 -29t-43 -43.5t-27.5 -53q9 -88 55.5 -139t131.5 -51z" />
    <glyph glyph-name="uniF63F" unicode="&#xf63f;" 
d="M469 633h-377v67h462v-55l-327 -645h-78z" />
    <glyph glyph-name="uniF640" unicode="&#xf640;" 
d="M435 369q67 -17 108.5 -63t41.5 -115q0 -47 -21 -84.5t-57 -64t-84.5 -40.5t-103.5 -14t-103.5 14t-84.5 40.5t-57 64t-21 84.5q0 69 42 115t109 63q-51 21 -83.5 61.5t-32.5 98.5q0 41 17.5 74.5t48.5 57.5t73.5 37.5t91.5 13.5t91.5 -13.5t74 -37.5t49 -57.5
t17.5 -74.5q0 -58 -32.5 -98.5t-83.5 -61.5zM158 523q0 -28 12.5 -51t34 -39t51 -25t63.5 -9t63.5 9t51.5 25t34.5 39t12.5 51t-12.5 51.5t-34.5 40t-51.5 25.5t-63.5 9t-63.5 -9t-51 -25.5t-34 -40t-12.5 -51.5zM319 51q41 0 76 11t61 30.5t41 45.5t15 57q0 32 -15 58
t-41 44.5t-61 28.5t-76 10t-76 -10t-60.5 -28.5t-40.5 -44.5t-15 -58q0 -31 15 -57t40.5 -45.5t60.5 -30.5t76 -11z" />
    <glyph glyph-name="uniF641" unicode="&#xf641;" 
d="M300 712q61 0 110 -22t83.5 -64t53 -103t18.5 -139q0 -83 -20.5 -155t-59.5 -125.5t-95.5 -84.5t-128.5 -31q-40 0 -78 10.5t-70 32.5v71q66 -45 142 -45q63 0 107.5 26t73 68.5t42.5 96t15 108.5q-26 -45 -78.5 -74.5t-126.5 -29.5q-46 0 -87 16t-72 45t-49 70.5
t-18 91.5q0 52 18.5 95.5t50.5 75t75.5 49t93.5 17.5zM304 643q-36 0 -66.5 -12.5t-53.5 -35t-36 -53t-13 -67.5t13.5 -66t36.5 -49.5t54 -31.5t67 -11q31 0 60.5 10.5t54 29t43 43t27.5 53.5q-9 88 -55.5 139t-131.5 51z" />
    <glyph glyph-name="uniF643" unicode="&#xf643;" 
d="M319 495q59 0 107 -20.5t82.5 -55.5t53 -81t18.5 -97t-18.5 -97t-53 -80.5t-82.5 -55t-107 -20.5t-107 20.5t-82.5 55t-53 80.5t-18.5 97t18.5 97t53 81t82.5 55.5t107 20.5zM319 53q40 0 74.5 14.5t59.5 40t39 59.5t14 74t-14 74.5t-39 60t-59.5 40t-74.5 14.5
q-41 0 -75 -14.5t-59 -40t-39 -60t-14 -74.5t14 -74t39 -59.5t59 -40t75 -14.5z" />
    <glyph glyph-name="uniF644" unicode="&#xf644;" 
d="M105 67h194v336l-157 -90v71l165 99h65v-416h186v-67h-453v67z" />
    <glyph glyph-name="uniF645" unicode="&#xf645;" 
d="M92 55q47 25 89 49q36 20 73 40.5t58 34.5q21 13 44 28.5t41.5 33.5t31 39t12.5 45q0 48 -36.5 75t-99.5 27q-61 0 -111 -25t-89 -58v75q35 29 85 52.5t121 23.5q46 0 83.5 -12t64.5 -33t41.5 -50.5t14.5 -65.5q0 -35 -14 -63.5t-36.5 -51.5t-50.5 -42t-56 -35l-135 -75
h318v-67h-449v55z" />
    <glyph glyph-name="uniF646" unicode="&#xf646;" 
d="M280 -204q-65 0 -116 14t-88 37v77q35 -24 86 -41.5t114 -17.5q37 0 72.5 10t63 30t44 49.5t16.5 69.5q0 72 -50.5 112t-138.5 40q-23 0 -42.5 -2.5t-35.5 -7.5v52l214 198h-314v67h415v-55l-208 -193q43 -1 85 -15t75 -41t53.5 -66t20.5 -89q0 -53 -21 -95.5t-57 -72
t-84.5 -45t-103.5 -15.5z" />
    <glyph glyph-name="uniF647" unicode="&#xf647;" 
d="M412 0h-376v58l377 425h71v-416h116v-67h-116v-200h-72v200zM412 67v322l-289 -322h289z" />
    <glyph glyph-name="uniF648" unicode="&#xf648;" 
d="M274 -204q-61 0 -108.5 12.5t-84.5 33.5v75q33 -20 81.5 -36t109.5 -16q44 0 81.5 12t65 33.5t43 51.5t15.5 66q0 69 -53 112t-146 43q-87 0 -168 -29l45 329h346v-67h-290l-26 -182q22 5 48.5 8.5t61.5 3.5q55 0 101.5 -15.5t81 -44t54 -69t19.5 -89.5
q0 -53 -21.5 -95.5t-58.5 -73t-88 -47t-109 -16.5z" />
    <glyph glyph-name="uniF649" unicode="&#xf649;" 
d="M337 -12q-61 0 -110 22t-83.5 64t-53 103t-18.5 139q0 82 20.5 154.5t59.5 126t95.5 84.5t128.5 31q40 0 78 -10.5t70 -32.5v-71q-66 45 -142 45q-63 0 -107.5 -26t-73 -68.5t-42.5 -96t-15 -108.5q26 45 78.5 74.5t126.5 29.5q46 0 87 -16t72 -45.5t49 -70.5t18 -91
q0 -52 -18.5 -95.5t-50.5 -75t-75.5 -49t-93.5 -17.5zM333 57q36 0 66.5 12.5t53.5 35t36 53t13 67.5t-13.5 66t-36.5 49.5t-54 31.5t-67 11q-32 0 -61 -10.5t-53.5 -29t-43 -43.5t-27.5 -53q9 -88 55.5 -139t131.5 -51z" />
    <glyph glyph-name="uniF64A" unicode="&#xf64a;" 
d="M468 416h-377v67h462v-55l-319 -628h-78z" />
    <glyph glyph-name="uniF64B" unicode="&#xf64b;" 
d="M435 369q67 -17 108.5 -63t41.5 -115q0 -47 -21 -84.5t-57 -64t-84.5 -40.5t-103.5 -14t-103.5 14t-84.5 40.5t-57 64t-21 84.5q0 69 42 115t109 63q-51 21 -83.5 61.5t-32.5 98.5q0 41 17.5 74.5t48.5 57.5t73.5 37.5t91.5 13.5t91.5 -13.5t74 -37.5t49 -57.5
t17.5 -74.5q0 -58 -32.5 -98.5t-83.5 -61.5zM158 523q0 -28 12.5 -51t34 -39t51 -25t63.5 -9t63.5 9t51.5 25t34.5 39t12.5 51t-12.5 51.5t-34.5 40t-51.5 25.5t-63.5 9t-63.5 -9t-51 -25.5t-34 -40t-12.5 -51.5zM319 51q41 0 76 11t61 30.5t41 45.5t15 57q0 32 -15 58
t-41 44.5t-61 28.5t-76 10t-76 -10t-60.5 -28.5t-40.5 -44.5t-15 -58q0 -31 15 -57t40.5 -45.5t60.5 -30.5t76 -11z" />
    <glyph glyph-name="uniF64C" unicode="&#xf64c;" 
d="M302 495q61 0 110 -22t83.5 -64t53 -103t18.5 -139q0 -83 -20.5 -151t-59.5 -117t-95.5 -76t-128.5 -27q-40 0 -78 10.5t-70 32.5v71q66 -45 142 -45q63 0 107.5 22t73 59.5t42.5 87.5t15 105q-26 -45 -78.5 -74.5t-126.5 -29.5q-46 0 -87 16t-72 45t-49 70.5t-18 91.5
q0 52 18.5 95.5t50.5 75t75.5 49t93.5 17.5zM306 426q-36 0 -66.5 -12.5t-53.5 -35t-36 -53t-13 -67.5t13.5 -66t36.5 -49.5t54 -31.5t67 -11q31 0 60.5 10.5t54 29t43 43t27.5 53.5q-9 88 -55.5 139t-131.5 51z" />
    <glyph glyph-name="uniF64E" unicode="&#xf64e;" horiz-adv-x="575" 
d="M31 207h67q-1 8 -1.5 17t-0.5 18q0 7 0.5 14.5t1.5 14.5h-67v51h77q12 38 35 70t55 55t71.5 35.5t83.5 12.5t79.5 -9t66.5 -26v-67q-66 37 -136 37q-60 0 -108.5 -29t-71.5 -79h213v-51h-227q-1 -7 -1.5 -14.5t-0.5 -15.5q0 -19 3 -34h226v-51h-210q23 -48 70 -75.5
t107 -27.5q43 0 78.5 11t66.5 31v-66q-68 -41 -156 -41q-44 0 -82.5 12t-70 34.5t-54.5 53t-35 68.5h-79v51z" />
    <glyph glyph-name="uniF653" unicode="&#xf653;" horiz-adv-x="502" 
d="M217 -117v106q-54 4 -99 18t-69 31v74q13 -9 32.5 -19t45 -19t56 -15t64.5 -6q62 0 97.5 20.5t35.5 56.5q0 21 -12 34.5t-33 22t-48.5 14.5t-57.5 14q-38 10 -69.5 21.5t-53.5 28t-34 40t-12 56.5q0 54 40 89.5t117 42.5v107h66v-106q42 -3 81 -14t66 -28v-71
q-33 20 -78.5 34.5t-94.5 14.5q-65 0 -94.5 -20.5t-29.5 -50.5q0 -21 12.5 -35t33.5 -23t47 -15t53 -12q35 -8 66.5 -19t55.5 -27.5t38.5 -40.5t14.5 -58q0 -30 -13 -54t-35.5 -42t-54 -29t-68.5 -14v-107h-66z" />
    <glyph glyph-name="commaaccent" unicode="&#xf6c3;" horiz-adv-x="231" 
d="M114 -54h75l-74 -177h-57z" />
    <glyph glyph-name="cyrbreve" unicode="&#xf6d4;" horiz-adv-x="489" 
d="M254 565q-73 0 -118 41t-46 111h64q0 -41 26.5 -67.5t72.5 -26.5q45 0 71.5 26.5t27.5 67.5h63q0 -35 -12.5 -63t-34.5 -48t-51 -30.5t-63 -10.5z" />
    <glyph glyph-name="uniF6DC" unicode="&#xf6dc;" 
d="M100 67h199v553l-158 -90v71l165 99h65v-633h190v-67h-461v67z" />
    <glyph glyph-name="uniF721" unicode="&#xf721;" horiz-adv-x="543" 
d="M292 -12q-40 0 -74.5 7t-60.5 20.5t-41 34t-15 48.5q0 23 10.5 42t25.5 30h-71v51h406v-51h-251q-17 -8 -31.5 -22t-14.5 -34q0 -26 30.5 -43.5t93.5 -17.5q40 0 80 7.5t70 19.5v-66q-32 -13 -73 -19.5t-84 -6.5zM265 495q40 0 73.5 -6.5t58.5 -20t39 -34t14 -48.5
q0 -22 -10 -39.5t-23 -24.5h55v-51h-406v51h267q17 6 30 17.5t13 31.5q0 26 -27.5 42.5t-90.5 16.5q-40 0 -77.5 -7t-68.5 -20v66q66 26 153 26z" />
    <glyph glyph-name="uniF722" unicode="&#xf722;" horiz-adv-x="591" 
d="M117 67h-77v51h77v60h-77v51h77v254h237q44 0 77.5 -12t56 -32.5t34 -49t11.5 -61.5q0 -69 -48.5 -109.5t-133.5 -40.5h-162v-60h200v-51h-200v-67h-72v67zM341 229q57 0 88.5 23.5t31.5 71.5t-31.5 72t-88.5 24h-152v-191h152z" />
    <glyph glyph-name="uniF725" unicode="&#xf725;" horiz-adv-x="535" 
d="M54 243h69v66q0 90 54 138t153 48q44 0 79 -8.5t67 -27.5v-69q-32 20 -64.5 30t-74.5 10q-72 0 -107 -30.5t-35 -96.5v-60h230v-59h-230v-68q0 -20 -6.5 -33t-15.5 -20h310v-63h-429v63h27q15 0 23.5 7t12.5 17.5t5 23t1 23.5v50h-69v59z" />
    <glyph glyph-name="uniF727" unicode="&#xf727;" horiz-adv-x="572" 
d="M250 84h-156v51h156v62h-156v51h139l-184 235h84l154 -199l154 199h83l-186 -235h139v-51h-155v-62h155v-51h-155v-84h-72v84z" />
    <glyph glyph-name="uniF730" unicode="&#xf730;" horiz-adv-x="621" 
d="M311 495q59 0 107 -20.5t82.5 -55.5t53 -81t18.5 -97t-18.5 -97t-53 -80.5t-82.5 -55t-107 -20.5t-107 20.5t-82.5 55t-53 80.5t-18.5 97t18.5 97t53 81t82.5 55.5t107 20.5zM311 53q40 0 74.5 14.5t59.5 40t39 59.5t14 74t-14 74.5t-39 60t-59.5 40t-74.5 14.5
q-41 0 -75 -14.5t-59 -40t-39 -60t-14 -74.5t14 -74t39 -59.5t59 -40t75 -14.5z" />
    <glyph glyph-name="uniF731" unicode="&#xf731;" horiz-adv-x="365" 
d="M191 403l-157 -90v71l165 99h65v-483h-73v403z" />
    <glyph glyph-name="uniF732" unicode="&#xf732;" horiz-adv-x="566" 
d="M55 55q47 25 89 49q36 20 73 40.5t58 34.5q21 13 44 28.5t41.5 33.5t31 39t12.5 45q0 48 -36.5 75t-99.5 27q-61 0 -111 -25t-89 -58v75q35 29 85 52.5t121 23.5q46 0 83.5 -12t64.5 -33t41.5 -50.5t14.5 -65.5q0 -35 -14 -63.5t-36.5 -51.5t-50.5 -42t-56 -35l-135 -75
h318v-67h-449v55z" />
    <glyph glyph-name="uniF733" unicode="&#xf733;" horiz-adv-x="561" 
d="M234 -204q-65 0 -116 14t-88 37v77q35 -24 86 -41.5t114 -17.5q37 0 72.5 10t63 30t44 49.5t16.5 69.5q0 72 -50.5 112t-138.5 40q-23 0 -42.5 -2.5t-35.5 -7.5v52l214 198h-314v67h415v-55l-208 -193q43 -1 85 -15t75 -41t53.5 -66t20.5 -89q0 -53 -21 -95.5t-57 -72
t-84.5 -45t-103.5 -15.5z" />
    <glyph glyph-name="uniF734" unicode="&#xf734;" horiz-adv-x="633" 
d="M412 0h-376v58l377 425h71v-416h116v-67h-116v-200h-72v200zM412 67v322l-289 -322h289z" />
    <glyph glyph-name="uniF735" unicode="&#xf735;" horiz-adv-x="594" 
d="M254 -204q-61 0 -108.5 12.5t-84.5 33.5v75q33 -20 81.5 -36t109.5 -16q44 0 81.5 12t65 33.5t43 51.5t15.5 66q0 69 -53 112t-146 43q-87 0 -168 -29l45 329h346v-67h-290l-26 -182q22 5 48.5 8.5t61.5 3.5q55 0 101.5 -15.5t81 -44t54 -69t19.5 -89.5
q0 -53 -21.5 -95.5t-58.5 -73t-88 -47t-109 -16.5z" />
    <glyph glyph-name="uniF736" unicode="&#xf736;" horiz-adv-x="641" 
d="M336 -12q-61 0 -110 22t-83.5 64t-53 103t-18.5 139q0 82 20.5 154.5t59.5 126t95.5 84.5t128.5 31q40 0 78 -10.5t70 -32.5v-71q-66 45 -142 45q-63 0 -107.5 -26t-73 -68.5t-42.5 -96t-15 -108.5q26 45 78.5 74.5t126.5 29.5q46 0 87 -16t72 -45.5t49 -70.5t18 -91
q0 -52 -18.5 -95.5t-50.5 -75t-75.5 -49t-93.5 -17.5zM332 57q36 0 66.5 12.5t53.5 35t36 53t13 67.5t-13.5 66t-36.5 49.5t-54 31.5t-67 11q-32 0 -61 -10.5t-53.5 -29t-43 -43.5t-27.5 -53q9 -88 55.5 -139t131.5 -51z" />
    <glyph glyph-name="uniF737" unicode="&#xf737;" horiz-adv-x="541" 
d="M419 416h-377v67h462v-55l-319 -628h-78z" />
    <glyph glyph-name="uniF738" unicode="&#xf738;" horiz-adv-x="646" 
d="M439 369q67 -17 108.5 -63t41.5 -115q0 -47 -21 -84.5t-57 -64t-84.5 -40.5t-103.5 -14t-103.5 14t-84.5 40.5t-57 64t-21 84.5q0 69 42 115t109 63q-51 21 -83.5 61.5t-32.5 98.5q0 41 17.5 74.5t48.5 57.5t73.5 37.5t91.5 13.5t91.5 -13.5t74 -37.5t49 -57.5
t17.5 -74.5q0 -58 -32.5 -98.5t-83.5 -61.5zM162 523q0 -28 12.5 -51t34 -39t51 -25t63.5 -9t63.5 9t51.5 25t34.5 39t12.5 51t-12.5 51.5t-34.5 40t-51.5 25.5t-63.5 9t-63.5 -9t-51 -25.5t-34 -40t-12.5 -51.5zM323 51q41 0 76 11t61 30.5t41 45.5t15 57q0 32 -15 58
t-41 44.5t-61 28.5t-76 10t-76 -10t-60.5 -28.5t-40.5 -44.5t-15 -58q0 -31 15 -57t40.5 -45.5t60.5 -30.5t76 -11z" />
    <glyph glyph-name="uniF739" unicode="&#xf739;" horiz-adv-x="640" 
d="M306 495q61 0 110 -22t83.5 -64t53 -103t18.5 -139q0 -83 -20.5 -151t-59.5 -117t-95.5 -76t-128.5 -27q-40 0 -78 10.5t-70 32.5v71q66 -45 142 -45q63 0 107.5 22t73 59.5t42.5 87.5t15 105q-26 -45 -78.5 -74.5t-126.5 -29.5q-46 0 -87 16t-72 45t-49 70.5t-18 91.5
q0 52 18.5 95.5t50.5 75t75.5 49t93.5 17.5zM310 426q-36 0 -66.5 -12.5t-53.5 -35t-36 -53t-13 -67.5t13.5 -66t36.5 -49.5t54 -31.5t67 -11q31 0 60.5 10.5t54 29t43 43t27.5 53.5q-9 88 -55.5 139t-131.5 51z" />
    <glyph glyph-name="uniFEFF" unicode="&#xfeff;" horiz-adv-x="0" 
 />
    <glyph glyph-name="atilde.alt" 
d="M552 483v-483h-72v77q-28 -37 -75 -63t-112 -26q-55 0 -99.5 20.5t-76.5 55t-49.5 80.5t-17.5 97t17.5 97.5t49.5 81t76.5 55t99.5 20.5q65 0 112 -26t75 -63v77h72zM480 321q-21 47 -67 78t-103 31q-41 0 -75 -14.5t-58.5 -40t-38.5 -60t-14 -74.5t14 -74t38.5 -59.5
t58.5 -40t75 -14.5q28 0 54 8.5t48.5 23t39.5 34.5t28 43v159zM385 589q-20 0 -38.5 8.5t-36 19t-33 19.5t-30.5 9q-21 0 -30 -16t-11 -36h-49q2 47 25 78.5t62 31.5q20 0 38.5 -9t36 -19.5t33.5 -19t30 -8.5q22 0 29.5 16t11.5 36h49q-1 -48 -24 -79t-63 -31z" />
    <glyph glyph-name="uni041F_uni0418" horiz-adv-x="1246" 
d="M99 700h549v-576l435 576h65v-700h-73v578l-438 -578h-63v633h-401v-633h-74v700z" />
    <glyph glyph-name="uni043F_uni0438" horiz-adv-x="980" 
d="M447 420h-290v-420h-72v483h434v-377l309 377h67v-483h-72v376l-309 -376h-67v420z" />
    <glyph glyph-name="T_h" horiz-adv-x="1089" 
d="M277 633h-241v67h600v-291q14 16 33 31.5t43.5 27.5t53.5 19.5t63 7.5q92 0 138 -53.5t46 -147.5v-294h-72v278q0 48 -13.5 77t-33.5 45t-44 21.5t-46 5.5q-26 0 -51 -9t-47.5 -23t-40.5 -32t-29 -37v-326h-72v633h-213v-633h-74v633z" />
    <glyph glyph-name="f_j" horiz-adv-x="601" 
d="M361 -204q-20 0 -44.5 4.5t-40.5 13.5v66q14 -8 32 -13.5t38 -5.5q85 0 85 97v462h-236v-420h-72v420h-96v63h96v81q0 65 34.5 104.5t103.5 39.5q29 0 54 -4t48 -15v-66q-17 8 -37.5 14t-46.5 6q-42 0 -63 -24t-21 -69v-67h308v-536q0 -41 -11.5 -70t-31 -47t-45 -26
t-54.5 -8zM466 598q-21 0 -35.5 14.5t-14.5 36.5t14.5 36.5t35.5 14.5q22 0 37 -14.5t15 -36.5t-15 -36.5t-37 -14.5z" />
    <glyph glyph-name="adieresis.alt" 
d="M552 483v-483h-72v77q-28 -37 -75 -63t-112 -26q-55 0 -99.5 20.5t-76.5 55t-49.5 80.5t-17.5 97t17.5 97.5t49.5 81t76.5 55t99.5 20.5q65 0 112 -26t75 -63v77h72zM480 321q-21 47 -67 78t-103 31q-41 0 -75 -14.5t-58.5 -40t-38.5 -60t-14 -74.5t14 -74t38.5 -59.5
t58.5 -40t75 -14.5q28 0 54 8.5t48.5 23t39.5 34.5t28 43v159zM165 646q0 20 13.5 33.5t33.5 13.5t33.5 -13.5t13.5 -33.5t-13.5 -33.5t-33.5 -13.5t-33.5 13.5t-13.5 33.5zM365 646q0 20 13.5 33.5t33.5 13.5t33.5 -13.5t13.5 -33.5t-13.5 -33.5t-33.5 -13.5t-33.5 13.5
t-13.5 33.5z" />
    <glyph glyph-name="uniF64E.mono" 
d="M61 207h67q-1 8 -1.5 17t-0.5 18q0 7 0.5 14.5t1.5 14.5h-67v51h77q12 38 35 70t55 55t71.5 35.5t83.5 12.5t79.5 -9t66.5 -26v-67q-66 37 -136 37q-60 0 -108.5 -29t-71.5 -79h213v-51h-227q-1 -7 -1.5 -14.5t-0.5 -15.5q0 -19 3 -34h226v-51h-210q23 -48 70 -75.5
t107 -27.5q43 0 78.5 11t66.5 31v-66q-68 -41 -156 -41q-44 0 -82.5 12t-70 34.5t-54.5 53t-35 68.5h-79v51z" />
    <glyph glyph-name="agrave.alt" 
d="M552 483v-483h-72v77q-28 -37 -75 -63t-112 -26q-55 0 -99.5 20.5t-76.5 55t-49.5 80.5t-17.5 97t17.5 97.5t49.5 81t76.5 55t99.5 20.5q65 0 112 -26t75 -63v77h72zM480 321q-21 47 -67 78t-103 31q-41 0 -75 -14.5t-58.5 -40t-38.5 -60t-14 -74.5t14 -74t38.5 -59.5
t58.5 -40t75 -14.5q28 0 54 8.5t48.5 23t39.5 34.5t28 43v159zM190 710h91l96 -134h-69z" />
    <glyph glyph-name="aacute.alt" 
d="M552 483v-483h-72v77q-28 -37 -75 -63t-112 -26q-55 0 -99.5 20.5t-76.5 55t-49.5 80.5t-17.5 97t17.5 97.5t49.5 81t76.5 55t99.5 20.5q65 0 112 -26t75 -63v77h72zM480 321q-21 47 -67 78t-103 31q-41 0 -75 -14.5t-58.5 -40t-38.5 -60t-14 -74.5t14 -74t38.5 -59.5
t58.5 -40t75 -14.5q28 0 54 8.5t48.5 23t39.5 34.5t28 43v159zM343 710h92l-118 -134h-70z" />
    <glyph glyph-name="franclow.mono" 
d="M138 67h-77v51h77v365h387v-63h-315v-154h250v-63h-250v-85h131v-51h-131v-67h-72v67z" />
    <glyph glyph-name="cyrbreve.cap" horiz-adv-x="561" 
d="M259 749q-75 0 -120.5 41t-46.5 111h64q0 -41 27.5 -67.5t75.5 -26.5q46 0 73 26.5t28 67.5h64q0 -35 -13 -63t-35 -48t-52 -30.5t-65 -10.5z" />
    <glyph glyph-name="f.alt01" horiz-adv-x="353" 
d="M85 0v564q0 65 34.5 104.5t103.5 39.5q29 0 54 -4t48 -15v-66q-17 8 -37.5 14t-46.5 6q-42 0 -63 -24t-21 -69v-67h168v-63h-168v-420h-72z" />
    <glyph glyph-name="idieresis_idieresis" horiz-adv-x="496" 
d="M331 483h72v-483h-72v483zM201 646q0 20 13.5 33.5t33.5 13.5t33.5 -13.5t13.5 -33.5t-13.5 -33.5t-33.5 -13.5t-33.5 13.5t-13.5 33.5zM93 483h72v-483h-72v483zM-18 646q0 20 13.5 33.5t33.5 13.5t33.5 -13.5t13.5 -33.5t-13.5 -33.5t-33.5 -13.5t-33.5 13.5
t-13.5 33.5zM420 646q0 20 13.5 33.5t33.5 13.5t33.5 -13.5t13.5 -33.5t-13.5 -33.5t-33.5 -13.5t-33.5 13.5t-13.5 33.5z" />
    <glyph glyph-name="uni0438_uni0439" horiz-adv-x="993" 
d="M85 483h72v-377l309 377h67v-377l308 377h67v-483h-71v376l-311 -376h-65v376l-309 -376h-67v483zM684 558q-36 0 -66 10.5t-51.5 30.5t-33.5 48.5t-12 63.5h64q0 -42 26 -68.5t73 -26.5q45 0 71.5 26.5t26.5 68.5h64q0 -35 -12.5 -63.5t-34 -48.5t-51.5 -30.5t-64 -10.5
z" />
    <glyph glyph-name="uniF727.mono" 
d="M282 84h-156v51h156v62h-156v51h139l-184 235h84l154 -199l154 199h83l-186 -235h139v-51h-155v-62h155v-51h-155v-84h-72v84z" />
    <glyph glyph-name="pesolow.mono" 
d="M91 293h-75v63h75v127h244q78 0 122.5 -35.5t55.5 -91.5h70v-63h-69q-10 -60 -57 -95.5t-125 -35.5h-169v-162h-72v293zM163 420v-195h159q57 0 89 25t32 73q0 46 -32 71.5t-89 25.5h-159z" />
    <glyph glyph-name="acircumflex.alt" 
d="M552 483v-483h-72v77q-28 -37 -75 -63t-112 -26q-55 0 -99.5 20.5t-76.5 55t-49.5 80.5t-17.5 97t17.5 97.5t49.5 81t76.5 55t99.5 20.5q65 0 112 -26t75 -63v77h72zM480 321q-21 47 -67 78t-103 31q-41 0 -75 -14.5t-58.5 -40t-38.5 -60t-14 -74.5t14 -74t38.5 -59.5
t58.5 -40t75 -14.5q28 0 54 8.5t48.5 23t39.5 34.5t28 43v159zM273 710h73l110 -134h-71l-77 92l-76 -92h-71z" />
    <glyph glyph-name="uni20B4.mono" 
d="M333 -12q-107 0 -166.5 41.5t-59.5 113.5q0 42 14 69.5t41 50.5h-90v63h483v-63h-293q-34 -18 -56.5 -44t-22.5 -63q0 -47 39 -73t120 -26q45 0 93 11t82 28v-73q-78 -35 -184 -35zM72 458h317q25 15 41.5 37t16.5 53q0 45 -37.5 70t-115.5 25q-44 0 -88.5 -10t-77.5 -25
v71q31 15 77.5 24t95.5 9q109 0 166 -43t57 -112q0 -62 -43 -99h74v-63h-483v63z" />
    <glyph glyph-name="aring.alt" 
d="M310 742q40 0 68 -28t28 -68t-28 -68t-68 -28t-68 28t-28 68t28 68t68 28zM310 590q24 0 40 16.5t16 39.5q0 24 -16 40t-40 16q-23 0 -39.5 -16t-16.5 -40q0 -23 16.5 -39.5t39.5 -16.5zM552 483v-483h-72v77q-28 -37 -75 -63t-112 -26q-55 0 -99.5 20.5t-76.5 55
t-49.5 80.5t-17.5 97t17.5 97.5t49.5 81t76.5 55t99.5 20.5q65 0 112 -26t75 -63v77h72zM480 321q-21 47 -67 78t-103 31q-41 0 -75 -14.5t-58.5 -40t-38.5 -60t-14 -74.5t14 -74t38.5 -59.5t58.5 -40t75 -14.5q28 0 54 8.5t48.5 23t39.5 34.5t28 43v159z" />
    <glyph glyph-name="amacron.alt" 
d="M552 483v-483h-72v77q-28 -37 -75 -63t-112 -26q-55 0 -99.5 20.5t-76.5 55t-49.5 80.5t-17.5 97t17.5 97.5t49.5 81t76.5 55t99.5 20.5q65 0 112 -26t75 -63v77h72zM480 321q-21 47 -67 78t-103 31q-41 0 -75 -14.5t-58.5 -40t-38.5 -60t-14 -74.5t14 -74t38.5 -59.5
t58.5 -40t75 -14.5q28 0 54 8.5t48.5 23t39.5 34.5t28 43v159zM190 673h252v-55h-252v55z" />
    <glyph glyph-name="uni0418_uni0419" horiz-adv-x="1270" 
d="M99 700h73v-576l435 576h65v-576l435 576h65v-700h-73v578l-438 -578h-62v578l-438 -578h-62v700zM886 745q-36 0 -66.5 11t-53 31t-35 48t-12.5 63h64q0 -42 27.5 -68.5t74.5 -26.5q46 0 74 26.5t28 68.5h64q0 -35 -12.5 -63t-34.5 -48t-52.5 -31t-65.5 -11z" />
    <glyph glyph-name="uniF721.mono" 
d="M330 -12q-40 0 -74.5 7t-60.5 20.5t-41 34t-15 48.5q0 23 10.5 42t25.5 30h-71v51h406v-51h-251q-17 -8 -31.5 -22t-14.5 -34q0 -26 30.5 -43.5t93.5 -17.5q40 0 80 7.5t70 19.5v-66q-32 -13 -73 -19.5t-84 -6.5zM303 495q40 0 73.5 -6.5t58.5 -20t39 -34t14 -48.5
q0 -22 -10 -39.5t-23 -24.5h55v-51h-406v51h267q17 6 30 17.5t13 31.5q0 26 -27.5 42.5t-90.5 16.5q-40 0 -77.5 -7t-68.5 -20v66q66 26 153 26z" />
    <glyph glyph-name="uniF725.mono" 
d="M88 243h69v66q0 90 54 138t153 48q44 0 79 -8.5t67 -27.5v-69q-32 20 -64.5 30t-74.5 10q-72 0 -107 -30.5t-35 -96.5v-60h230v-59h-230v-68q0 -20 -6.5 -33t-15.5 -20h310v-63h-429v63h27q15 0 23.5 7t12.5 17.5t5 23t1 23.5v50h-69v59z" />
    <glyph glyph-name="tilde.cap" horiz-adv-x="519" 
d="M334 772q-20 0 -38.5 9t-36 19.5t-33 19.5t-30.5 9q-21 0 -30 -16.5t-11 -36.5h-49q1 23 7.5 43t17.5 35t27 23.5t35 8.5q20 0 38.5 -9t36 -19.5t33.5 -19t30 -8.5q22 0 29.5 16t11.5 36h49q-1 -47 -24 -78.5t-63 -31.5z" />
    <glyph glyph-name="Euro.mono" horiz-adv-x="644" 
d="M29 472h95q14 52 41 96.5t66.5 76t90 49.5t111.5 18q99 0 173 -49v-73q-75 53 -166 53q-89 0 -150.5 -46.5t-86.5 -124.5h251v-63h-266q-2 -14 -3 -26t-1 -26v-21t2 -20h268v-63h-258q20 -88 81.5 -142t162.5 -54q54 0 100.5 17t81.5 49v-76q-39 -30 -88.5 -44.5
t-100.5 -14.5q-64 0 -116.5 19.5t-92.5 54.5t-66.5 83.5t-38.5 107.5h-90v63h82q-2 11 -2 20v21q0 25 3 52h-83v63z" />
    <glyph glyph-name="sterling.mono" horiz-adv-x="623" 
d="M74 67h20q17 0 27 7t15.5 19t7.5 27.5t2 32.5v142h-72v67h72v124q0 109 60.5 167.5t168.5 58.5q46 0 87 -10t76 -33v-73q-31 22 -70.5 34.5t-82.5 12.5q-80 0 -122.5 -42.5t-42.5 -124.5v-114h274v-67h-274v-173q0 -22 -8 -36t-16 -19h348v-67h-470v67z" />
    <glyph glyph-name="yen.mono" horiz-adv-x="638" 
d="M282 141h-209v63h209v93h-209v63h184l-229 340h86l207 -312l207 312h83l-229 -340h184v-63h-210v-93h210v-63h-210v-141h-74v141z" />
    <glyph glyph-name="dollar.mono" 
d="M277 -112v102q-70 5 -128 25t-93 47v83q18 -16 45 -31.5t60 -28t71 -20.5t78 -8t74.5 9t60 26t40 41.5t14.5 55.5q0 34 -15.5 57t-42.5 38.5t-63 27t-76 23.5q-48 13 -90.5 27.5t-74 36t-49.5 53t-18 79.5q0 35 13.5 66t39.5 54.5t65 39t89 19.5v103h74v-103
q53 -5 98 -19.5t81 -36.5v-76q-43 27 -98.5 46t-117.5 19q-45 0 -77 -9.5t-52.5 -25.5t-30 -36.5t-9.5 -42.5q0 -32 16.5 -52.5t44 -34.5t63 -24t73.5 -21q42 -13 84 -28t75 -38.5t53.5 -57t20.5 -83.5q0 -45 -18 -80.5t-48.5 -60.5t-71 -40t-86.5 -19v-103z" />
    <glyph glyph-name="uniF653.mono" 
d="M285 -117v106q-54 4 -99 18t-69 31v74q13 -9 32.5 -19t45 -19t56 -15t64.5 -6q62 0 97.5 20.5t35.5 56.5q0 21 -12 34.5t-33 22t-48.5 14.5t-57.5 14q-38 10 -69.5 21.5t-53.5 28t-34 40t-12 56.5q0 54 40 89.5t117 42.5v107h66v-106q42 -3 81 -14t66 -28v-71
q-33 20 -78.5 34.5t-94.5 14.5q-65 0 -94.5 -20.5t-29.5 -50.5q0 -21 12.5 -35t33.5 -23t47 -15t53 -12q35 -8 66.5 -19t55.5 -27.5t38.5 -40.5t14.5 -58q0 -30 -13 -54t-35.5 -42t-54 -29t-68.5 -14v-107h-66z" />
    <glyph glyph-name="uniF722.mono" 
d="M138 67h-77v51h77v60h-77v51h77v254h237q44 0 77.5 -12t56 -32.5t34 -49t11.5 -61.5q0 -69 -48.5 -109.5t-133.5 -40.5h-162v-60h200v-51h-200v-67h-72v67zM362 229q57 0 88.5 23.5t31.5 71.5t-31.5 72t-88.5 24h-152v-191h152z" />
    <glyph glyph-name="f_f_t" horiz-adv-x="1028" 
d="M123 0v420h-96v63h96v81q0 65 34.5 104.5t103.5 39.5q29 0 54 -4t48 -15v-66q-17 8 -37.5 14t-46.5 6q-42 0 -63 -24t-21 -69v-67h236v81q0 65 34.5 104.5t103.5 39.5q29 0 54 -4t48 -15v-66q-17 8 -37.5 14t-46.5 6q-42 0 -63 -24t-21 -69v-67h236v149h72v-149h169v-63
h-169v-261q0 -57 19.5 -80t64.5 -23q26 0 46 6t33 14v-66q-14 -10 -42.5 -16t-56.5 -6q-36 0 -62 11.5t-42.5 31.5t-24 47t-7.5 59v283h-236v-420h-72v420h-236v-420h-72z" />
    <glyph glyph-name="aogonek.alt" 
d="M573 -195q-54 0 -83 28.5t-29 70.5q0 34 14.5 59t25.5 37h-21v77q-28 -37 -75 -63t-112 -26q-55 0 -99.5 20.5t-76.5 55t-49.5 80.5t-17.5 97t17.5 97.5t49.5 81t76.5 55t99.5 20.5q65 0 112 -26t75 -63v77h72v-483q-11 -12 -24 -33.5t-13 -49.5q0 -29 19 -47t50 -18
q12 0 21 2t19 5v-48q-8 -2 -20.5 -4t-30.5 -2zM480 321q-21 47 -67 78t-103 31q-41 0 -75 -14.5t-58.5 -40t-38.5 -60t-14 -74.5t14 -74t38.5 -59.5t58.5 -40t75 -14.5q28 0 54 8.5t48.5 23t39.5 34.5t28 43v159z" />
    <glyph glyph-name="abreve.alt" 
d="M552 483v-483h-72v77q-28 -37 -75 -63t-112 -26q-55 0 -99.5 20.5t-76.5 55t-49.5 80.5t-17.5 97t17.5 97.5t49.5 81t76.5 55t99.5 20.5q65 0 112 -26t75 -63v77h72zM480 321q-21 47 -67 78t-103 31q-41 0 -75 -14.5t-58.5 -40t-38.5 -60t-14 -74.5t14 -74t38.5 -59.5
t58.5 -40t75 -14.5q28 0 54 8.5t48.5 23t39.5 34.5t28 43v159zM313 570q-29 0 -54 10.5t-43.5 29t-29.5 44t-12 56.5h57q1 -37 24 -61.5t58 -24.5t57.5 24.5t23.5 61.5h57q-1 -31 -12.5 -56.5t-30 -44t-43.5 -29t-52 -10.5z" />
    <glyph glyph-name="gcircumflex.alt" horiz-adv-x="617" 
d="M295 495q48 0 87 -15t67 -40l132 56v-61l-94 -43q28 -45 28 -98q0 -61 -34 -110q32 -31 49.5 -72t17.5 -86q0 -46 -18 -88t-51 -73.5t-79 -50t-103 -18.5q-51 0 -96.5 16t-79 45.5t-54 70t-21.5 90.5h74q1 -33 15 -62t37.5 -50t55 -33t69.5 -12t70.5 13t56.5 35t37.5 52
t13.5 65q0 31 -10.5 59t-31.5 51q-27 -20 -61.5 -31t-76.5 -11q-50 0 -91 16t-70 43.5t-44.5 63.5t-15.5 77q0 40 15.5 76.5t44.5 64.5t70 44t91 16zM295 159q32 0 59 10t47 28t31.5 43t11.5 54t-11.5 54t-31.5 43t-47 28.5t-59 10.5t-60 -10.5t-48 -28.5t-31.5 -43
t-11.5 -54t11.5 -54t31.5 -43t48 -28t60 -10zM264 710h73l110 -134h-71l-77 92l-76 -92h-71z" />
    <glyph glyph-name="breve.cap" horiz-adv-x="520" 
d="M259 756q-28 0 -53 10t-44 28.5t-30 44.5t-12 57h57q1 -37 24 -62t58 -25t57.5 25t23.5 62h57q0 -31 -11.5 -57t-30 -44.5t-43.5 -28.5t-53 -10z" />
    <glyph glyph-name="dotaccent.cap" horiz-adv-x="478" 
d="M189 827q0 20 13.5 33.5t33.5 13.5t33.5 -13.5t13.5 -33.5t-13.5 -33.5t-33.5 -13.5t-33.5 13.5t-13.5 33.5z" />
    <glyph glyph-name="caron.cap" horiz-adv-x="532" 
d="M119 896h71l76 -91l77 91h70l-111 -133h-73z" />
    <glyph glyph-name="ring.cap" horiz-adv-x="522" 
d="M259 926q19 0 36.5 -7.5t30.5 -20.5t20.5 -30.5t7.5 -37.5t-7.5 -37.5t-20.5 -30.5t-30.5 -20.5t-36.5 -7.5q-41 0 -69 28t-28 68t28 68t69 28zM259 774q23 0 39 16.5t16 39.5q0 24 -16 40t-39 16q-24 0 -40.5 -16t-16.5 -40q0 -23 16.5 -39.5t40.5 -16.5z" />
    <glyph glyph-name="grave.cap" horiz-adv-x="517" 
d="M147 896h92l96 -133h-70z" />
    <glyph glyph-name="acute.cap" horiz-adv-x="492" 
d="M246 896h92l-118 -133h-69z" />
    <glyph glyph-name="macron.cap" horiz-adv-x="533" 
d="M138 857h252v-55h-252v55z" />
    </font>
</defs>
</svg>
